<svg width="220" height="220" viewBox="0 0 220 220" fill="none" xmlns="http://www.w3.org/2000/svg">
<mask id="mask0_391_3058" style="mask-type:alpha" maskUnits="userSpaceOnUse" x="0" y="0" width="220" height="220">
<rect width="220" height="220" rx="20" fill="white"/>
</mask>
<g mask="url(#mask0_391_3058)">
<path d="M20.7373 111.811C20.7373 179.456 93.9659 221.735 152.549 187.912C179.737 172.215 196.486 143.205 196.486 111.811C196.486 44.1648 123.258 1.8864 64.6745 35.7092C37.4861 51.4064 20.7373 80.416 20.7373 111.811Z" fill="#1AE584"/>
<path d="M80.0127 110C79.9939 133.084 104.972 147.532 124.972 136.007C134.27 130.649 139.996 120.731 139.987 110C140.006 86.9162 115.028 72.4684 95.0275 83.994C85.7299 89.3518 80.0041 99.2694 80.0127 110Z" fill="white" stroke="#255F6D" stroke-linecap="round" stroke-linejoin="round"/>
<path d="M103.935 124.798C102.78 124.797 101.674 124.337 100.859 123.52L92.1265 114.787C89.7495 112.411 90.8361 108.353 94.0823 107.483C95.5889 107.079 97.1965 107.509 98.2997 108.612L103.946 114.258L121.723 96.4808C124.1 94.1048 128.157 95.1928 129.027 98.4394C129.43 99.946 128.999 101.553 127.896 102.656L107.026 123.526C106.206 124.345 105.093 124.802 103.935 124.798Z" fill="#0EC4B6" stroke="#255F6D" stroke-linecap="round" stroke-linejoin="round"/>
<path d="M110 80.0132V68.0712" stroke="#255F6D" stroke-linecap="round" stroke-linejoin="round"/>
<path d="M110 151.93V139.987" stroke="#255F6D" stroke-linecap="round" stroke-linejoin="round"/>
<path d="M93.2381 162.652L57.3479 126.762" stroke="#255F6D" stroke-linecap="round" stroke-linejoin="round"/>
<path d="M126.762 162.652L162.652 126.762" stroke="#255F6D" stroke-linecap="round" stroke-linejoin="round"/>
<path d="M93.2381 57.3482L57.3479 93.2384" stroke="#255F6D" stroke-linecap="round" stroke-linejoin="round"/>
<path d="M126.762 57.3482L162.652 93.2384" stroke="#255F6D" stroke-linecap="round" stroke-linejoin="round"/>
<path d="M110 44.578L133.669 28.7782C133.492 28.4354 133.231 28.143 132.911 27.928L111.279 13.4858C110.504 12.9698 109.494 12.9698 108.719 13.4858L87.1001 27.9214C86.7753 28.138 86.5107 28.4336 86.3311 28.7804L110 44.578Z" fill="white"/>
<path d="M133.928 29.8304C133.925 29.4642 133.837 29.1036 133.669 28.7782L110 44.578V68.0712C110.454 68.0716 110.898 67.9378 111.276 67.6866L132.909 53.2446C133.543 52.8176 133.925 52.1044 133.928 51.3398V29.8304Z" fill="#0EC4B6"/>
<path d="M86.0718 29.8392V51.331C86.073 52.1018 86.4586 52.8214 87.1 53.249L108.719 67.6844C109.099 67.9372 109.544 68.0718 110 68.0712V44.578L86.331 28.7804C86.161 29.1074 86.0722 29.4706 86.0718 29.8392Z" fill="#1AE584"/>
<path d="M86.3311 28.7804L110 44.578L133.669 28.7782" stroke="#255F6D" stroke-linecap="round" stroke-linejoin="round"/>
<path d="M110 44.578V68.0712" stroke="#255F6D" stroke-linecap="round" stroke-linejoin="round"/>
<path d="M111.281 13.4858C110.505 12.9694 109.495 12.9694 108.719 13.4858L87.0978 27.9214C86.4572 28.3494 86.0724 29.0688 86.0718 29.8392V51.331C86.0724 52.1014 86.4572 52.8208 87.0978 53.249L108.719 67.6844C109.495 68.201 110.505 68.201 111.281 67.6844L132.902 53.249C133.543 52.8214 133.928 52.1016 133.928 51.331V29.8392C133.928 29.0686 133.543 28.3488 132.902 27.9214L111.281 13.4858Z" stroke="#255F6D" stroke-linecap="round" stroke-linejoin="round"/>
<path d="M179.421 113.994L203.09 98.1944C202.913 97.8512 202.653 97.5586 202.332 97.3442L180.699 82.9C179.924 82.385 178.915 82.385 178.14 82.9L156.521 97.3354C156.196 97.552 155.932 97.8466 155.752 98.1922L179.421 113.994Z" fill="white"/>
<path d="M203.342 99.2468C203.341 98.8804 203.252 98.5196 203.083 98.1944L179.421 113.994V137.487C179.875 137.488 180.32 137.354 180.697 137.101L202.332 122.659C202.965 122.232 203.346 121.52 203.349 120.756L203.342 99.2468Z" fill="#0EC4B6"/>
<path d="M155.488 99.2556V120.745C155.488 121.516 155.873 122.237 156.514 122.665L178.133 137.099C178.512 137.352 178.958 137.487 179.414 137.487V113.994L155.745 98.1944C155.577 98.5228 155.489 98.8864 155.488 99.2556Z" fill="#1AE584"/>
<path d="M155.747 98.1944L179.414 113.994L203.083 98.1944" stroke="#255F6D" stroke-linecap="round" stroke-linejoin="round"/>
<path d="M179.414 113.994V137.487" stroke="#255F6D" stroke-linecap="round" stroke-linejoin="round"/>
<path d="M180.695 82.9022C179.92 82.3838 178.909 82.3838 178.133 82.9022L156.514 97.3354C155.873 97.764 155.488 98.4844 155.488 99.2556V120.745C155.488 121.516 155.873 122.237 156.514 122.665L178.133 137.099C178.909 137.617 179.92 137.617 180.695 137.099L202.316 122.665C202.958 122.237 203.342 121.516 203.342 120.745V99.2556C203.342 98.4844 202.958 97.764 202.316 97.3354L180.695 82.9022Z" stroke="#255F6D" stroke-linecap="round" stroke-linejoin="round"/>
<path d="M110 183.408L133.669 167.609C133.491 167.266 133.231 166.974 132.911 166.758L111.279 152.316C110.504 151.8 109.494 151.8 108.719 152.316L87.0979 166.752C86.7731 166.968 86.5093 167.264 86.3311 167.611L110 183.408Z" fill="white"/>
<path d="M133.928 168.656C133.925 168.29 133.837 167.93 133.669 167.604L110 183.408V206.902C110.454 206.902 110.898 206.768 111.276 206.517L132.909 192.075C133.542 191.647 133.923 190.934 133.928 190.17V168.656Z" fill="#0EC4B6"/>
<path d="M86.0718 168.67V190.162C86.072 190.932 86.457 191.652 87.0978 192.079L108.719 206.515C109.099 206.767 109.544 206.902 110 206.902V183.408L86.331 167.611C86.161 167.938 86.0722 168.301 86.0718 168.67Z" fill="#1AE584"/>
<path d="M86.3311 167.611L110 183.408L133.667 167.609" stroke="#255F6D" stroke-linecap="round" stroke-linejoin="round"/>
<path d="M110 183.408V206.902" stroke="#255F6D" stroke-linecap="round" stroke-linejoin="round"/>
<path d="M111.281 152.316C110.505 151.8 109.495 151.8 108.719 152.316L87.0978 166.752C86.4566 167.179 86.0716 167.899 86.0718 168.67V190.162C86.0716 190.932 86.4566 191.652 87.0978 192.079L108.719 206.513C109.495 207.03 110.505 207.03 111.281 206.513L132.902 192.077C133.543 191.649 133.928 190.93 133.928 190.159V168.67C133.928 167.899 133.543 167.18 132.902 166.752L111.281 152.316Z" stroke="#255F6D" stroke-linecap="round" stroke-linejoin="round"/>
<path d="M40.5792 113.992L64.2482 98.1922C64.0708 97.8498 63.8102 97.5576 63.4904 97.342L41.8578 82.9C41.0832 82.3826 40.0732 82.3826 39.2986 82.9L17.6792 97.3332C17.3548 97.5504 17.0904 97.846 16.9104 98.1922L40.5792 113.992Z" fill="white"/>
<path d="M64.5117 99.2358C64.5099 98.8694 64.4209 98.5088 64.2525 98.1834L40.5791 113.992V137.498C41.0335 137.498 41.4775 137.364 41.8555 137.112L63.4903 122.67C64.1239 122.242 64.5047 121.529 64.5073 120.765L64.5117 99.2358Z" fill="#0EC4B6"/>
<path d="M16.6577 99.2534V120.745C16.6575 121.516 17.0425 122.235 17.6837 122.663L39.3031 137.099C39.6821 137.352 40.1279 137.487 40.5837 137.487V113.992L16.9149 98.1944C16.7467 98.5222 16.6587 98.885 16.6577 99.2534Z" fill="#1AE584"/>
<path d="M16.917 98.1944L40.5836 113.994L64.2526 98.1922" stroke="#255F6D" stroke-linecap="round" stroke-linejoin="round"/>
<path d="M40.5835 113.994V137.487" stroke="#255F6D" stroke-linecap="round" stroke-linejoin="round"/>
<path d="M41.8645 82.9022C41.0893 82.3838 40.0783 82.3838 39.3031 82.9022L17.6837 97.3354C17.0429 97.7632 16.6579 98.4828 16.6577 99.2534V120.745C16.6573 121.516 17.0423 122.236 17.6837 122.663L39.3031 137.099C40.0783 137.617 41.0893 137.617 41.8645 137.099L63.4861 122.663C64.1275 122.236 64.5125 121.516 64.5119 120.745V99.2534C64.5117 98.4828 64.1269 97.7632 63.4861 97.3354L41.8645 82.9022Z" stroke="#255F6D" stroke-linecap="round" stroke-linejoin="round"/>
</g>
</svg>
