<svg width="90" height="90" viewBox="0 0 90 90" fill="none" xmlns="http://www.w3.org/2000/svg">
<path d="M0.900024 45.0001C0.900024 75.2381 33.6337 94.1368 59.8205 79.0178C71.9738 72.0011 79.4607 59.0336 79.4607 45.0001C79.4607 14.762 46.727 -4.1367 20.5402 10.9823C8.38676 17.9991 0.900024 30.9665 0.900024 45.0001Z" fill="#1AE584"/>
<path d="M11.0344 21.6018H67.1934V61.7148H11.0344V21.6018Z" fill="white"/>
<path d="M11.0344 27.532H67.1934V32.718H11.0344V27.532Z" fill="#0EC4B6" stroke="#255F6D"/>
<path d="M11.0344 27.532H67.1934V32.718H11.0344V27.532Z" stroke="#255F6D" stroke-linecap="round" stroke-linejoin="round"/>
<path d="M11.0344 21.6018H67.1934V61.7148H11.0344V21.6018Z" stroke="#255F6D" stroke-linecap="round" stroke-linejoin="round"/>
<path d="M53.9009 45.319C53.9009 46.1646 52.7598 46.849 51.3477 46.849C49.9356 46.849 48.7945 46.1616 48.7945 45.319C48.7945 44.4765 49.9356 43.79 51.3477 43.79C52.7598 43.79 53.9009 44.4745 53.9009 45.319Z" fill="#0EC4B6" stroke="#255F6D"/>
<path d="M24.3287 45.319C24.3287 46.1646 25.4698 46.849 26.8819 46.849C28.294 46.849 29.4352 46.1616 29.4352 45.319C29.4352 44.4765 28.2941 43.79 26.8819 43.79C25.4698 43.79 24.3287 44.4745 24.3287 45.319Z" fill="#0EC4B6" stroke="#255F6D"/>
<path d="M30.265 39.2002C30.2618 40.6554 31.8352 41.5684 33.097 40.8435C33.6851 40.5057 34.0472 39.8786 34.0458 39.2002C34.0489 37.7451 32.4756 36.8322 31.2137 37.557C30.6256 37.8949 30.2635 38.522 30.265 39.2002Z" fill="#255F6D"/>
<path d="M44.3048 39.2002C44.3016 40.6554 45.8749 41.5684 47.1367 40.8435C47.7249 40.5057 48.0869 39.8786 48.0855 39.2002C48.0886 37.7451 46.5153 36.8322 45.2535 37.557C44.6653 37.8949 44.3032 38.522 44.3048 39.2002Z" fill="#255F6D"/>
<path d="M39.1138 57.5579C43.915 57.6596 48.0562 54.2064 48.8191 49.4652C48.8555 49.185 48.7511 48.9049 48.5402 48.7169C48.3226 48.5216 48.0283 48.4354 47.7398 48.4822C42.0252 49.3974 36.2014 49.3974 30.4869 48.4822C30.1984 48.4357 29.9043 48.5219 29.6866 48.7169C29.476 48.9052 29.3717 49.1851 29.4077 49.4652C30.1706 54.2068 34.3124 57.6601 39.1138 57.5579Z" fill="#0EC4B6" stroke="#255F6D" stroke-linecap="round" stroke-linejoin="round"/>
<path d="M31.9884 54.6373C34.2146 53.5878 36.6563 53.0757 39.1168 53.1428C41.5768 53.0759 44.0183 53.5878 46.2442 54.6373C42.2899 58.5312 35.9426 58.5312 31.9884 54.6373Z" fill="white" stroke="#255F6D" stroke-linecap="round" stroke-linejoin="round"/>
<path d="M22.8852 71.0938C22.8852 73.0782 36.3109 74.3184 47.0515 73.3262C52.0361 72.8658 55.1068 72.0148 55.1068 71.0938C55.1068 69.1095 41.6812 67.8692 30.9406 68.8614C25.9559 69.3219 22.8852 70.1729 22.8852 71.0938Z" fill="#0EC4B6"/>
<path d="M55.6135 53.4728C55.6135 66.1727 69.3617 74.1103 80.3601 67.7602C85.4645 64.8132 88.609 59.3668 88.609 53.4728C88.609 40.7728 74.8609 32.8354 63.8624 39.1853C58.758 42.1324 55.6135 47.5787 55.6135 53.4728Z" fill="#0EC4B6"/>
<path d="M55.6135 53.4728C55.6135 66.1727 69.3617 74.1103 80.3601 67.7602C85.4645 64.8132 88.609 59.3668 88.609 53.4728C88.609 40.7728 74.8609 32.8354 63.8624 39.1853C58.758 42.1324 55.6135 47.5787 55.6135 53.4728Z" stroke="#255F6D" stroke-linecap="round" stroke-linejoin="round"/>
<path d="M68.6811 62.0703C68.046 62.0709 67.4369 61.8185 66.9882 61.3692L62.1999 56.581C60.8966 55.2777 61.4929 53.0523 63.2731 52.5753C64.0994 52.3539 64.981 52.5901 65.5858 53.195L68.6811 56.2932L78.4305 46.5448C79.7151 45.2233 81.9486 45.788 82.4508 47.5612C82.6905 48.4078 82.4466 49.3177 81.8155 49.9308L70.3741 61.3692C69.9256 61.819 69.3163 62.0712 68.6811 62.0703Z" fill="white" stroke="#255F6D" stroke-linecap="round" stroke-linejoin="round"/>
</svg>
