<svg width="90" height="90" viewBox="0 0 90 90" fill="none" xmlns="http://www.w3.org/2000/svg">
<path d="M4.44421 45C4.44421 54.5478 8.23706 63.7045 14.9884 70.4558C21.7397 77.2072 30.8964 81 40.4442 81C49.992 81 59.1487 77.2072 65.9001 70.4558C72.6514 63.7045 76.4442 54.5478 76.4442 45C76.4442 35.4522 72.6514 26.2955 65.9001 19.5442C59.1487 12.7928 49.992 9 40.4442 9C30.8964 9 21.7397 12.7928 14.9884 19.5442C8.23706 26.2955 4.44421 35.4522 4.44421 45Z" fill="#1AE584"/>
<path d="M13.7142 23.5557H65.3112V60.4107H13.7142V23.5557Z" fill="white"/>
<path d="M13.7142 29.0044H65.3112V33.7699H13.7142V29.0044Z" fill="#0EC4B6" stroke="#255F6D"/>
<path d="M13.7142 29.0044H65.3112V33.7699H13.7142V29.0044Z" stroke="#255F6D" stroke-linecap="round" stroke-linejoin="round"/>
<path d="M13.7142 23.5557H65.3112V60.4107H13.7142V23.5557Z" stroke="#255F6D" stroke-linecap="round" stroke-linejoin="round"/>
<path d="M31.392 39.7153C31.392 40.1759 31.575 40.6178 31.9008 40.9435C32.2265 41.2693 32.6683 41.4523 33.129 41.4523C33.5897 41.4523 34.0315 41.2693 34.3572 40.9435C34.683 40.6178 34.866 40.1759 34.866 39.7153C34.866 39.2546 34.683 38.8128 34.3572 38.487C34.0315 38.1613 33.5897 37.9783 33.129 37.9783C32.6683 37.9783 32.2265 38.1613 31.9008 38.487C31.575 38.8128 31.392 39.2546 31.392 39.7153Z" fill="#255F6D"/>
<path d="M44.2971 39.7153C44.2971 40.1759 44.4801 40.6178 44.8058 40.9435C45.1316 41.2693 45.5734 41.4523 46.0341 41.4523C46.4948 41.4523 46.9366 41.2693 47.2623 40.9435C47.5881 40.6178 47.7711 40.1759 47.7711 39.7153C47.7711 39.2546 47.5881 38.8128 47.2623 38.487C46.9366 38.1613 46.4948 37.9783 46.0341 37.9783C45.5734 37.9783 45.1316 38.1613 44.8058 38.487C44.4801 38.8128 44.2971 39.2546 44.2971 39.7153Z" fill="#255F6D"/>
<path d="M39.5253 48.2399C37.3908 48.1933 35.3115 48.9204 33.6711 50.2869C32.0307 51.6533 30.9399 53.567 30.6 55.6748C30.5839 55.8018 30.5988 55.9307 30.6435 56.0506C30.6881 56.1705 30.7612 56.2778 30.8565 56.3633C30.9555 56.4516 31.073 56.5167 31.2003 56.5539C31.3277 56.5911 31.4617 56.5995 31.5927 56.5784C36.8458 55.7368 42.1994 55.7368 47.4525 56.5784C47.5833 56.5995 47.7172 56.5911 47.8444 56.5539C47.9716 56.5167 48.0889 56.4516 48.1878 56.3633C48.2832 56.278 48.3565 56.1707 48.4011 56.0508C48.4458 55.9308 48.4606 55.8018 48.4443 55.6748C48.1047 53.568 47.0149 51.6551 45.3758 50.2887C43.7366 48.9224 41.6588 48.1947 39.5253 48.2399Z" fill="#0EC4B6" stroke="#255F6D" stroke-linecap="round" stroke-linejoin="round"/>
<path d="M29.7 43.7588C25.6158 43.1792 22.6917 47.4965 25.92 48.7376C27.8658 49.4855 29.2644 46.4111 29.7 43.7588Z" fill="#0EC4B6" stroke="#255F6D" stroke-linecap="round" stroke-linejoin="round"/>
<path d="M28.1268 40.3461C26.7849 37.674 23.0058 37.7163 23.5998 40.1508C23.958 41.6178 26.37 41.1813 28.1268 40.3461Z" fill="#0EC4B6" stroke="#255F6D" stroke-linecap="round" stroke-linejoin="round"/>
<path d="M49.3479 43.7588C53.4321 43.1792 56.3562 47.4965 53.1279 48.7376C51.1839 49.4855 49.7853 46.4111 49.3479 43.7588Z" fill="#0EC4B6" stroke="#255F6D" stroke-linecap="round" stroke-linejoin="round"/>
<path d="M50.9229 40.3461C52.2648 37.674 56.0439 37.7163 55.4499 40.1508C55.0926 41.6178 52.6842 41.1813 50.9229 40.3461Z" fill="#0EC4B6" stroke="#255F6D" stroke-linecap="round" stroke-linejoin="round"/>
<path d="M33.9651 56.2572C34.5276 55.2627 35.3322 54.4265 36.3043 53.8261C37.2763 53.2257 38.3842 52.8806 39.5253 52.8228C40.6661 52.8809 41.7738 53.2261 42.7457 53.8265C43.7175 54.4269 44.522 55.2629 45.0846 56.2572C41.3896 55.8441 37.6601 55.8441 33.9651 56.2572Z" fill="white" stroke="#255F6D" stroke-linecap="round" stroke-linejoin="round"/>
<path d="M24.5754 68.9147C24.5754 69.5413 26.131 70.1422 28.9001 70.5853C31.6691 71.0283 35.4248 71.2772 39.3408 71.2772C43.2568 71.2772 47.0125 71.0283 49.7815 70.5853C52.5506 70.1422 54.1062 69.5413 54.1062 68.9147C54.1062 68.2882 52.5506 67.6873 49.7815 67.2442C47.0125 66.8012 43.2568 66.5522 39.3408 66.5522C35.4248 66.5522 31.6691 66.8012 28.9001 67.2442C26.131 67.6873 24.5754 68.2882 24.5754 68.9147Z" fill="#0EC4B6"/>
<path d="M56.0646 52.8003C56.0646 56.7111 57.6182 60.4617 60.3835 63.227C63.1488 65.9923 66.8994 67.5459 70.8102 67.5459C74.721 67.5459 78.4716 65.9923 81.2369 63.227C84.0023 60.4617 85.5558 56.7111 85.5558 52.8003C85.5558 48.8895 84.0023 45.1389 81.2369 42.3736C78.4716 39.6082 74.721 38.0547 70.8102 38.0547C66.8994 38.0547 63.1488 39.6082 60.3835 42.3736C57.6182 45.1389 56.0646 48.8895 56.0646 52.8003Z" fill="#0EC4B6"/>
<path d="M56.0646 52.8003C56.0646 56.7111 57.6182 60.4617 60.3835 63.227C63.1488 65.9923 66.8994 67.5459 70.8102 67.5459C74.721 67.5459 78.4716 65.9923 81.2369 63.227C84.0023 60.4617 85.5558 56.7111 85.5558 52.8003C85.5558 48.8895 84.0023 45.1389 81.2369 42.3736C78.4716 39.6082 74.721 38.0547 70.8102 38.0547C66.8994 38.0547 63.1488 39.6082 60.3835 42.3736C57.6182 45.1389 56.0646 48.8895 56.0646 52.8003Z" stroke="#255F6D" stroke-linecap="round" stroke-linejoin="round"/>
<path d="M70.8102 53.5859C70.4318 53.5864 70.064 53.4605 69.7653 53.2281C69.4666 52.9958 69.254 52.6703 69.1614 52.3034L68.1894 48.4802C67.9431 47.6745 67.7448 46.855 67.5954 46.0259C67.5649 45.5857 67.6252 45.144 67.7725 44.728C67.9198 44.3121 68.151 43.9308 68.4516 43.6079C68.7523 43.285 69.1161 43.0272 69.5205 42.8507C69.9249 42.6741 70.3612 42.5825 70.8025 42.5816C71.2437 42.5806 71.6805 42.6702 72.0856 42.845C72.4908 43.0197 72.8558 43.2758 73.1579 43.5974C73.46 43.9189 73.6929 44.2992 73.8421 44.7144C73.9912 45.1297 74.0535 45.5712 74.025 46.0115C73.8765 46.8532 73.676 47.6849 73.4247 48.5018L72.459 52.3025C72.3662 52.6694 72.1537 52.9949 71.855 53.2274C71.5564 53.4599 71.1887 53.586 70.8102 53.5859Z" fill="white" stroke="#255F6D" stroke-linecap="round" stroke-linejoin="round"/>
<path d="M70.8102 63.1909C70.1728 63.1911 69.5496 63.0023 69.0195 62.6483C68.4894 62.2943 68.0762 61.791 67.8321 61.2022C67.588 60.6134 67.524 59.9654 67.6481 59.3401C67.7723 58.7149 68.0791 58.1406 68.5297 57.6897C68.9803 57.2389 69.5545 56.9318 70.1797 56.8072C70.8048 56.6827 71.4528 56.7463 72.0418 56.9901C72.6308 57.2339 73.1343 57.6468 73.4885 58.1767C73.8428 58.7066 74.032 59.3297 74.0322 59.9671C74.0315 60.8216 73.6919 61.6409 73.0878 62.2453C72.4838 62.8496 71.6647 63.1897 70.8102 63.1909Z" fill="white" stroke="#255F6D" stroke-linecap="round" stroke-linejoin="round"/>
</svg>
