<svg width="90" height="90" viewBox="0 0 90 90" fill="none" xmlns="http://www.w3.org/2000/svg">
<path d="M1.96777 43.9324C1.96777 77.0587 37.828 97.7626 66.5161 81.1994C79.8304 73.5125 88.0322 59.3064 88.0322 43.9324C88.0322 10.8062 52.172 -9.89778 23.4839 6.66537C10.1697 14.3524 1.96777 28.5585 1.96777 43.9324Z" fill="#1AE584"/>
<path d="M74.76 66.7589H39.0013C37.28 66.7589 35.8922 67.5291 35.8922 68.4801C35.8922 69.4312 37.2843 70.2014 39.0013 70.2014H40.5558C42.2771 70.2014 43.666 70.9717 43.666 71.9227C43.666 72.8738 42.2739 73.644 40.5558 73.644H34.3377C30.9026 73.644 28.1184 75.1856 28.1184 77.0866C28.1184 78.9875 30.9026 80.5291 34.3377 80.5291H37.9104C40.3944 80.5291 42.1523 82.0966 42.1114 83.9309V83.9717C42.1114 86.5063 47.3312 88.5622 53.771 88.5622C60.2108 88.5622 65.4317 86.5063 65.4317 83.9717C65.4251 83.5467 65.2889 83.1338 65.0412 82.7883C64.3355 81.7459 65.408 80.5291 66.9863 80.5291C70.4213 80.5291 73.2054 78.9875 73.2054 77.0866C73.2054 75.1856 70.4213 73.644 66.9863 73.644H65.4317C64.1407 73.644 63.0993 73.1298 63.0993 72.4961C63.0993 71.8624 64.144 71.3493 65.4317 71.3493H74.76C77.3355 71.3493 79.4236 70.3208 79.4236 69.0535C79.4236 67.7862 77.3355 66.7589 74.76 66.7589Z" fill="#0EC4B6" stroke="#255F6D" stroke-linecap="round" stroke-linejoin="round"/>
<path d="M67.649 26.9969L66.6098 22.8378C66.4655 22.2682 65.9527 21.8694 65.3651 21.8696H54.5414C53.9539 21.8691 53.4413 22.2681 53.2978 22.8378L52.2575 26.9969H18.9074C18.199 26.9968 17.6246 27.5709 17.624 28.2792V65.4753C17.624 66.8923 18.7728 68.0411 20.1898 68.0411H68.9314C70.3485 68.0411 71.4972 66.8923 71.4972 65.4753V28.2792C71.4972 27.571 70.9231 26.9968 70.2148 26.9969H67.649Z" fill="#0EC4B6" stroke="#255F6D" stroke-linecap="round" stroke-linejoin="round"/>
<path d="M69.3241 68.041H19.7993C18.5452 68.0407 17.4751 67.1339 17.269 65.8969L12.7507 38.7511C12.6204 37.9694 13.2233 37.2577 14.0158 37.2578H75.1216C75.9141 37.2577 76.5171 37.9694 76.3868 38.7511L71.8544 65.8969C71.6483 67.1339 70.5781 68.0407 69.3241 68.041Z" fill="white"/>
<path d="M69.3241 68.041H19.7993C18.5452 68.0407 17.4751 67.1339 17.269 65.8969L12.7507 38.7511C12.6204 37.9694 13.2233 37.2577 14.0158 37.2578H75.1216C75.9141 37.2577 76.5171 37.9694 76.3868 38.7511L71.8544 65.8969C71.6483 67.1339 70.5781 68.0407 69.3241 68.041Z" stroke="#255F6D" stroke-linecap="round" stroke-linejoin="round"/>
<path d="M63.5706 3.90918H32.7875L23.8066 12.8878V37.2581H64.8529V5.1915C64.8529 4.48329 64.2788 3.90918 63.5706 3.90918Z" fill="white"/>
<path d="M63.5706 3.90918H32.7875L23.8066 12.8879V37.2581H64.8529V5.1915C64.8529 4.48329 64.2788 3.90918 63.5706 3.90918Z" stroke="#255F6D" stroke-linecap="round" stroke-linejoin="round"/>
<path d="M23.8066 12.8878L32.7853 3.90918V11.6054C32.7847 12.313 32.2116 12.8867 31.504 12.8878H23.8066Z" fill="#0EC4B6" stroke="#255F6D" stroke-linecap="round" stroke-linejoin="round"/>
<path d="M35.8147 61.6284C35.8147 61.6284 37.097 57.7803 44.7934 57.7803C52.4897 57.7803 53.771 61.6284 53.771 61.6284" stroke="#255F6D" stroke-linecap="round" stroke-linejoin="round"/>
<path d="M30.6843 49.4426C30.6843 50.9232 32.2873 51.8487 33.5696 51.1084C34.1648 50.7648 34.5314 50.1297 34.5314 49.4426C34.5314 47.9618 32.9285 47.0363 31.6461 47.7767C31.051 48.1203 30.6843 48.7553 30.6843 49.4426Z" fill="white" stroke="#255F6D"/>
<path d="M55.0544 49.4426C55.0544 50.9232 56.6574 51.8487 57.9398 51.1084C58.5349 50.7648 58.9016 50.1297 58.9016 49.4426C58.9016 47.9618 57.2986 47.0363 56.0163 47.7767C55.4211 48.1203 55.0544 48.7553 55.0544 49.4426Z" fill="white" stroke="#255F6D"/>
<path d="M62.7508 61.9447C62.7057 64.413 60.0054 65.9068 57.8904 64.6336C56.9445 64.0643 56.3581 63.0484 56.3379 61.9447C56.3379 60.1728 59.5438 53.9277 59.5438 53.9277C59.5438 53.9277 62.7508 60.1772 62.7508 61.9447Z" fill="#0EC4B6" stroke="#255F6D" stroke-linecap="round" stroke-linejoin="round"/>
<path d="M49.7777 29.5629C49.1432 29.5655 48.5344 29.3131 48.0876 28.8626L45.1141 25.888L42.1395 28.8626C40.8585 30.1836 38.6277 29.6224 38.1242 27.8525C37.8832 27.0052 38.1277 26.0941 38.7604 25.4813L41.735 22.5077L38.7604 19.5342C37.459 18.2332 38.054 16.0112 39.8314 15.5346C40.6563 15.3134 41.5366 15.5491 42.1406 16.1529L45.1141 19.1276L48.0876 16.154C49.3891 14.853 51.6109 15.4487 52.0869 17.2264C52.3078 18.0513 52.0718 18.9315 51.4678 19.5353L48.4932 22.5088L51.4678 25.4823C52.7689 26.7837 52.1733 29.0055 50.3958 29.4815C50.1942 29.5355 49.9864 29.5628 49.7777 29.5629Z" fill="#0EC4B6" stroke="#255F6D" stroke-linecap="round" stroke-linejoin="round"/>
</svg>
