<svg width="78" height="78" viewBox="0 0 78 78" fill="none" xmlns="http://www.w3.org/2000/svg">
<g clip-path="url(#clip0_1417_12403)">
<mask id="mask0_1417_12403" style="mask-type:luminance" maskUnits="userSpaceOnUse" x="0" y="0" width="78" height="78">
<path d="M78 0H0V78H78V0Z" fill="white"/>
</mask>
<g mask="url(#mask0_1417_12403)">
<path d="M78 0H0V78H78V0Z" fill="#FAF9EE"/>
<path d="M51.0532 36.9805C50.6036 42.1802 48.8611 49.0494 45.376 51.942C45.4875 49.4188 45.9859 47.0559 45.9859 47.0559H45.9441C48.192 44.7348 50.1088 40.4133 51.0532 36.9805Z" fill="#11182A"/>
<path d="M32.5229 55.6116C33.5197 53.9039 33.1851 50.377 32.8889 48.3835C32.7564 47.5053 32.6345 46.9268 32.6345 46.9268H46.2647C46.2647 46.9268 45.8221 49.0143 45.7245 51.2448C45.6548 52.8723 45.7698 54.5766 46.3762 55.6116H32.5229Z" fill="#E7846B"/>
<path d="M69.1269 77.5435C69.0782 77.6933 69.0259 77.8467 68.9736 78H9.92556C8.72669 74.6543 9.12399 71.8105 9.12399 71.8105C9.12748 71.685 9.13444 71.5596 9.14142 71.4376C9.34007 68.2278 10.7934 65.9695 12.3895 64.4395C13.679 63.2058 15.0626 62.4391 15.9583 62.0278C16.5507 61.756 16.9306 61.6375 16.9306 61.6375C24.2214 60.9649 29.0657 58.1628 31.23 56.6294C32.0838 56.023 32.5195 55.6152 32.5195 55.6152H46.3797C46.3797 55.6152 46.8153 56.023 47.6692 56.6294C47.6692 56.6294 47.6727 56.6294 47.6762 56.6329C49.83 58.1594 54.6498 60.9405 61.8849 61.627C61.9128 61.634 61.9407 61.634 61.9685 61.6375C61.9685 61.6375 61.9929 61.6445 62.0417 61.6619C62.0452 61.6654 62.0487 61.6654 62.0522 61.6654C62.1986 61.7176 62.5227 61.8361 62.9618 62.0383C63.3556 62.2195 63.8435 62.4704 64.3733 62.7945C66.541 64.1328 69.4371 66.7606 69.7543 71.3609C69.7647 71.5073 69.7717 71.6571 69.7752 71.8105C69.7752 71.8105 70.1376 74.3999 69.1269 77.5435Z" fill="#E7846B"/>
<path d="M69.1269 77.5434C69.0782 77.6933 69.0259 77.8466 68.9736 78H9.92556C8.72669 74.6543 9.12399 71.8104 9.12399 71.8104C9.12748 71.685 9.13444 71.5595 9.14142 71.4375C9.34007 67.6875 10.8282 65.3107 12.3129 63.8644C13.4908 62.7108 14.6688 62.1497 15.2055 61.9511C15.2125 61.9511 15.2159 61.9511 15.2159 61.9511C15.2229 61.9511 15.2264 61.9476 15.2334 61.9476C15.7352 61.8361 25.4203 60.3444 31.23 56.6328C31.23 56.6328 33.3489 58.1941 36.3461 59.0759H36.3531C36.6528 59.163 36.9664 59.2432 37.2836 59.3163C40.4062 60.0273 44.2642 59.8496 47.6692 56.6328C47.6692 56.6328 47.6727 56.6328 47.6762 56.6363C47.9515 56.7583 56.0125 60.3584 61.8849 61.6304C61.9372 61.6479 61.9895 61.6583 62.0417 61.6653C62.0452 61.6688 62.0487 61.6688 62.0522 61.6688C62.5471 61.7768 63.0245 61.8639 63.4811 61.9302C63.5229 61.9476 63.8784 62.087 64.4255 62.3867C65.2236 62.8258 66.433 63.617 67.6702 64.882C69.0781 66.3841 69.6253 68.4891 69.7508 71.3643C69.7612 71.5107 69.7682 71.6606 69.7717 71.8139C69.7717 71.8139 70.1341 74.4033 69.1235 77.5469L69.1269 77.5434Z" fill="#FDE6D2"/>
<path d="M50.391 39.0718C49.5581 42.1038 48.2129 44.878 46.2264 46.9272C44.7835 48.4188 43.0061 49.5271 40.8384 50.0777C37.9005 50.8235 34.8754 49.2413 32.638 46.9272C32.3626 46.6484 32.1012 46.3556 31.8573 46.0524C30.9477 44.9546 30.2228 43.7488 29.7523 42.5778C26.309 34.001 24.9219 14.6482 38.2664 13.9721C44.4002 13.6619 49.3107 17.1714 50.7047 23.1344C51.7363 27.5466 51.8652 33.7117 50.391 39.0718Z" fill="#F09A85"/>
<path d="M39.284 38.385L39.1865 38.3711C38.7195 38.2456 38.2176 38.0539 38.0015 37.6427C37.8098 37.2733 37.89 36.8516 38.0712 36.3358L38.2629 35.7991C38.601 34.879 38.9181 34.0077 38.9181 33.0354C38.9181 32.8332 39.0784 32.6694 39.284 32.6694C39.4897 32.6694 39.6465 32.8332 39.6465 33.0354C39.6465 34.1367 39.305 35.0672 38.9495 36.05L38.7578 36.5762C38.6219 36.9666 38.5835 37.1896 38.6463 37.3046C38.7125 37.4301 38.9599 37.5521 39.3816 37.6706C39.5733 37.7263 39.6883 37.925 39.636 38.1201C39.5907 38.2804 39.4444 38.385 39.284 38.385Z" fill="#E7846B"/>
<path d="M53.4405 34.492C53.4963 34.7569 53.5276 35.0218 53.5451 35.2309C53.7646 37.4369 53.0223 40.2076 51.1403 41.5528C50.7535 41.8316 50.0809 41.8979 49.7986 41.3925C49.1329 40.1832 49.457 37.5206 49.7463 36.3496C49.9345 35.5863 50.2272 34.7883 50.7605 34.1888C51.1438 33.7567 51.6805 33.3245 52.28 33.2757C53.0084 33.213 53.3046 33.8577 53.4405 34.492Z" fill="#F09A85"/>
<path d="M51.0916 40.2946L50.8058 40.1552C50.6803 39.9949 50.7117 39.7649 50.8685 39.6429C51.7084 38.9877 52.029 37.4891 52.05 36.4088C52.0639 35.4399 51.8792 35.1402 51.7711 35.0496C51.6213 35.1437 51.3285 35.5096 51.224 35.7431C51.1403 35.9278 50.9278 36.0115 50.743 35.9278C50.5583 35.8477 50.4782 35.6316 50.5583 35.4469C50.6664 35.2099 51.3494 34.0598 52.0186 34.3526C52.8097 34.7011 52.7888 35.9975 52.7818 36.4227C52.7609 37.7261 52.3636 39.4059 51.3216 40.218L51.0985 40.2946H51.0916Z" fill="#E7846B"/>
<path d="M51.1438 38.4652C50.987 38.4652 50.8337 38.399 50.6873 38.27C50.3004 37.9215 50.5061 37.2872 50.6141 36.9457C50.6768 36.754 50.8929 36.6146 51.0811 36.6773C51.2728 36.7401 51.3913 36.9073 51.332 37.099L51.3076 37.1687C51.2344 37.3987 51.2031 37.5451 51.1891 37.6357L51.6875 37.5974L51.7398 38.1097C51.6143 38.2665 51.4366 38.4443 51.1822 38.4652H51.1369H51.1438Z" fill="#E7846B"/>
<path d="M25.4621 34.492C25.4064 34.7569 25.375 35.0218 25.3541 35.2309C25.1345 37.4369 25.8769 40.2076 27.7588 41.5528C28.1457 41.8316 28.8218 41.8979 29.1006 41.3925C29.7662 40.1832 29.4421 37.5206 29.1529 36.3496C28.9647 35.5863 28.6719 34.7883 28.1387 34.1888C27.7553 33.7567 27.2186 33.3245 26.6192 33.2757C25.8908 33.213 25.5946 33.8577 25.4586 34.492H25.4621Z" fill="#F09A85"/>
<path d="M27.8111 40.2947L27.588 40.218C26.546 39.406 26.1522 37.7227 26.1278 36.4227C26.1208 35.9975 26.0999 34.7011 26.8875 34.3526C27.5602 34.0529 28.2398 35.2064 28.3478 35.4469C28.428 35.6316 28.3478 35.8477 28.1631 35.9278C27.9784 36.015 27.7623 35.9278 27.6821 35.7431C27.5776 35.5061 27.2848 35.1437 27.135 35.0496C27.0269 35.1437 26.8422 35.4399 26.8562 36.4088C26.8736 37.4926 27.1942 38.9878 28.0341 39.643C28.191 39.7649 28.2223 39.9949 28.0969 40.1553L27.8111 40.2947Z" fill="#E7846B"/>
<path d="M27.7588 38.4652H27.7135C27.4626 38.4443 27.2848 38.263 27.1594 38.1097L27.2117 37.5974L27.71 37.6357C27.6996 37.5486 27.6682 37.4022 27.595 37.1722L27.5741 37.099C27.5149 36.9073 27.6229 36.7017 27.8146 36.6459C28.0063 36.5832 28.2084 36.6947 28.2676 36.8864L27.9191 36.991L28.2885 36.9492C28.4001 37.2907 28.6022 37.925 28.2154 38.2735C28.0725 38.399 27.9191 38.4652 27.7623 38.4652H27.7588Z" fill="#E7846B"/>
<path d="M50.764 34.1889C53.5869 34.1471 53.2314 28.2399 53.2314 26.4032C53.2314 23.1377 52.3357 19.8861 50.2795 17.3106C48.6311 15.2474 46.5156 13.6199 43.8739 13.1529C41.7236 12.7695 38.8066 12.6232 36.7434 13.4631C35.6979 13.8882 34.4502 14.9442 33.9937 16.0037L35.0706 19.3773C35.0706 19.3773 47.9898 18.161 49.4083 26.7866C49.4083 26.7866 50.6524 32.774 50.7605 34.1889H50.764Z" fill="#904B32"/>
<path d="M28.1422 34.189C24.4096 33.9171 25.6085 22.7822 27.1419 19.4575C28.2398 17.0667 29.8081 15.6169 32.1884 14.6933C33.0736 14.3483 35.8303 13.2505 36.7852 13.958C38.9181 15.5402 37.2209 17.9937 35.9174 19.2205C32.5229 22.4163 29.9509 20.1789 28.1422 34.189Z" fill="#904B32"/>
<path d="M12.9611 77.9999C13.5954 75.7381 14.5747 73.8248 16.1778 72.95C16.6588 72.6886 17.1746 72.5283 17.7148 72.4447C20.1683 72.0613 23.1201 73.2393 25.4029 73.4519C28.0934 73.7063 30.7142 73.5042 33.2653 72.8176C33.2688 72.8141 33.2722 72.8141 33.2722 72.8141C34.1296 72.5841 34.9765 72.2983 35.8164 71.9568C38.5034 70.8659 41.1799 69.7925 43.8635 68.984C44.6755 68.74 45.4875 68.5205 46.303 68.3323C46.7421 68.2277 47.1848 68.1371 47.6239 68.0535C48.3836 67.9106 49.1434 67.799 49.9066 67.7259C52.7295 67.4471 55.5699 67.6631 58.4521 68.6599C59.2711 68.9422 60.0901 69.2872 60.916 69.7054C61.0764 69.7821 61.2367 69.8657 61.397 69.9528C64.4604 71.5978 65.3386 74.6124 65.3944 77.8536C65.3944 77.9023 65.3979 77.9511 65.3944 77.9999H12.9611Z" fill="#FDE6D2"/>
<path d="M17.7601 70.9008C17.7496 71.4201 17.7357 71.9394 17.7148 72.4447C17.6276 74.7553 17.436 76.8569 17.3175 78H6.26969C7.70207 69.8657 10.2845 65.8195 12.3094 63.833C12.3094 63.833 12.3303 63.8086 12.3373 63.7982C13.8812 62.2926 15.0905 61.979 15.2055 61.9511C15.2125 61.9511 15.2159 61.9511 15.2159 61.9511C15.2229 61.9511 15.2264 61.9476 15.2334 61.9476C15.5017 61.9023 15.7422 61.9337 15.9583 62.0312C16.5891 62.324 17.0143 63.1883 17.2965 64.3837C17.3558 64.6381 17.4081 64.9065 17.4534 65.1887C17.5544 65.7986 17.6276 66.4678 17.6799 67.1753C17.6973 67.4297 17.7113 67.6945 17.7217 67.9594C17.767 68.9143 17.7775 69.9145 17.7601 70.9043V70.9008Z" fill="#FDE6D2"/>
<path d="M69.6149 67.36C71.2389 70.4478 71.7164 74.5079 72.152 78H56.1937C56.1275 77.3204 56.0892 76.7384 56.0857 76.3062C56.0822 75.7277 56.2286 74.9122 56.4865 73.9573C56.9047 72.4099 57.6157 70.5 58.4521 68.6599C59.7067 65.9102 61.2402 63.3138 62.4913 62.3101C62.6412 62.1916 62.798 62.1009 62.9618 62.0382C63.1291 61.972 63.3033 61.9372 63.4811 61.9267C63.7947 61.9093 64.1188 61.972 64.4499 62.094C66.5793 62.8677 68.9701 66.1332 69.6114 67.36H69.6149Z" fill="#FDE6D2"/>
<path d="M69.1269 77.5435C69.5695 77.6201 69.9738 77.7665 70.3258 78H64.7322C64.9518 77.9512 65.1714 77.899 65.3944 77.8537C66.7048 77.5679 68.0291 77.3518 69.1269 77.5435Z" fill="#FDE6D2"/>
<path d="M36.8514 70.8001L36.6145 70.713C35.1786 69.4793 33.9867 68.3048 32.9307 67.2627C31.8329 66.1824 30.8849 65.2484 30.0067 64.5932L29.8638 64.3422L29.9475 64.0669C30.3657 63.572 30.9616 63.1225 31.5401 62.6903C30.3692 61.7877 29.463 60.9652 27.7135 59.2366V58.7208L28.2258 58.7173C30.1357 60.6027 31.0278 61.3938 32.3661 62.401L32.509 62.6903L32.3661 62.983L32.0106 63.2514C31.5715 63.579 31.1185 63.9171 30.7665 64.2586C31.5889 64.9173 32.4602 65.7711 33.443 66.747C34.4885 67.7785 35.6735 68.9426 37.0884 70.1589L37.1268 70.6712L36.8514 70.7966V70.8001Z" fill="#2A2754"/>
<path d="M43.5916 71.699L43.3163 71.5736L43.3546 71.0578C44.7696 69.845 45.9545 68.6775 47 67.6459C47.9863 66.6735 48.8541 65.8197 49.6801 65.1575C49.3246 64.816 48.875 64.4779 48.4359 64.1503L48.0804 63.882L47.9375 63.5892L48.0839 63.3C49.4257 62.2928 50.3144 61.5016 52.2242 59.6162H52.74L52.7365 60.1355C50.987 61.8606 50.0774 62.6866 48.9099 63.5892C49.4884 64.0214 50.0878 64.471 50.5026 64.9658L50.5862 65.2412L50.4433 65.4921C49.5651 66.1473 48.6171 67.0813 47.5193 68.1617C46.4633 69.2002 45.2714 70.3782 43.8356 71.6119L43.5986 71.699H43.5916Z" fill="#2A2754"/>
<path d="M39.8695 22.7858C42.1627 22.8973 45.8047 23.2423 47.5298 24.9675C49.2166 26.6577 49.572 29.9024 50.4364 31.5578C51.8966 26.6612 51.3982 21.1617 48.07 17.4989C44.1667 13.1983 34.736 14.0347 30.8187 17.8056C29.0344 19.5237 28.4036 21.4545 27.839 23.8801C27.5149 25.2672 27.8215 30.216 28.3896 31.1675C28.3896 31.1675 29.6652 26.3685 31.1219 25.0302C31.1219 25.0302 32.3382 22.4199 39.8695 22.7823V22.7858Z" fill="#11182A"/>
<path d="M59.6579 60.8186C59.3373 60.728 59.0167 60.6339 58.6995 60.5328C58.4207 60.4457 58.1454 60.3516 57.8735 60.254C57.6017 60.1599 57.3334 60.0588 57.065 59.9473C56.9326 59.895 56.7967 59.8393 56.6642 59.7835C56.4028 59.6685 56.1415 59.55 55.887 59.4246C55.7581 59.3618 55.6326 59.2956 55.5072 59.2294C55.3643 59.1527 55.2214 59.076 55.082 58.9959C54.8032 58.8356 54.5313 58.6648 54.263 58.4836C52.9387 57.5809 51.806 56.4169 50.994 54.88C49.9972 52.9911 49.7812 51.942 49.8927 49.7569C50.039 46.8468 52.1963 45.7421 53.1896 43.0202C53.4091 42.4173 53.6148 41.8562 53.8099 41.3404C53.8692 41.1661 53.9319 40.9988 53.9912 40.8385C54.0225 40.7549 54.0539 40.6712 54.0852 40.5911C54.1445 40.4308 54.2003 40.2739 54.256 40.1241C54.2839 40.0474 54.3118 39.9707 54.3397 39.8975C54.3954 39.7477 54.4477 39.6013 54.5 39.4584C54.5244 39.3887 54.5523 39.3155 54.5767 39.2458C54.6464 39.0576 54.7126 38.8729 54.7788 38.6917C54.7892 38.6568 54.7997 38.622 54.8136 38.5871C54.852 38.4721 54.8938 38.3606 54.9321 38.2526C54.9739 38.1236 55.0193 38.0016 55.0611 37.8797C55.1517 37.6113 55.2388 37.3499 55.319 37.099C55.5211 36.4682 55.6884 35.8757 55.8243 35.2833C55.8522 35.1648 55.8801 35.0428 55.9045 34.9243C56.1902 33.6 56.3471 32.2024 56.4516 30.2159C56.4935 29.4283 56.4586 28.6163 56.354 27.8008C56.3297 27.6056 56.3018 27.4069 56.2669 27.2083C56.239 27.0236 56.2042 26.8354 56.1693 26.6507C56.124 26.4311 56.0752 26.2116 56.023 25.992C55.908 25.5145 55.772 25.0371 55.6152 24.5631C55.5838 24.469 55.5525 24.3714 55.5176 24.2773C55.4897 24.1937 55.4619 24.1135 55.434 24.0334C55.3469 23.7929 55.2562 23.5559 55.1621 23.3189C54.8311 22.4964 54.4442 21.6879 54.0121 20.9072C53.9389 20.7748 53.8622 20.6424 53.789 20.5134C53.6566 20.2869 53.5207 20.0638 53.3813 19.8443C52.7295 18.8092 51.9977 17.8369 51.2066 16.9586C51.1264 16.8715 51.0462 16.7809 50.9661 16.6903C50.8023 16.516 50.635 16.3383 50.4607 16.157C50.2865 15.9758 50.1088 15.7946 49.9275 15.6134C49.8195 15.5053 49.708 15.3973 49.5964 15.2893C49.4292 15.1255 49.2584 14.9651 49.0841 14.8013C48.3906 14.1531 47.6483 13.5119 46.8711 12.9194H46.8676C46.4773 12.6197 46.0835 12.3339 45.6827 12.0655C45.4805 11.9296 45.2784 11.7972 45.0763 11.6717C44.6685 11.4173 44.2573 11.1838 43.8425 10.9677C43.2605 10.668 42.675 10.4101 42.093 10.208C41.8595 10.1278 41.626 10.0546 41.396 9.99539C41.2775 9.96403 41.1625 9.93615 41.0475 9.90827C37.2592 9.0579 32.4985 12.1945 29.5536 14.4215C29.0239 14.8223 28.5255 15.2196 28.062 15.6238C27.9052 15.7563 27.7518 15.8922 27.6055 16.0246C27.6055 16.0246 27.6043 16.0258 27.602 16.0281C27.3057 16.2965 27.0235 16.5683 26.7551 16.8366C26.6157 16.9795 26.4798 17.1189 26.3473 17.2618C26.1069 17.5162 25.8803 17.7741 25.6608 18.032C25.6434 18.0599 25.6224 18.0843 25.5981 18.1087C25.382 18.3701 25.1764 18.635 24.9847 18.8998C24.7791 19.1856 24.5874 19.4714 24.4027 19.7641C24.3364 19.8722 24.2702 19.9837 24.204 20.0917C24.0751 20.3113 23.9566 20.5274 23.8416 20.7504C23.7823 20.8619 23.7266 20.9769 23.6708 21.0885C23.6673 21.0989 23.6603 21.1129 23.6534 21.1268C23.5976 21.2383 23.5488 21.3498 23.4965 21.4614C23.3432 21.7994 23.2073 22.1445 23.0783 22.4964C23.0226 22.6533 22.9703 22.8101 22.918 22.9704C22.8135 23.2945 22.7194 23.6256 22.6357 23.9602C22.5939 24.131 22.5521 24.2982 22.5172 24.4725C22.3221 25.3542 22.1931 26.2847 22.1164 27.271C22.092 27.5951 22.0711 27.9297 22.0572 28.2678C22.0328 28.9195 22.0258 29.5956 22.0398 30.2996C22.0467 30.6585 22.0572 31.028 22.0746 31.3974C22.092 31.7703 22.113 32.1502 22.1373 32.5405C22.1652 32.9622 22.1966 33.356 22.2245 33.7254C22.2349 33.8509 22.2454 33.9729 22.2558 34.0914C22.2733 34.2796 22.2942 34.4643 22.3116 34.6455C22.3186 34.7361 22.329 34.8232 22.3395 34.9104C22.3499 35.0079 22.3639 35.1055 22.3743 35.2031C22.4231 35.59 22.4754 35.9489 22.5347 36.2905C22.5765 36.5205 22.6183 36.74 22.6601 36.9526C22.681 37.0607 22.7054 37.1687 22.7298 37.2733C22.7786 37.4824 22.8309 37.6845 22.8832 37.8832C22.9076 37.9842 22.9354 38.0853 22.9668 38.1864C23.047 38.4582 23.1306 38.7266 23.2247 38.9984C23.3293 39.3016 23.4443 39.6083 23.5662 39.9219C23.6081 40.0265 23.6499 40.1345 23.6952 40.2426C23.8137 40.5283 23.9391 40.8246 24.0751 41.1348C24.1413 41.2881 24.211 41.4484 24.2842 41.6122C24.441 41.9677 24.6118 42.3476 24.793 42.7518C24.915 43.0202 25.0439 43.299 25.1729 43.5952C25.2391 43.7416 25.3088 43.895 25.3785 44.0518C27.3894 48.5371 30.5748 52.3603 25.483 57.1348C24.5525 58.0061 24.0367 58.5393 23.4199 59.0377C23.3536 59.097 23.2839 59.1527 23.2142 59.205C23.1411 59.2608 23.0679 59.3165 22.9912 59.3723C22.9145 59.428 22.8379 59.4838 22.7577 59.5396C22.4266 59.7661 22.0467 60.0101 21.5623 60.2923C21.3811 60.3969 21.1824 60.4805 20.9664 60.5433C20.8653 60.5746 20.7642 60.599 20.6562 60.6234C20.4401 60.6722 20.2136 60.7071 19.9766 60.7384H19.9731C19.8825 60.7489 19.7919 60.7593 19.6978 60.7698C19.5131 60.7907 19.3214 60.8081 19.1262 60.8221C19.0286 60.8325 18.9311 60.8395 18.83 60.8465C18.5616 60.8709 18.2863 60.8953 18.004 60.9231C17.4917 60.9789 16.9585 61.0591 16.4183 61.188C16.258 61.2264 16.0942 61.2717 15.9339 61.3204C15.8781 61.3379 15.8223 61.3553 15.7701 61.3727C15.662 61.4076 15.554 61.4459 15.446 61.4877C15.1741 61.5923 14.9023 61.7108 14.6339 61.8537C14.5259 61.9129 14.4179 61.9722 14.3133 62.0349C14.2053 62.0976 14.0972 62.1673 13.9927 62.2405C13.7801 62.3834 13.571 62.5437 13.3654 62.7215C13.2608 62.8121 13.1597 62.9062 13.0552 63.0038C12.8112 63.2407 12.5708 63.5021 12.3373 63.7984C12.3303 63.8088 12.3198 63.8193 12.3094 63.8297C12.3094 63.8297 12.3094 63.8437 12.3129 63.8611C12.3198 63.9412 12.3373 64.1469 12.3895 64.4396C12.4871 65.0077 12.7032 65.9103 13.1667 66.8792C13.2399 67.0325 13.32 67.1859 13.4037 67.3427C13.7383 67.9456 14.1704 68.559 14.7385 69.1166C14.8221 69.2003 14.9093 69.2839 14.9999 69.3606C15.5122 69.8206 16.1221 70.2318 16.847 70.5594C16.962 70.6117 17.084 70.6605 17.2059 70.7093C17.3837 70.779 17.5684 70.8452 17.7601 70.901C18.823 71.2321 20.0881 71.3924 21.6006 71.3018C21.7052 71.2948 21.8132 71.2878 21.9213 71.2774C22.2454 71.2495 22.5834 71.2112 22.9285 71.1624C23.392 71.0927 23.8764 71.0055 24.3783 70.894C25.6434 70.8104 26.8771 70.9254 28.0899 71.1693C28.2467 71.2042 28.4036 71.2356 28.5604 71.2704C29.0344 71.3784 29.5014 71.5039 29.9649 71.6433C30.1217 71.6886 30.2751 71.7374 30.4319 71.7862C31.2056 72.0302 31.9758 72.3125 32.739 72.6087C32.8261 72.6435 32.9168 72.6784 33.0039 72.7132C33.0945 72.7446 33.1816 72.7795 33.2722 72.8143C33.5545 72.9258 33.8333 73.0408 34.1156 73.1524C36.0952 73.9504 38.0608 74.766 40.0612 75.2574C40.692 75.4142 41.3228 75.5571 41.9571 75.6825C42.1941 75.7313 42.4311 75.7766 42.6681 75.8185C43.142 75.9056 43.616 75.9823 44.09 76.0485C44.327 76.0833 44.564 76.1112 44.8009 76.1391C45.2714 76.1914 45.7419 76.2332 46.2124 76.2646H46.2159C47.1325 76.3203 48.0456 76.3238 48.9517 76.2646C49.4152 76.2367 49.8752 76.1914 50.3353 76.1251C50.6176 76.0833 50.8999 76.038 51.1822 75.9823C51.217 75.9788 51.2484 75.9718 51.2797 75.9648C51.6596 75.8916 52.0395 75.8045 52.4124 75.7C52.6111 75.6477 52.8062 75.5884 53.0014 75.5292C53.1966 75.4665 53.3917 75.4003 53.5869 75.334C53.6845 75.2992 53.782 75.2643 53.8796 75.226C54.0713 75.1528 54.2665 75.0761 54.4582 74.9925C55.1412 74.7032 55.8173 74.3582 56.4865 73.9574C56.6677 73.8459 56.8489 73.7344 57.0267 73.6159C58.243 72.8178 59.6544 71.3784 60.916 69.7056C62.5889 67.4926 64.0073 64.8718 64.3733 62.7946C64.3977 62.6552 64.4186 62.5158 64.429 62.3834C64.443 62.2858 64.4534 62.1882 64.4534 62.0941C64.4604 62.0384 64.4639 61.9826 64.4639 61.9269C62.9095 61.5993 61.2645 61.2682 59.6579 60.8186ZM48.3383 47.7146C48.2965 47.8087 48.2512 47.9028 48.2024 47.9934C48.1571 48.084 48.1118 48.1747 48.063 48.2653C48.0177 48.3559 47.9654 48.4465 47.9166 48.5336C47.819 48.7114 47.7145 48.8856 47.6065 49.0529C47.4287 49.3422 47.237 49.6175 47.0314 49.8789C46.9582 49.9764 46.8815 50.0705 46.8014 50.1646C46.5121 50.5166 46.1985 50.8373 45.8604 51.1265C45.8395 51.1509 45.8151 51.1718 45.7907 51.1893C45.7698 51.2067 45.7489 51.2276 45.7245 51.245C45.6199 51.3356 45.5119 51.4228 45.4004 51.4994C45.3586 51.5343 45.3133 51.5657 45.2714 51.597C45.1948 51.6528 45.1146 51.7085 45.0344 51.7573C44.9543 51.8096 44.8741 51.8619 44.794 51.9107C44.672 51.9839 44.5465 52.0536 44.4176 52.1198C44.2921 52.186 44.1597 52.2487 44.0273 52.308C43.9401 52.3463 43.8495 52.3847 43.7589 52.4195C41.0336 53.4999 37.5415 52.9388 35.2204 51.2729C35.1681 51.2346 35.1124 51.1927 35.0601 51.1544C35.0078 51.1161 34.9555 51.0743 34.9033 51.0324C34.7011 50.8686 34.5129 50.6944 34.3352 50.5132C34.2481 50.4191 34.1609 50.325 34.0773 50.2309C33.9937 50.1333 33.9135 50.0322 33.8333 49.9311C33.7741 49.8545 33.7148 49.7743 33.6591 49.6942C33.5441 49.5304 33.436 49.3596 33.328 49.1818C33.2722 49.0912 33.22 49.0006 33.1677 48.9065C33.0736 48.7427 32.9795 48.5685 32.8889 48.3872C32.8889 48.3838 32.8889 48.3768 32.8854 48.3733C32.8784 48.3629 32.8749 48.3559 32.8715 48.3454C32.8645 48.335 32.8575 48.3245 32.854 48.3141C32.624 47.8575 32.3975 47.3522 32.1605 46.7876C32.1117 46.6691 32.0629 46.5506 32.0106 46.4286C31.9584 46.3066 31.9096 46.1812 31.8573 46.0557C31.7179 45.7142 31.5715 45.3517 31.4182 44.9684C30.871 43.6057 30.1217 41.6993 29.5432 39.2354C29.5258 39.1622 29.5083 39.0855 29.4909 39.0088V38.9844C29.477 38.9217 29.463 38.8625 29.4491 38.8032C29.3933 38.5488 29.3341 38.2944 29.2853 38.0295C29.233 37.7472 29.1807 37.4649 29.1319 37.1757C29.0448 36.6425 28.9681 36.0918 28.9019 35.5168C28.8253 34.8372 28.766 34.1297 28.7277 33.3909C28.7207 33.2201 28.7102 33.0493 28.6998 32.8855C28.6928 32.7182 28.6858 32.5544 28.6754 32.3906C28.651 31.9027 28.6301 31.4357 28.6161 30.9792V30.9687C28.6092 30.7875 28.6022 30.6063 28.6022 30.4285V30.4216C28.5534 28.3654 28.6684 26.6158 29.2818 24.8698C29.3236 24.7408 29.3724 24.6154 29.4247 24.4864C29.5745 24.1031 29.7488 23.7162 29.9544 23.3294C30.3308 22.6184 30.9268 21.89 31.6482 21.1826C31.8887 20.9491 32.1431 20.7156 32.4079 20.4821C32.4951 20.4054 32.5857 20.3287 32.6763 20.252C32.7669 20.1789 32.8575 20.1022 32.9481 20.0255C33.2513 19.7781 33.5615 19.5341 33.8752 19.3006C33.9832 19.2205 34.0912 19.1438 34.2028 19.0636C34.3108 18.98 34.4188 18.9033 34.5304 18.8301C34.6279 18.7534 34.7255 18.6872 34.8266 18.6175C35.0984 18.4328 35.3703 18.2516 35.6351 18.0773C35.6386 18.0808 35.6386 18.0773 35.6386 18.0773C35.907 17.9031 36.1684 17.7358 36.4263 17.579C36.597 17.4744 36.7678 17.3733 36.9316 17.2758C36.9316 17.2758 36.9328 17.2758 36.9351 17.2758C37.1546 17.1433 37.3672 17.0214 37.5729 16.9063C37.6913 16.8366 37.8098 16.7739 37.9214 16.7112C38.6219 16.3278 39.3468 16.2093 40.0856 16.2895C40.232 16.3034 40.3818 16.3243 40.5317 16.3557C40.6258 16.3766 40.7234 16.3975 40.8175 16.4219C40.8837 16.4428 40.9534 16.4603 41.0196 16.4812C41.166 16.5265 41.3158 16.5787 41.4657 16.638H41.4692C41.6678 16.7182 41.8665 16.8053 42.0617 16.9063C42.1592 16.9551 42.2603 17.0074 42.3579 17.0597C42.6506 17.22 42.9399 17.4012 43.2257 17.5999C43.2989 17.6522 43.3721 17.7009 43.4418 17.7497C43.6509 17.8996 43.86 18.0599 44.0656 18.2307C44.1353 18.2864 44.2015 18.3422 44.2712 18.398C44.4733 18.5687 44.672 18.743 44.8672 18.9207C45.3864 19.3982 45.8744 19.8966 46.3135 20.3775C46.8432 20.9595 47.3067 21.5171 47.6796 21.9876C48.1676 22.601 48.5579 23.2283 48.875 23.8521C49.0109 24.1205 49.1329 24.3854 49.241 24.6502C49.2967 24.7827 49.349 24.9116 49.3978 25.0441C49.4954 25.3054 49.5825 25.5598 49.6592 25.8143C49.7742 26.1906 49.8648 26.5566 49.9415 26.9086C49.9763 27.0619 50.0042 27.2153 50.0321 27.3651C50.0739 27.5882 50.1088 27.8008 50.1401 28.0064C50.2203 28.5535 50.2656 29.0275 50.3074 29.3969C50.3318 29.6095 50.405 30.3379 50.4712 31.4218C50.4921 31.7633 50.5095 32.1432 50.527 32.5544V32.5684C50.5514 33.1364 50.5653 33.7638 50.5688 34.4329C50.5723 34.7396 50.5723 35.0567 50.5688 35.3774V35.4192C50.5688 35.4506 50.5688 35.4854 50.5653 35.5203C50.5653 35.6004 50.5653 35.6806 50.5618 35.7607C50.5583 35.9664 50.5548 36.1755 50.5479 36.3846C50.5444 36.5414 50.5374 36.6982 50.5305 36.8585C50.527 36.9735 50.52 37.0886 50.5165 37.2036C50.5165 37.2384 50.513 37.2733 50.513 37.3081V37.3151C50.513 37.3151 50.513 37.3151 50.5095 37.3221C50.5095 37.3464 50.5095 37.3743 50.5061 37.4022C50.4991 37.5695 50.4921 37.7368 50.4817 37.9041C50.4573 38.2874 50.4294 38.6708 50.3945 39.0611V39.0716C50.3945 39.0716 50.3945 39.0751 50.391 39.0785V39.0855C50.3876 39.1029 50.3876 39.1204 50.3876 39.1343C50.3736 39.2598 50.3632 39.3852 50.3527 39.5107C50.3388 39.6536 50.3213 39.8 50.3074 39.9429C50.29 40.0892 50.276 40.2356 50.2586 40.3785C50.2238 40.6712 50.1854 40.9605 50.1436 41.2532C50.1227 41.3927 50.1018 41.5321 50.0809 41.6715C50.0147 42.0827 49.9415 42.4939 49.8613 42.9017C49.8613 42.9122 49.8578 42.9261 49.8543 42.9365C49.6905 43.7555 49.4919 44.5606 49.2514 45.3378C49.2201 45.4423 49.1887 45.5434 49.1538 45.648C49.0562 45.9581 48.9482 46.2613 48.8332 46.5576C48.7984 46.6586 48.76 46.7562 48.7182 46.8538C48.638 47.0525 48.5579 47.2476 48.4708 47.4358C48.4603 47.4602 48.4498 47.4846 48.4394 47.5055C48.408 47.5787 48.3732 47.6484 48.3383 47.7181V47.7146Z" fill="#283B61"/>
<path d="M50.5095 37.3185C50.5095 37.3185 50.513 37.315 50.513 37.3115V37.3046C50.513 37.2697 50.5165 37.2349 50.5165 37.2C50.513 37.2383 50.513 37.2767 50.5095 37.3185ZM50.4782 37.8901C50.4538 38.2804 50.4259 38.6777 50.391 39.075C50.3945 39.0715 50.3945 39.068 50.3945 39.068V39.0576C50.4294 38.6672 50.4573 38.2839 50.4817 37.904C50.4817 37.904 50.4782 37.8935 50.4782 37.8901ZM50.5095 37.3185C50.5095 37.3185 50.513 37.315 50.513 37.3115V37.3046C50.513 37.2697 50.5165 37.2349 50.5165 37.2C50.513 37.2383 50.513 37.2767 50.5095 37.3185ZM50.391 39.075L50.3945 39.068V39.0576C50.4294 38.6672 50.4573 38.2839 50.4817 37.904C50.4817 37.904 50.4782 37.8935 50.4782 37.8901C50.4538 38.2804 50.4259 38.6777 50.391 39.075ZM59.6579 60.8185C59.3373 60.7279 59.0167 60.6338 58.6995 60.5327C58.4207 60.4456 58.1454 60.3515 57.8735 60.2539C57.6017 60.1598 57.3334 60.0588 57.065 59.9472C56.9326 59.895 56.7967 59.8392 56.6642 59.7834C56.4028 59.6684 56.1415 59.5499 55.887 59.4245C55.7581 59.3617 55.6326 59.2955 55.5072 59.2293C55.3643 59.1526 55.2214 59.076 55.082 58.9958C54.8032 58.8355 54.5313 58.6647 54.263 58.4835C52.9387 57.5809 51.806 56.4168 50.994 54.8799C49.9972 52.991 49.7812 51.942 49.8927 49.7568C50.039 46.8468 52.1963 45.742 53.1896 43.0201C53.4091 42.4172 53.6148 41.8561 53.8099 41.3403C53.8692 41.1661 53.9319 40.9988 53.9912 40.8385C54.0225 40.7548 54.0539 40.6712 54.0852 40.591C54.141 40.4307 54.2003 40.2739 54.256 40.124C54.2839 40.0473 54.3118 39.9707 54.3397 39.8975C54.3954 39.7476 54.4477 39.6012 54.5 39.4584C54.5244 39.3887 54.5523 39.3155 54.5767 39.2458C54.6464 39.0576 54.7126 38.8729 54.7788 38.6916C54.7892 38.6568 54.7997 38.6219 54.8136 38.5871C54.852 38.4721 54.8938 38.3605 54.9321 38.2525C54.9739 38.1236 55.0193 38.0016 55.0611 37.8796C55.1517 37.6113 55.2388 37.3499 55.319 37.0989C55.5176 36.4681 55.6849 35.8757 55.8243 35.2832C55.8522 35.1647 55.8801 35.0427 55.9045 34.9242C56.1902 33.5999 56.3471 32.2024 56.4516 30.2159C56.4935 29.4282 56.4586 28.6162 56.354 27.8007C56.3297 27.6055 56.3018 27.4069 56.2669 27.2082C56.239 27.0235 56.2042 26.8353 56.1693 26.6506C56.124 26.4311 56.0752 26.2115 56.023 25.9919C55.908 25.5145 55.772 25.037 55.6152 24.563C55.5838 24.4689 55.5525 24.3714 55.5176 24.2773C55.4897 24.1936 55.4619 24.1135 55.434 24.0333C55.3469 23.7928 55.2562 23.5558 55.1621 23.3189C54.8311 22.4964 54.4442 21.6878 54.0121 20.9072C53.9389 20.7747 53.8622 20.6423 53.789 20.5134C53.6566 20.2868 53.5207 20.0638 53.3813 19.8442C52.7295 18.8091 51.9977 17.8368 51.2066 16.9586C51.1264 16.8714 51.0462 16.7808 50.9661 16.6902C50.8023 16.5159 50.635 16.3382 50.4607 16.157C50.2865 15.9758 50.1088 15.7945 49.9275 15.6133C49.8195 15.5053 49.708 15.3972 49.5964 15.2892C49.4292 15.1254 49.2584 14.9651 49.0841 14.8013C48.3906 14.1565 47.6483 13.5188 46.8711 12.9193H46.8676C46.4808 12.6231 46.0835 12.3373 45.6827 12.0655C45.4805 11.9296 45.2784 11.7971 45.0763 11.6717C44.6685 11.4172 44.2573 11.1837 43.8425 10.9677C43.2605 10.668 42.675 10.4101 42.093 10.2079C41.8595 10.1278 41.626 10.0581 41.396 9.99533C41.2775 9.96396 41.1625 9.93608 41.0475 9.91168C37.2557 9.06132 32.4985 12.1979 29.5536 14.4249C29.0239 14.8257 28.5255 15.2265 28.062 15.6238C27.9052 15.7562 27.7518 15.8921 27.6055 16.0245C27.6055 16.0245 27.6043 16.0257 27.602 16.028C27.3057 16.2964 27.0235 16.5682 26.7551 16.8366C26.6157 16.9795 26.4798 17.1189 26.3473 17.2618C26.1069 17.5162 25.8803 17.7741 25.6608 18.032C25.6434 18.0598 25.6224 18.0842 25.5981 18.1086C25.3855 18.37 25.1798 18.6349 24.9847 18.8998C24.7791 19.1855 24.5874 19.4713 24.4027 19.7641C24.3364 19.8721 24.2702 19.9836 24.204 20.0917C24.0751 20.3112 23.9566 20.5273 23.8416 20.7503C23.7823 20.8619 23.7266 20.9769 23.6708 21.0884C23.6673 21.0989 23.6603 21.1128 23.6534 21.1267C23.5976 21.2383 23.5488 21.3498 23.4965 21.4613C23.3432 21.7994 23.2073 22.1444 23.0783 22.4964C23.0226 22.6532 22.9703 22.81 22.918 22.9704C22.8135 23.2945 22.7194 23.6255 22.6357 23.9601C22.5939 24.1309 22.5521 24.2982 22.5172 24.4724C22.3221 25.3542 22.1931 26.2847 22.1164 27.271C22.092 27.5951 22.0711 27.9296 22.0572 28.2677C22.0328 28.9194 22.0258 29.5955 22.0398 30.2995C22.0467 30.6585 22.0572 31.0279 22.0746 31.3973C22.0886 31.7737 22.1095 32.1501 22.1339 32.5404C22.1617 32.9621 22.1896 33.3559 22.2245 33.7254C22.2349 33.8508 22.2454 33.9728 22.2558 34.0913C22.2733 34.2795 22.2942 34.4642 22.3116 34.6454C22.3186 34.736 22.329 34.8232 22.3395 34.9103C22.3499 35.0079 22.3639 35.1055 22.3743 35.203C22.4196 35.5899 22.4754 35.9489 22.5347 36.2904C22.5765 36.5204 22.6183 36.74 22.6601 36.9526C22.681 37.0606 22.7054 37.1686 22.7298 37.2732C22.7786 37.4823 22.8309 37.6844 22.8832 37.8831C22.9076 37.9842 22.9354 38.0852 22.9668 38.1863C23.047 38.4581 23.1306 38.7265 23.2247 38.9983C23.3258 39.3015 23.4408 39.6082 23.5662 39.9219C23.6081 40.0264 23.6499 40.1345 23.6952 40.2425C23.8102 40.5283 23.9391 40.8245 24.0751 41.1347C24.1413 41.288 24.211 41.4483 24.2842 41.6121C24.441 41.9676 24.6118 42.3475 24.793 42.7518C24.915 43.0201 25.0404 43.2989 25.1729 43.5952C25.2391 43.7415 25.3088 43.8949 25.3785 44.0517C27.3894 48.537 30.5748 52.3602 25.483 57.1348C24.5525 58.006 24.0367 58.5393 23.4199 59.0376C23.3536 59.0969 23.2839 59.1526 23.2142 59.2049C23.1411 59.2607 23.0679 59.3164 22.9912 59.3722C22.9145 59.428 22.8379 59.4837 22.7577 59.5395C22.4266 59.766 22.0467 60.01 21.5623 60.2923C21.3811 60.3968 21.1824 60.4805 20.9664 60.5432C20.8653 60.5746 20.7642 60.599 20.6562 60.6234C20.4436 60.6721 20.2136 60.7105 19.9766 60.7384H19.9731C19.8825 60.7488 19.7919 60.7593 19.6978 60.7697C19.5131 60.7906 19.3214 60.8081 19.1262 60.822C19.0286 60.8325 18.9311 60.8394 18.83 60.8464C18.5616 60.8708 18.2863 60.8952 18.004 60.9231C17.4917 60.9788 16.9585 61.059 16.4183 61.1879C16.258 61.2263 16.0942 61.2716 15.9339 61.3204C15.8781 61.3378 15.8223 61.3552 15.7701 61.3727C15.662 61.4075 15.554 61.4458 15.446 61.4877C15.1741 61.5922 14.9023 61.7107 14.6339 61.8536C14.5259 61.9128 14.4179 61.9721 14.3133 62.0348C14.2053 62.101 14.0972 62.1673 13.9927 62.2404C13.7801 62.3833 13.571 62.5436 13.3654 62.7214C13.2608 62.812 13.1597 62.9061 13.0552 63.0037C12.8112 63.2407 12.5708 63.502 12.3373 63.7983C12.3303 63.8087 12.3198 63.8192 12.3094 63.8296C12.3094 63.8296 12.3094 63.8436 12.3129 63.861C12.3198 63.9412 12.3373 64.1468 12.3895 64.4395C12.4871 65.0076 12.7032 65.9102 13.1667 66.8791C13.2399 67.0324 13.32 67.1858 13.4037 67.3426C13.7383 67.9455 14.1704 68.5589 14.7385 69.1165C14.8221 69.2002 14.9093 69.2838 14.9999 69.3605C15.5122 69.8205 16.1221 70.2318 16.847 70.5594C16.962 70.6116 17.084 70.6604 17.2059 70.7092C17.3837 70.7789 17.5684 70.8451 17.7601 70.9009C18.823 71.232 20.0881 71.3923 21.6006 71.3017C21.7052 71.2947 21.8132 71.2878 21.9213 71.2773C22.2454 71.2529 22.5834 71.2146 22.9285 71.1623C23.392 71.0961 23.8764 71.0089 24.3783 70.8974C25.6434 70.8138 26.8771 70.9288 28.0899 71.1693C28.2467 71.2041 28.4036 71.2355 28.5604 71.2703C29.0344 71.3784 29.5014 71.5038 29.9649 71.6432C30.1217 71.6885 30.2751 71.7373 30.4319 71.7861C31.2056 72.0336 31.9758 72.3159 32.739 72.6086C32.8261 72.6435 32.9168 72.6783 33.0039 72.7132C33.091 72.7445 33.1781 72.7794 33.2653 72.8177C33.5476 72.9258 33.8299 73.0408 34.1156 73.1523C36.0952 73.9504 38.0608 74.7659 40.0612 75.2573C40.692 75.4141 41.3228 75.557 41.9571 75.6825C42.1941 75.7313 42.4311 75.7766 42.6681 75.8184C43.142 75.9055 43.616 75.9822 44.09 76.0484C44.327 76.0833 44.564 76.1111 44.8009 76.139C45.2749 76.1948 45.7454 76.2366 46.2124 76.2645H46.2159C47.1325 76.3202 48.0456 76.3237 48.9517 76.2645C49.4152 76.2366 49.8752 76.1913 50.3353 76.1251C50.6176 76.0833 50.8999 76.0379 51.1822 75.9822C51.217 75.9787 51.2484 75.9717 51.2797 75.9648C51.6596 75.8916 52.0395 75.8045 52.4124 75.6999C52.6111 75.6476 52.8062 75.5884 53.0014 75.5291C53.1966 75.4664 53.3917 75.4002 53.5869 75.334C53.6845 75.2991 53.782 75.2643 53.8796 75.2259C54.0713 75.1527 54.2665 75.0761 54.4582 74.9924C55.1412 74.7031 55.8173 74.3581 56.4865 73.9573C56.6677 73.8458 56.8489 73.7343 57.0267 73.6158C58.243 72.8177 59.6544 71.3784 60.916 69.7055C62.5889 67.4925 64.0073 64.8717 64.3733 62.7946C64.3977 62.6552 64.4186 62.5158 64.429 62.3833C64.443 62.2857 64.4534 62.1882 64.4534 62.0941C64.4604 62.0383 64.4639 61.9825 64.4639 61.9268C62.9095 61.5992 61.2645 61.2681 59.6579 60.8185ZM37.5694 16.9098C37.6913 16.8401 37.8064 16.7738 37.9214 16.7111C38.6219 16.3278 39.3468 16.2093 40.0856 16.2859C40.232 16.2999 40.3818 16.3208 40.5317 16.3521C40.6258 16.3731 40.7234 16.394 40.8175 16.4184C40.8837 16.4393 40.9534 16.4567 41.0196 16.4776C41.166 16.5229 41.3158 16.5752 41.4657 16.6344H41.4692C41.6678 16.7146 41.8665 16.8017 42.0617 16.9028C42.1592 16.9516 42.2603 17.0039 42.3579 17.0561C42.6506 17.2199 42.9399 17.4012 43.2257 17.5963C43.2989 17.6486 43.3721 17.6974 43.4418 17.7462C43.6509 17.896 43.86 18.0564 44.0656 18.2271C44.1353 18.2829 44.2015 18.3387 44.2712 18.3944C44.4733 18.5652 44.672 18.7394 44.8672 18.9172C45.3864 19.3946 45.8744 19.893 46.3135 20.374C46.8432 20.956 47.3067 21.5136 47.6796 21.9841C48.1676 22.5974 48.5579 23.2248 48.875 23.8486C49.0109 24.1169 49.1329 24.3818 49.241 24.6467C49.2967 24.7791 49.349 24.9081 49.3978 25.0405C49.4954 25.3019 49.5825 25.5563 49.6592 25.8107C49.7742 26.1871 49.8648 26.553 49.9415 26.905C49.9763 27.0584 50.0042 27.2117 50.0321 27.3616C50.0739 27.5846 50.1088 27.7972 50.1401 28.0028C50.2203 28.55 50.2656 29.024 50.3074 29.3934C50.3318 29.606 50.405 30.3344 50.4712 31.4182C50.4921 31.7598 50.5095 32.1396 50.527 32.5509V32.5648C50.5514 33.1329 50.5653 33.7602 50.5688 34.4294C50.5723 34.736 50.5723 35.0532 50.5688 35.3738C50.5688 35.3878 50.5688 35.4052 50.5653 35.4191V35.5167C50.5653 35.5969 50.5653 35.677 50.5618 35.7572C50.5583 35.9628 50.5548 36.1719 50.5479 36.381C50.5444 36.5378 50.5374 36.6947 50.5305 36.855C50.527 36.97 50.52 37.085 50.5165 37.2C50.513 37.2383 50.513 37.2767 50.5095 37.3185C50.5095 37.3429 50.5095 37.3708 50.5061 37.3987C50.4991 37.5625 50.4886 37.7263 50.4782 37.8901C50.4538 38.2804 50.4259 38.6777 50.391 39.075V39.082C50.3876 39.0994 50.3876 39.1168 50.3876 39.1308C50.3736 39.2562 50.3632 39.3817 50.3527 39.5071C50.3388 39.65 50.3213 39.7964 50.3074 39.9393C50.29 40.0857 50.276 40.232 50.2586 40.3749C50.2238 40.6677 50.1854 40.9569 50.1436 41.2497C50.1227 41.3891 50.1018 41.5285 50.0809 41.6679C50.0147 42.0791 49.9415 42.4904 49.8613 42.8981C49.8613 42.9086 49.8578 42.9225 49.8543 42.933C49.6905 43.752 49.4919 44.5571 49.2514 45.3342C49.2235 45.4388 49.1887 45.5399 49.1538 45.6444C49.0562 45.9546 48.9482 46.2578 48.8332 46.554C48.7984 46.6551 48.76 46.7527 48.7182 46.8502C48.638 47.0489 48.5579 47.2441 48.4708 47.4323C48.4603 47.4567 48.4498 47.4811 48.4394 47.502C48.408 47.5751 48.3732 47.6449 48.3383 47.7146C48.2965 47.8087 48.2512 47.9027 48.2024 47.9934C48.1571 48.084 48.1118 48.1746 48.063 48.2652C48.0177 48.3558 47.9654 48.4464 47.9166 48.5335C47.819 48.7113 47.7145 48.8855 47.6065 49.0528C47.4287 49.3421 47.237 49.6174 47.0314 49.8788C46.9582 49.9764 46.8815 50.0705 46.8014 50.1646C46.5121 50.5166 46.1985 50.8372 45.8604 51.1265C45.8395 51.1509 45.8151 51.1718 45.7907 51.1892C45.7698 51.2101 45.7489 51.2275 45.7245 51.2484C45.6199 51.3356 45.5119 51.4227 45.4004 51.4994C45.3586 51.5342 45.3167 51.5656 45.2714 51.597C45.1948 51.6527 45.1146 51.7085 45.0344 51.7573C44.9543 51.8095 44.8741 51.8618 44.794 51.9106C44.672 51.9873 44.5465 52.057 44.4176 52.1197C44.2921 52.1859 44.1597 52.2487 44.0273 52.3079C43.9401 52.3497 43.8495 52.3881 43.7589 52.4229C41.0336 53.4998 37.5415 52.9422 35.2204 51.2763C35.1646 51.238 35.1124 51.1962 35.0601 51.1543C35.0078 51.116 34.9555 51.0742 34.9033 51.0324C34.6976 50.8686 34.5094 50.6978 34.3352 50.5131C34.2446 50.4225 34.1575 50.3284 34.0773 50.2308C33.9902 50.1332 33.91 50.0356 33.8333 49.9311C33.7741 49.8544 33.7148 49.7742 33.6591 49.6941C33.5441 49.5338 33.4326 49.363 33.328 49.1818C33.2722 49.0912 33.22 49.0006 33.1677 48.9065C33.0736 48.7427 32.9795 48.5684 32.8889 48.3872C32.8889 48.3837 32.8889 48.3767 32.8854 48.3732C32.8784 48.3628 32.8749 48.3558 32.8715 48.3454C32.8645 48.3349 32.8575 48.3244 32.854 48.314C32.624 47.8574 32.3975 47.3521 32.1605 46.7875C32.1117 46.669 32.0629 46.5505 32.0106 46.4286C31.9584 46.3066 31.9096 46.1811 31.8573 46.0556C31.7179 45.7141 31.5715 45.3517 31.4182 44.9683C30.871 43.6056 30.1217 41.6993 29.5432 39.2353C29.5258 39.1621 29.5083 39.0854 29.4909 39.0088V38.9948C29.4177 38.6812 29.348 38.3605 29.2853 38.0295C29.2295 37.7472 29.1772 37.4649 29.1319 37.1756C29.0413 36.6389 28.9612 36.0813 28.895 35.4993V35.4923C28.8183 34.8232 28.759 34.1227 28.7242 33.3943C28.7137 33.2235 28.7068 33.0527 28.6998 32.8855C28.6928 32.7182 28.6858 32.5544 28.6754 32.3906C28.651 31.9027 28.6301 31.4357 28.6161 30.9791V30.9687C28.6092 30.7874 28.6022 30.6062 28.6022 30.4285V30.4215C28.5534 28.3653 28.6684 26.6158 29.2818 24.8697C29.3271 24.7408 29.3724 24.6118 29.4247 24.4864C29.5745 24.103 29.7488 23.7162 29.9544 23.3293C30.3308 22.6184 30.9268 21.89 31.6482 21.1825C31.8887 20.949 32.1431 20.7155 32.4079 20.482C32.4951 20.4053 32.5857 20.3286 32.6763 20.252C32.7669 20.1788 32.8575 20.1021 32.9481 20.0254C33.2513 19.778 33.5615 19.534 33.8752 19.3005C33.9832 19.2204 34.0912 19.1437 34.2028 19.0636C34.3108 18.9869 34.4223 18.9067 34.5304 18.8301C34.6314 18.7603 34.729 18.6906 34.8301 18.6209C35.1019 18.4328 35.3703 18.2515 35.6351 18.0773C35.6386 18.0808 35.6386 18.0773 35.6386 18.0773C35.907 17.903 36.1684 17.7357 36.4263 17.5789C36.597 17.4743 36.7678 17.3733 36.9316 17.2757C36.9316 17.2757 36.9328 17.2757 36.9351 17.2757C37.1546 17.1467 37.3672 17.0283 37.5694 16.9132V16.9098ZM50.4782 37.8901C50.4538 38.2804 50.4259 38.6777 50.391 39.075C50.3945 39.0715 50.3945 39.068 50.3945 39.068V39.0576C50.4294 38.6672 50.4573 38.2839 50.4817 37.904C50.4817 37.904 50.4782 37.8935 50.4782 37.8901ZM50.5095 37.3185C50.5095 37.3185 50.513 37.315 50.513 37.3115V37.3046C50.513 37.2697 50.5165 37.2349 50.5165 37.2C50.513 37.2383 50.513 37.2767 50.5095 37.3185ZM50.4782 37.8901C50.4538 38.2804 50.4259 38.6777 50.391 39.075C50.3945 39.0715 50.3945 39.068 50.3945 39.068V39.0576C50.4294 38.6672 50.4573 38.2839 50.4817 37.904C50.4817 37.904 50.4782 37.8935 50.4782 37.8901ZM50.5095 37.3185C50.5095 37.3185 50.513 37.315 50.513 37.3115V37.3046C50.513 37.2697 50.5165 37.2349 50.5165 37.2C50.513 37.2383 50.513 37.2767 50.5095 37.3185Z" fill="#D35454"/>
<path d="M32.8889 48.3838C32.5543 47.7216 32.2267 46.9584 31.8573 46.0522C32.1012 46.3554 32.3626 46.6482 32.638 46.927H32.6345C32.6345 46.927 32.7564 47.5055 32.8889 48.3838Z" fill="#502632"/>
<path d="M40.9917 54.3643C36.3809 54.3643 31.8747 52.4963 28.7451 49.0042L28.7695 48.5303L29.2435 48.5582C33.8229 53.6673 41.4901 55.152 47.8887 52.1652C48.056 52.0886 48.2547 52.1617 48.3348 52.3255C48.415 52.4928 48.3418 52.6915 48.1745 52.7716C45.8744 53.845 43.4208 54.3608 40.9917 54.3608V54.3643Z" fill="#502632"/>
<path d="M44.0447 68.9877C43.3825 68.9877 42.7169 68.9389 42.0582 68.8239C40.8698 68.6218 39.8486 68.1896 38.8623 67.7679C37.5763 67.2208 36.36 66.7015 34.8301 66.698C34.0041 66.698 33.1119 66.7607 32.1779 66.8304C29.8952 67.0012 27.5323 67.179 25.4656 66.3774C25.2774 66.3042 25.1868 66.0916 25.2565 65.9034C25.3297 65.7152 25.5423 65.6211 25.727 65.6978C27.6403 66.4366 29.9196 66.2693 32.1222 66.1055C33.0701 66.0358 33.9658 65.9487 34.8301 65.9696C36.5099 65.9766 37.8482 66.5447 39.1481 67.0988C40.0961 67.4996 41.0754 67.9178 42.1802 68.106C46.5923 68.8623 51.5969 66.6457 54.256 64.0737L54.7718 64.0807L54.7614 64.5965C52.4229 66.8583 48.2721 68.9877 44.0447 68.9877Z" fill="#502632"/>
<path d="M35.5933 59.8391C34.722 59.8391 33.5859 59.7031 32.2964 59.5289C31.6029 59.4348 31.0034 59.3546 30.6968 59.3512C30.4946 59.3512 30.3343 59.1839 30.3343 58.9852C30.3343 58.7866 30.4981 58.6228 30.7002 58.6228C31.0522 58.6297 31.6412 58.7064 32.3905 58.8075C33.4744 58.9504 36.3461 59.3372 36.6598 58.9399C36.6737 58.7413 36.841 58.6053 37.0466 58.6158C37.2487 58.6297 37.3951 58.8144 37.3812 59.0166C37.3672 59.2117 37.2731 59.386 37.1128 59.515C36.827 59.7485 36.2973 59.8391 35.5933 59.8391Z" fill="#502632"/>
<path d="M48.1466 49.3876L47.9689 49.3423C47.7842 49.2447 47.718 49.0147 47.8156 48.8335C49.4745 45.7526 50.3701 40.7236 50.4956 39.34C51.4261 28.7976 51.5307 18.9696 42.7029 14.5366C42.5182 14.446 42.4415 14.2195 42.5356 14.0347C42.6297 13.85 42.8563 13.7734 43.0375 13.8675C53.0537 18.8965 52.0081 30.7528 51.2414 39.4063C51.1159 40.8282 50.1889 46.007 48.4742 49.1889L48.1432 49.3876H48.1466Z" fill="#502632"/>
<path d="M30.2716 44.9685L29.9997 44.8395C28.773 43.2189 27.5532 40.3925 27.4521 39.3017C26.8492 32.8891 25.5981 19.5447 35.2134 15.2301C35.3807 15.1534 35.5794 15.2197 35.6595 15.38C35.7397 15.5368 35.67 15.725 35.5027 15.7982C26.3055 19.9245 27.5323 32.9727 28.1213 39.2459C28.2154 40.2531 29.4108 42.968 30.5469 44.4736L30.4667 44.9127L30.2716 44.9685Z" fill="#502632"/>
<path d="M22.0119 68.89L21.6808 68.6774C21.4368 68.1512 20.5412 68.1477 19.5967 68.1407C18.2689 68.1337 16.4532 68.1268 16.3556 66.1751C16.2824 64.7079 17.5266 64.1886 18.5268 63.7739C18.8056 63.6589 19.067 63.5508 19.2865 63.4289C19.9383 63.0664 20.5795 62.6377 21.1964 62.2265C21.869 61.7769 22.5625 61.3134 23.2979 60.9161C23.4756 60.822 23.6952 60.8847 23.7928 61.0625C23.8869 61.2402 23.8207 61.4598 23.6429 61.5574C22.9389 61.9372 22.2593 62.3903 21.6006 62.8329C20.9698 63.2546 20.3181 63.6902 19.635 64.0666C19.3806 64.206 19.0983 64.321 18.8021 64.4465C17.7322 64.8926 17.0352 65.2481 17.077 66.1403C17.1327 67.2799 17.9239 67.4088 19.5932 67.4158C20.7259 67.4228 21.9004 67.4298 22.336 68.3742C22.4196 68.5554 22.343 68.7715 22.1583 68.8586L22.0049 68.8935L22.0119 68.89Z" fill="#502632"/>
<path d="M35.8721 40.7271C36.8445 42.2256 37.8656 42.9436 39.3433 42.9505C40.8244 42.9575 41.9676 42.149 42.8632 40.7549L35.8721 40.7271Z" fill="white"/>
<path d="M42.8632 40.7549C42.8632 40.7549 42.4241 40.6468 41.7724 40.5701C41.4413 40.5283 41.0614 40.4935 40.6537 40.4691C40.2424 40.4412 39.8033 40.6642 39.3677 40.6573C38.4964 40.6573 38.3396 40.2007 36.9664 40.5527C36.3078 40.6259 35.8721 40.7305 35.8721 40.7305C35.8721 40.7305 36.3078 40.8385 36.963 40.9187C37.6147 41.0023 38.4894 41.0546 39.3642 41.0615C39.8033 41.0546 40.2355 41.0546 40.6467 41.0302C41.058 41.0093 41.4413 40.9744 41.7724 40.9361C42.4276 40.8629 42.8667 40.7583 42.8667 40.7583L42.8632 40.7549Z" fill="#EA4D53"/>
<path d="M39.4618 42.3092C39.4618 42.3092 41.9606 42.3824 42.8632 40.7549C42.8632 40.7549 42.8354 40.8699 42.7761 41.0685L42.6367 41.4275C42.5635 41.5634 42.4938 41.7203 42.3823 41.8806C42.2568 42.0339 42.1488 42.2186 41.9606 42.3859L41.6783 42.6473L41.3298 42.8878L41.1381 43.0097L40.9151 43.1108C40.7582 43.1735 40.6293 43.2537 40.4306 43.2955C40.2459 43.3408 40.0368 43.4001 39.8695 43.421L39.6291 43.4384L39.5106 43.4489L39.4513 43.4558H39.42L39.3398 43.4628L38.7682 43.4105C38.587 43.3861 38.4128 43.3269 38.2385 43.2851C38.0573 43.2467 37.9179 43.1631 37.768 43.0969L37.5485 42.9923L37.3603 42.8738L37.0187 42.6264L36.7434 42.365L39.4653 42.3127L39.4618 42.3092Z" fill="#EA4D53"/>
<path d="M36.7399 42.3616C36.5517 42.1978 36.4506 42.0096 36.3287 41.8563C36.2137 41.6925 36.1509 41.5322 36.0812 41.3963L35.9488 41.0408C35.893 40.8421 35.8721 40.7236 35.8721 40.7236C35.8721 40.7236 36.7678 42.1177 39.4618 42.3059L36.7399 42.3581V42.3616Z" fill="#EA4D53"/>
<path d="M41.2845 30.7702C41.9397 29.6445 43.2501 29.1845 44.5012 29.2856C45.5746 29.296 46.655 29.6933 47.4113 30.4565L47.7145 30.7737L47.6413 30.8538C46.7143 30.237 45.6374 29.993 44.557 30.1673C43.4592 30.46 42.5461 30.7981 41.3507 30.8608L41.288 30.7702H41.2845Z" fill="#502632"/>
<path d="M36.6667 30.8609C35.4713 30.7982 34.5548 30.4601 33.4604 30.1673C32.3766 29.9931 31.3032 30.2371 30.3761 30.8539L30.3029 30.7738L30.6061 30.4566C31.3624 29.6969 32.4428 29.2961 33.5162 29.2856C34.4502 29.2299 35.4086 29.4041 36.1196 30.0523C36.3566 30.2475 36.5726 30.4775 36.7329 30.7703L36.6702 30.8609H36.6667Z" fill="#502632"/>
<path d="M46.0869 32.6413C45.8639 32.2544 45.4318 32.0767 45.0031 31.9477C44.916 31.9094 44.8253 31.885 44.7278 31.8711C44.6894 31.8606 44.6476 31.8501 44.6093 31.8397V31.8606C44.6093 31.8606 44.5849 31.8606 44.5744 31.8606C44.5187 31.8606 44.4664 31.8676 44.4106 31.8745C44.2991 31.6271 44.076 31.1984 43.9471 30.9858C43.6787 31.2612 43.7972 31.7979 44.2782 31.9059C44.1701 31.9373 44.0691 31.9826 43.9785 32.0453C43.7868 31.8571 43.4278 31.54 43.2327 31.3901C43.0793 31.7456 43.3895 32.2056 43.8809 32.122C43.8007 32.1952 43.7345 32.2823 43.6822 32.3764C43.4278 32.2823 42.9713 32.1464 42.7308 32.0906C42.7413 32.4844 43.2187 32.7702 43.6334 32.4775C43.5951 32.575 43.5707 32.6796 43.5707 32.7876C43.5707 33.3034 44.0203 33.7216 44.5709 33.7216C45.1216 33.7216 45.5746 33.3034 45.5746 32.7876C45.5746 32.6204 45.5224 32.4635 45.4387 32.3276C45.5468 32.3485 45.6513 32.3764 45.7524 32.4147C45.8744 32.4635 45.9963 32.5297 46.0835 32.6413H46.0869Z" fill="#121829"/>
<path d="M34.1575 31.8363V31.8607C34.1261 31.8607 34.0982 31.8537 34.0703 31.8537C34.032 31.8537 33.9971 31.8607 33.9623 31.8642C33.8508 31.6167 33.6312 31.1915 33.5023 30.9824C33.2374 31.2543 33.3454 31.7701 33.7985 31.8955C33.6939 31.9234 33.5964 31.9617 33.5057 32.0175C33.3106 31.8258 32.9725 31.5296 32.7843 31.3867C32.638 31.7247 32.9098 32.1604 33.3559 32.1325C33.2862 32.1987 33.2304 32.2754 33.1851 32.359C32.9237 32.2684 32.509 32.143 32.2825 32.0907C32.2929 32.4601 32.7146 32.7424 33.1119 32.5333C33.0875 32.6169 33.0666 32.7006 33.0666 32.7912C33.0666 33.307 33.5162 33.7252 34.0703 33.7252C34.6245 33.7252 35.074 33.307 35.074 32.7912C35.074 32.6204 35.0218 32.4601 34.9346 32.3242C35.0601 32.3486 35.1856 32.3765 35.3041 32.4218C35.426 32.4706 35.548 32.5368 35.6351 32.6483C35.3424 32.1395 34.6942 31.9931 34.1609 31.8432L34.1575 31.8363Z" fill="#121829"/>
</g>
</g>
<defs>
<clipPath id="clip0_1417_12403">
<rect width="78" height="78" fill="white"/>
</clipPath>
</defs>
</svg>
