<svg width="200" height="83" viewBox="0 0 200 83" fill="none" xmlns="http://www.w3.org/2000/svg">
<path d="M158.993 72.7627C157.293 72.7627 155.584 72.6262 153.877 72.3499C151.2 71.9147 148.598 71.1454 146.142 70.0629C144.575 69.3722 143.865 67.5397 144.555 65.9737C145.246 64.4062 147.079 63.6963 148.644 64.3869C150.618 65.2574 152.713 65.8774 154.87 66.2275C162.401 67.4497 170.02 65.2654 175.77 60.2335C180.222 56.342 183.197 50.976 184.146 45.125C185.238 38.397 183.643 31.645 179.658 26.1152C175.672 20.5854 169.771 16.9379 163.043 15.8458C162.727 15.7944 162.399 15.7478 162.036 15.7028C157.735 15.176 153.346 15.759 149.345 17.3908C142.819 20.0521 138.187 25.6462 136.957 32.3549C136.931 32.4978 136.906 32.6407 136.883 32.7837C135.592 40.7371 138.881 48.5684 145.466 53.2229C148.071 55.0635 151.002 56.2568 154.176 56.7724C159.649 57.6606 165.152 56.3757 169.667 53.1538C171.061 52.1581 172.998 52.4825 173.994 53.8766C174.989 55.2707 174.665 57.2076 173.271 58.2034C167.417 62.3809 160.281 64.048 153.182 62.8948C149.07 62.2267 145.27 60.6768 141.886 58.2885C137.798 55.3992 134.59 51.4385 132.608 46.8338C130.569 42.0991 129.93 36.8969 130.759 31.7879C130.789 31.6016 130.822 31.4169 130.855 31.2322C131.65 26.8973 133.579 22.7921 136.432 19.3631C139.239 15.9887 142.895 13.3178 147.003 11.6426C151.982 9.61248 157.441 8.88492 162.791 9.54181C163.238 9.59642 163.647 9.65424 164.042 9.72009C172.402 11.0772 179.737 15.6097 184.692 22.4838C189.647 29.3579 191.627 37.7497 190.27 46.1143C189.089 53.3883 185.39 60.0585 179.854 64.8976C174.011 70.0115 166.614 72.7595 158.989 72.7595L158.993 72.7627Z" fill="#1AE584"/>
<path d="M159.001 82.0749C156.794 82.0749 154.568 81.895 152.385 81.54C150.749 81.2718 149.126 80.9072 147.564 80.4559C145.918 79.9789 144.97 78.2588 145.447 76.6141C145.924 74.9679 147.644 74.0203 149.289 74.4973C150.615 74.8811 151.992 75.1911 153.384 75.4176C155.236 75.7195 157.126 75.8721 159.001 75.8721C164.14 75.8721 169.302 74.7029 173.931 72.4929C175.476 71.7557 177.328 72.4094 178.067 73.956C178.804 75.5027 178.15 77.3545 176.604 78.0917C171.148 80.6968 165.061 82.0733 159.002 82.0749H159.001Z" fill="#0EC4B6"/>
<path d="M183.349 73.1899C182.469 73.1899 181.594 72.8173 180.98 72.0929C179.874 70.7856 180.036 68.8278 181.343 67.7211L181.367 67.7003C181.542 67.5525 181.718 67.4031 181.889 67.2522C187.981 61.9247 192.043 54.6009 193.339 46.617C194.828 37.4285 192.653 28.2143 187.215 20.6721C183.388 15.3575 178.203 11.2587 172.219 8.81422C170.634 8.16697 169.873 6.35529 170.52 4.77007C171.167 3.18485 172.977 2.42355 174.564 3.07081C181.624 5.95537 187.739 10.7881 192.245 17.0439C198.652 25.9288 201.216 36.7845 199.462 47.6096C197.936 57.0165 193.148 65.6477 185.983 71.9131C185.791 72.0833 185.583 72.2584 185.376 72.4351L185.352 72.4559C184.769 72.949 184.058 73.1915 183.349 73.1915V73.1899Z" fill="#0EC4B6"/>
<path d="M163.533 6.47901C163.409 6.47901 163.282 6.47098 163.157 6.45652C161.765 6.28788 160.351 6.20276 158.952 6.20276C158.487 6.20276 158.085 6.21239 157.724 6.23006C156.015 6.31518 154.557 4.99818 154.471 3.28608C154.386 1.57558 155.703 0.118851 157.415 0.0337281C157.881 0.0096366 158.384 0 158.954 0C160.6 0 162.266 0.101184 163.904 0.298735C165.605 0.504315 166.818 2.04938 166.612 3.75024C166.421 5.32422 165.083 6.48061 163.536 6.48061L163.533 6.47901Z" fill="#1AE584"/>
<path d="M138.773 66.7945C138.171 66.7945 137.562 66.6194 137.026 66.2532C136.854 66.136 136.684 66.0155 136.512 65.8934C131.021 62.0083 126.715 56.6889 124.058 50.515C121.315 44.1485 120.454 37.1571 121.569 30.2991C121.612 30.0373 121.654 29.7915 121.7 29.5458C122.785 23.6482 125.403 18.0654 129.273 13.4109C133.057 8.86405 137.972 5.27281 143.49 3.02266C144.587 2.57777 145.699 2.18107 146.796 1.84218C148.432 1.33626 150.169 2.25495 150.675 3.89156C151.179 5.52818 150.262 7.26437 148.625 7.7703C147.698 8.05618 146.759 8.39186 145.831 8.76929C141.255 10.6356 137.178 13.6117 134.045 17.378C130.855 21.215 128.697 25.8132 127.804 30.6749C127.763 30.8901 127.728 31.0957 127.693 31.3077C126.771 36.9853 127.484 42.7833 129.76 48.0625C131.965 53.1908 135.54 57.6044 140.1 60.831C140.243 60.9322 140.386 61.0334 140.529 61.1314C141.944 62.0982 142.307 64.0272 141.341 65.4421C140.741 66.3223 139.767 66.7945 138.777 66.7945H138.773Z" fill="#0EC4B6"/>
<path d="M44.0696 60.4664C43.9604 60.4664 43.8705 60.4311 43.8014 60.362C43.7324 60.2929 43.697 60.203 43.697 60.0938V50.3929C43.697 50.2837 43.7324 50.1938 43.8014 50.1247C43.8705 50.0557 43.9604 50.0203 44.0696 50.0203H50.9197C51.0289 50.0203 51.1204 50.0557 51.1959 50.1247C51.2698 50.1938 51.3083 50.2837 51.3083 50.3929V51.9011C51.3083 52.0103 51.2714 52.1002 51.1959 52.1693C51.122 52.2383 51.0289 52.2737 50.9197 52.2737H46.323V54.4676H50.6209C50.7301 54.4676 50.8217 54.5046 50.8972 54.58C50.971 54.6539 51.0096 54.7471 51.0096 54.8563V56.3484C51.0096 56.4479 50.9727 56.5347 50.8972 56.6102C50.8217 56.6856 50.7301 56.7226 50.6209 56.7226H46.323V60.0954C46.323 60.2046 46.2877 60.2945 46.2186 60.3636C46.1495 60.4327 46.0596 60.468 45.9504 60.468H44.0696V60.4664Z" fill="#255F6D"/>
<path d="M57.8742 60.6158C56.978 60.6158 56.1959 60.468 55.5229 60.1757C54.8516 59.8818 54.3312 59.4289 53.9634 58.8169C53.5956 58.205 53.4109 57.426 53.4109 56.4817V50.3929C53.4109 50.2837 53.4462 50.1938 53.5153 50.1247C53.5843 50.0557 53.6743 50.0203 53.7835 50.0203H55.7092C55.8184 50.0203 55.9084 50.0557 55.9774 50.1247C56.0465 50.1938 56.0818 50.2837 56.0818 50.3929V56.4672C56.0818 57.1145 56.2392 57.5995 56.5524 57.9223C56.8656 58.2452 57.3057 58.4074 57.8726 58.4074C58.4396 58.4074 58.8652 58.2452 59.1784 57.9223C59.4916 57.5995 59.649 57.1145 59.649 56.4672V50.3929C59.649 50.2837 59.6859 50.1938 59.7614 50.1247C59.8353 50.0557 59.9236 50.0203 60.0232 50.0203H61.9634C62.0629 50.0203 62.1497 50.0557 62.2252 50.1247C62.299 50.1938 62.3376 50.2837 62.3376 50.3929V56.4817C62.3376 57.4277 62.1529 58.205 61.7851 58.8169C61.4173 59.4289 60.9001 59.8818 60.2336 60.1757C59.5671 60.4696 58.7801 60.6158 57.8758 60.6158H57.8742Z" fill="#255F6D"/>
<path d="M68.8146 60.6158C67.8188 60.6158 66.9933 60.4744 66.3364 60.1901C65.6795 59.9059 65.1816 59.5365 64.8443 59.0787C64.5054 58.621 64.3271 58.1327 64.3079 57.6156C64.3079 57.5353 64.34 57.4646 64.4042 57.3987C64.4685 57.3345 64.5456 57.3024 64.6355 57.3024H66.5162C66.656 57.3024 66.762 57.3281 66.8375 57.3763C66.9113 57.426 66.9788 57.4903 67.0382 57.5706C67.1185 57.72 67.2294 57.8645 67.3739 58.0026C67.5185 58.1424 67.708 58.2548 67.9409 58.3383C68.1753 58.4234 68.4661 58.4652 68.8146 58.4652C69.3912 58.4652 69.8264 58.3752 70.1203 58.197C70.4142 58.0171 70.5604 57.7746 70.5604 57.4662C70.5604 57.2478 70.4801 57.0663 70.3211 56.9217C70.1621 56.7772 69.9051 56.6487 69.5518 56.5331C69.1984 56.419 68.7278 56.3018 68.1416 56.1829C67.3851 56.0239 66.7411 55.8167 66.2095 55.563C65.6779 55.3092 65.2715 54.9767 64.9937 54.5624C64.7142 54.1496 64.5761 53.634 64.5761 53.0173C64.5761 52.4006 64.7479 51.8673 65.0916 51.3903C65.4353 50.9133 65.9156 50.5391 66.5323 50.2709C67.149 50.0027 67.8798 49.8677 68.7262 49.8677C69.412 49.8677 70.0175 49.9577 70.5395 50.136C71.0615 50.3158 71.5016 50.5535 71.8597 50.8523C72.2179 51.151 72.4893 51.4674 72.6724 51.7999C72.8571 52.1339 72.9535 52.4584 72.9631 52.778C72.9631 52.8583 72.9326 52.929 72.8732 52.9948C72.8138 53.0591 72.7383 53.0912 72.6499 53.0912H70.6793C70.57 53.0912 70.4753 53.0719 70.395 53.0318C70.3147 52.9916 70.2456 52.9274 70.1862 52.8374C70.1268 52.619 69.9694 52.4263 69.7156 52.2624C69.4618 52.0986 69.131 52.0167 68.723 52.0167C68.2846 52.0167 67.9441 52.0938 67.6999 52.248C67.4558 52.4022 67.3338 52.6383 67.3338 52.9563C67.3338 53.1554 67.4012 53.3289 67.5345 53.4783C67.6694 53.6276 67.8927 53.7561 68.2059 53.8669C68.5191 53.9761 68.9495 54.0902 69.4972 54.2106C70.403 54.3793 71.1338 54.5913 71.6911 54.845C72.2484 55.0988 72.6564 55.4264 72.9149 55.8296C73.1735 56.2327 73.3036 56.737 73.3036 57.3441C73.3036 58.0203 73.1125 58.6049 72.7286 59.098C72.3448 59.5911 71.8164 59.9669 71.1386 60.2255C70.4608 60.4841 69.6867 60.6142 68.8098 60.6142L68.8146 60.6158Z" fill="#255F6D"/>
<path d="M75.7693 60.4664C75.6601 60.4664 75.5702 60.4311 75.5011 60.362C75.4321 60.2929 75.3967 60.203 75.3967 60.0938V50.3929C75.3967 50.2837 75.4321 50.1938 75.5011 50.1247C75.5702 50.0557 75.6601 50.0203 75.7693 50.0203H77.6951C77.8043 50.0203 77.8942 50.0557 77.9633 50.1247C78.0323 50.1938 78.0677 50.2837 78.0677 50.3929V53.9906H81.7537V50.3929C81.7537 50.2837 81.789 50.1938 81.8581 50.1247C81.9271 50.0557 82.0171 50.0203 82.1263 50.0203H84.052C84.1612 50.0203 84.2512 50.0557 84.3202 50.1247C84.3893 50.1938 84.4246 50.2837 84.4246 50.3929V60.0938C84.4246 60.203 84.3893 60.2929 84.3202 60.362C84.2512 60.4311 84.1612 60.4664 84.052 60.4664H82.1263C82.0171 60.4664 81.9271 60.4311 81.8581 60.362C81.789 60.2929 81.7537 60.203 81.7537 60.0938V56.3773H78.0677V60.0938C78.0677 60.203 78.0323 60.2929 77.9633 60.362C77.8942 60.4311 77.8043 60.4664 77.6951 60.4664H75.7693Z" fill="#255F6D"/>
<path d="M86.5156 60.4664C86.4353 60.4664 86.363 60.4342 86.2988 60.37C86.2345 60.3057 86.2024 60.2335 86.2024 60.1532C86.2024 60.1034 86.2072 60.0584 86.2168 60.0183L89.7246 50.4363C89.7551 50.327 89.8161 50.2291 89.9109 50.1456C90.0056 50.0604 90.1373 50.0187 90.306 50.0187H92.5144C92.683 50.0187 92.8147 50.0604 92.9095 50.1456C93.0042 50.2307 93.0669 50.327 93.0958 50.4363L96.589 60.0183C96.6083 60.0584 96.6196 60.1034 96.6196 60.1532C96.6196 60.2335 96.5874 60.3057 96.5232 60.37C96.4589 60.4342 96.3819 60.4664 96.2919 60.4664H94.4561C94.3068 60.4664 94.1943 60.4294 94.1205 60.3539C94.0466 60.2784 93.9984 60.2126 93.9791 60.1532L93.3977 58.6306H89.413L88.846 60.1532C88.8268 60.2126 88.7818 60.2801 88.7111 60.3539C88.6421 60.4278 88.5216 60.4664 88.353 60.4664H86.5172H86.5156ZM90.0233 56.4816H92.7986L91.3949 52.5419L90.0217 56.4816H90.0233Z" fill="#255F6D"/>
<path d="M100.009 60.4664C99.8994 60.4664 99.8095 60.431 99.7404 60.362C99.6714 60.2929 99.636 60.203 99.636 60.0937V52.362H96.9795C96.8703 52.362 96.7804 52.325 96.7113 52.2495C96.6423 52.1757 96.6069 52.0873 96.6069 51.9878V50.3913C96.6069 50.2821 96.6423 50.1921 96.7113 50.1231C96.7804 50.054 96.8703 50.0187 96.9795 50.0187H105.01C105.119 50.0187 105.209 50.054 105.278 50.1231C105.347 50.1921 105.383 50.2821 105.383 50.3913V51.9878C105.383 52.0873 105.347 52.1741 105.278 52.2495C105.209 52.3234 105.119 52.362 105.01 52.362H102.354V60.0937C102.354 60.203 102.318 60.2929 102.249 60.362C102.18 60.431 102.09 60.4664 101.981 60.4664H100.01H100.009Z" fill="#255F6D"/>
<path d="M107.71 60.4664C107.601 60.4664 107.511 60.4311 107.442 60.362C107.372 60.2929 107.337 60.203 107.337 60.0938V50.3929C107.337 50.2837 107.372 50.1938 107.442 50.1247C107.511 50.0557 107.601 50.0203 107.71 50.0203H109.709C109.819 50.0203 109.909 50.0557 109.978 50.1247C110.047 50.1938 110.082 50.2837 110.082 50.3929V60.0938C110.082 60.203 110.047 60.2929 109.978 60.362C109.909 60.4311 109.819 60.4664 109.709 60.4664H107.71Z" fill="#255F6D"/>
<path d="M105.89 21.5313C107.787 21.6952 109.455 20.2898 109.619 18.3946C109.783 16.4994 108.378 14.8291 106.483 14.6653C104.587 14.5014 102.917 15.9068 102.753 17.802C102.589 19.6972 103.995 21.3675 105.89 21.5313Z" fill="#255F6D"/>
<path d="M114.814 18.7865C114.767 18.3175 114.541 17.8967 114.176 17.5995C113.811 17.3008 113.355 17.1579 112.883 17.2109C112.414 17.2574 111.992 17.4839 111.696 17.8485C111.078 18.6001 111.19 19.7132 111.945 20.3315C112.102 20.4584 112.276 20.5548 112.462 20.6206L111.129 21.9553L111.842 22.6684L114.391 20.1195L114.388 20.1163C114.399 20.1018 114.412 20.097 114.426 20.0826C114.725 19.7148 114.863 19.257 114.815 18.7881L114.814 18.7865ZM113.648 19.4353L113.623 19.4578C113.358 19.7614 112.897 19.8063 112.579 19.5461C112.26 19.2843 112.21 18.8089 112.475 18.4861C112.624 18.3062 112.84 18.2099 113.061 18.2099C113.227 18.2099 113.399 18.2645 113.538 18.3817C113.692 18.5086 113.789 18.6917 113.81 18.8892C113.832 19.0884 113.771 19.2811 113.649 19.4353H113.648Z" fill="#255F6D"/>
<path d="M107.742 22.7857L107.494 22.7439C103.314 22.1545 99.406 24.9379 98.611 29.0912L97.0017 37.5104C96.9647 37.7015 97.0675 37.8927 97.2474 37.9682L104.945 41.1707C105.247 41.296 105.157 41.7473 104.83 41.7473H94.4191C94.1605 41.7473 93.9661 41.5128 94.0143 41.259L95.8565 31.653C95.9047 31.3992 95.7104 31.1647 95.4518 31.1647H89.4482C89.2506 31.1647 89.082 31.3044 89.0435 31.4988L87.2848 40.6792L87.0792 41.7489H83.6935L85.6289 31.653C85.6771 31.3992 85.4827 31.1647 85.2241 31.1647H79.2607C79.0631 31.1647 78.8945 31.3044 78.8576 31.4988L77.0844 40.6792L76.8917 41.7489H73.3406L73.1206 42.9005C73.0788 43.1478 73.0515 43.3807 73.0515 43.6264C73.0515 45.6694 74.7106 47.396 76.8499 47.396C78.5219 47.396 80.0718 46.8065 81.2924 45.8059C82.4986 44.8053 83.3627 43.3936 83.6919 41.7618L83.4446 43.0225C83.4028 43.2554 83.3755 43.4883 83.3755 43.7212C83.3755 45.7096 84.9929 47.4088 87.0776 47.4088H94.6873V47.3944H105.614C109.004 47.3944 111.916 44.9964 112.554 41.6654C113.104 38.7889 113.781 35.2538 114.388 32.093C114.429 31.9276 114.457 31.7638 114.47 31.5855C115.004 27.3486 112.043 23.3864 107.738 22.7841L107.742 22.7857ZM107.824 30.7102L107.056 34.6997L104.52 33.6445L105.191 30.2027C105.342 29.3659 106.234 28.8873 107.029 29.2149C107.536 29.4349 107.851 29.928 107.851 30.4628C107.851 30.5448 107.836 30.6283 107.824 30.7102Z" fill="#255F6D"/>
<path d="M75.2921 31.6594L73.3616 41.7409C72.7111 45.0334 69.8651 47.412 66.5116 47.412H37.3255V47.4329H31.187C29.4588 47.4329 28.0776 46.1737 27.8126 44.5869C27.7307 44.1805 27.7307 43.7742 27.8126 43.347L28.1177 41.7617L29.1135 36.4777H25.617L24.6004 41.7617L23.5034 47.473C23.1982 49.0791 21.7961 50.258 20.1499 50.258H4.76344C1.77609 50.258 -0.480479 47.5148 0.0880803 44.5885L0.637366 41.7634L1.55284 36.9675C2.20331 33.614 5.12963 31.1743 8.5442 31.1743H15.6994C15.9644 31.1743 16.1459 31.4185 16.1057 31.6626L15.2529 36.134C15.2127 36.3379 15.0296 36.4793 14.8465 36.4793H9.60262C8.95214 36.4793 8.38359 36.9467 8.26152 37.5762L7.22559 42.9615C7.06337 43.7951 7.71384 44.5869 8.56668 44.5869H16.0463C16.6968 44.5869 17.2653 44.1195 17.3874 43.469L17.7134 41.7617L18.7301 36.4777L19.2183 33.9577C19.5235 32.3532 20.9465 31.1727 22.5928 31.1727H34.1775C35.6006 31.1727 36.6975 32.4737 36.4341 33.9176L35.0111 41.2751C34.971 41.5192 35.1733 41.7634 35.4175 41.7634H38.4048V41.7425H38.4257L38.5686 40.9089L39.4215 36.4584L40.3771 31.5196C40.4172 31.3173 40.5811 31.1743 40.7642 31.1743H46.7405C47.0039 31.1743 47.2078 31.4185 47.1677 31.6626L45.2163 41.7441H56.4975C56.8027 41.7441 56.9039 41.3169 56.5987 41.1948L48.8958 37.9633C48.7336 37.9023 48.6308 37.6983 48.6517 37.5152L49.8097 31.5196C49.8499 31.2755 50.1149 31.1342 50.359 31.2145L56.1924 33.6542L58.7332 34.711L61.0701 35.6859C61.5583 35.8898 61.984 36.1324 62.371 36.4584C63.8342 37.6566 64.5858 39.5469 64.2614 41.4582L64.2004 41.7425H66.5581L68.5095 31.5196C68.5497 31.3173 68.7328 31.1743 68.9159 31.1743H74.8713C75.1363 31.1743 75.3387 31.4185 75.2985 31.6626L75.2921 31.6594Z" fill="#255F6D"/>
<path d="M44.3667 29.8943C46.2619 30.0581 47.9323 28.6527 48.0961 26.7575C48.2599 24.8623 46.8546 23.192 44.9594 23.0282C43.0642 22.8644 41.3938 24.2697 41.23 26.1649C41.0662 28.0601 42.4715 29.7304 44.3667 29.8943Z" fill="#255F6D"/>
<path d="M14.7723 58.3415C16.6675 58.5053 18.3378 57.0999 18.5016 55.2048C18.6654 53.3096 17.2601 51.6392 15.3649 51.4754C13.4697 51.3116 11.7994 52.7169 11.6355 54.6121C11.4717 56.5073 12.8771 58.1776 14.7723 58.3415Z" fill="#255F6D"/>
<path d="M7.2642 58.3415C9.1594 58.5053 10.8297 57.0999 10.9936 55.2048C11.1574 53.3096 9.75205 51.6392 7.85685 51.4754C5.96165 51.3116 4.29131 52.7169 4.12749 54.6121C3.96367 56.5073 5.369 58.1776 7.2642 58.3415Z" fill="#255F6D"/>
<path d="M45.8008 22.4115C47.696 22.5753 49.3664 21.17 49.5302 19.2748C49.694 17.3796 48.2887 15.7092 46.3935 15.5454C44.4967 15.3816 42.8279 16.7869 42.6641 18.6821C42.5003 20.5773 43.9056 22.2476 45.8008 22.4115Z" fill="#255F6D"/>
</svg>
