<svg width="78" height="78" viewBox="0 0 78 78" fill="none" xmlns="http://www.w3.org/2000/svg">
<g id="Capa_1" clip-path="url(#clip0_1419_12527)">
<path id="Vector" d="M78 0H0V78H78V0Z" fill="#EFF7F3"/>
<g id="Group">
<path id="Vector_2" d="M53.1397 26.1918C53.5649 32.6883 50.8708 41.0739 49.2083 46.1519C48.8842 47.1556 48.5635 50.0519 47.3402 49.9822C45.1759 49.8567 44.6531 46.1484 44.3917 44.6393C43.7574 40.9798 43.2171 37.2889 42.5515 33.6537C41.9346 30.3009 41.6174 26.6484 42.3145 23.2816C42.6351 21.7377 43.2276 20.0647 44.5346 19.0749C45.7684 18.1409 48.107 17.5344 49.4871 18.4197C52.5611 20.3854 52.9166 22.8948 53.1362 26.1953L53.1397 26.1918Z" fill="#381800"/>
<path id="Vector_3" d="M22.9783 22.3129C23.6893 19.0367 25.4807 16.6807 28.5582 15.1367C32.3641 13.2303 34.4343 12.6064 38.6863 12.7668C40.8751 12.8504 42.1995 13.9448 44.3324 14.4466C45.9182 14.8196 48.5635 16.7992 49.4906 18.4163C54.5059 27.1609 45.4303 32.3399 37.9614 34.6785C34.0718 35.8984 26.1115 41.2378 23.9019 37.1914C20.8418 31.5871 21.978 26.9413 22.9783 22.3094V22.3129Z" fill="#492300"/>
<path id="Vector_4" d="M47.5075 38.3135H28.8823V59.0403H47.5075V38.3135Z" fill="#E57D77"/>
<path id="Vector_5" d="M69.9734 78.0001H5.1268C3.98712 75.543 3.99061 73.4031 6.05388 71.3816C6.05736 71.3816 6.06085 71.3747 6.06085 71.3747C6.26996 71.169 6.50348 70.9669 6.75441 70.7612C6.93216 70.6184 7.12037 70.4789 7.32251 70.3395C7.39222 70.2873 7.46541 70.2385 7.54208 70.1862C8.35066 69.639 9.17318 69.0779 10.0062 68.5202C12.9512 66.5441 16.06 64.5993 19.3536 63.4143C21.2078 62.7486 23.041 61.961 24.815 61.1907C24.9718 61.1245 25.1252 61.0548 25.282 60.9886C25.8083 60.7621 26.3241 60.4693 26.7946 60.1696C27.9657 59.4202 28.844 58.6256 28.8823 58.6639V58.6744H47.5075C48.2882 59.2495 48.9992 59.7304 49.6649 60.1486H49.6684C50.1667 60.4588 50.6373 60.7342 51.0973 60.9921C51.4458 61.1803 51.7839 61.3615 52.122 61.5323C52.4147 61.6856 52.7249 61.8425 53.0491 62.0063C53.537 62.2468 54.0249 62.4873 54.5338 62.7452C54.5512 62.7556 54.5686 62.7661 54.586 62.773C54.6035 62.7835 54.6209 62.7905 54.6383 62.7974C55.0461 63.0066 55.4678 63.2261 55.907 63.4666C55.9209 63.4736 55.9348 63.4806 55.9488 63.491C59.6745 65.5125 63.3863 66.9763 67.1818 68.7398C67.4745 68.8757 67.7499 69.0047 68.0043 69.1267C68.8059 69.5066 69.4193 69.9248 69.8793 70.3779C71.9391 72.3958 70.9458 75.076 69.9734 78.0001Z" fill="#E57D77"/>
<path id="Vector_6" d="M69.9735 78.0003H4.81662C4.05334 75.3654 3.97667 73.3928 6.0016 71.4236L6.01206 71.4132C6.23511 71.1936 6.47908 70.9775 6.75442 70.7614C6.93216 70.6185 7.12037 70.4791 7.32251 70.3397C7.39222 70.2874 7.46541 70.2386 7.54208 70.1864C8.35066 69.6392 9.17318 69.078 10.0062 68.5204C12.9512 66.5443 16.06 64.5995 19.3536 63.4145C21.2078 62.7488 23.041 61.9612 24.815 61.1909C24.9718 61.1247 25.1252 61.055 25.282 60.9888C25.282 60.9888 26.9375 63.0869 29.9941 64.7006C31.8796 65.6939 34.2949 66.5059 37.1842 66.5303C37.4247 66.5303 37.6651 66.5268 37.9126 66.5164C40.8611 66.4083 44.2697 65.4673 48.0826 63.1008C49.0619 62.4979 50.0657 61.7973 51.0973 60.9923H51.1008C51.4145 61.1595 51.756 61.3408 52.122 61.5325C52.4147 61.6858 52.7249 61.8427 53.0491 62.0065C53.5161 62.2435 54.0145 62.4909 54.5338 62.7453C54.5512 62.7558 54.5686 62.7662 54.5861 62.7732C54.6035 62.7837 54.6209 62.7906 54.6383 62.7976C56.0812 63.5086 57.681 64.2788 59.2946 65.0421C62.1769 66.4049 65.0941 67.7536 67.1818 68.74C67.4745 68.8759 67.7499 69.0049 68.0043 69.1268C68.8059 69.5067 69.4193 69.925 69.8793 70.378C71.9391 72.396 70.9458 75.0762 69.9735 78.0003Z" fill="#F9DCCE"/>
<path id="Vector_7" d="M45.7753 48.6788C44.2035 51.0069 39.0662 54.7152 33.0785 54.7152C27.7531 54.7152 24.8638 45.6361 24.2922 42.0847C23.4453 36.8115 22.682 29.9873 25.0032 25.0801C28.3909 17.9214 36.9472 15.8581 43.0812 21.5844C49.3024 27.3908 49.9681 42.475 45.7788 48.6788H45.7753Z" fill="#F4B5A2"/>
<path id="Vector_8" d="M47.1694 34.595C44.4649 34.4765 45.0365 37.6342 44.7925 39.4326C44.4753 41.7816 42.8059 44.7406 40.0769 43.9111C39.6273 43.7752 39.1568 43.2907 38.8466 42.9597C37.6094 41.6353 36.041 41.813 34.4413 41.928C32.263 42.0849 30.0638 41.9245 27.8785 42.0256C26.2823 42.0953 25.059 41.1369 23.9716 39.9588C24.0692 40.6873 24.1772 41.4017 24.2887 42.0883C24.8603 45.6398 27.7496 54.7189 33.0751 54.7189C39.0662 54.7189 44.2 51.0106 45.7718 48.6824C47.9153 45.5074 48.7831 40.0146 48.2917 34.6229C47.9188 34.6159 47.5423 34.6159 47.1694 34.5985V34.595Z" fill="#2A2754"/>
<path id="Vector_9" d="M38.2437 36.8881C38.2437 37.404 38.6933 37.8222 39.244 37.8222C39.7946 37.8222 40.2477 37.404 40.2477 36.8881C40.2477 36.3723 39.7981 35.9541 39.244 35.9541C38.6898 35.9541 38.2437 36.3723 38.2437 36.8881Z" fill="#11182A"/>
<path id="Vector_10" d="M27.5579 36.8881C27.5579 37.404 28.0075 37.8222 28.5617 37.8222C29.1158 37.8222 29.5619 37.404 29.5619 36.8881C29.5619 36.3723 29.1158 35.9541 28.5617 35.9541C28.0075 35.9541 27.5579 36.3723 27.5579 36.8881Z" fill="#11182A"/>
<path id="Vector_11" d="M40.2129 33.0508L40.2826 33.0682C40.8402 33.2181 41.4606 33.354 41.9276 33.706C42.1785 33.8942 42.3563 34.1138 42.4678 34.4066L42.6177 35.2465C41.2584 34.7412 39.8852 34.5843 38.397 34.4867C37.707 34.4414 36.7346 34.6401 36.0584 34.4623C34.9989 34.1835 35.6716 33.246 36.4383 32.9706C37.6512 32.542 38.9965 32.7267 40.2094 33.0473L40.2129 33.0508Z" fill="#2A2754"/>
<path id="Vector_12" d="M26.819 33.0509L26.7493 33.0683C26.237 33.2112 25.6654 33.3471 25.2332 33.6921C25.0032 33.8769 24.8394 34.0964 24.7418 34.3857L24.6059 35.2257C25.8641 34.7342 27.1327 34.5879 28.5094 34.5042C29.1472 34.4659 30.0533 34.6715 30.6772 34.5042C31.6566 34.2358 31.0257 33.2913 30.3113 33.0125C29.1855 32.5699 27.9448 32.7476 26.819 33.0543V33.0509Z" fill="#2A2754"/>
<path id="Vector_13" d="M33.8453 42.5306C33.7129 42.5306 33.5351 42.5027 33.2598 42.4574L32.9566 42.4156L32.7718 42.4016C32.4895 42.3807 32.1306 42.3598 31.8378 42.1681C31.1233 41.715 31.3568 40.8472 31.4962 40.3314L31.545 40.1467C31.6566 39.6936 31.782 39.2614 31.904 38.8327C32.2281 37.7174 32.5279 36.6649 32.5279 35.4451C32.5279 35.2429 32.6917 35.0791 32.8938 35.0791C33.096 35.0791 33.2563 35.2394 33.2563 35.4451C33.2563 36.766 32.9391 37.8708 32.6011 39.0349C32.4826 39.4496 32.3571 39.8748 32.2456 40.3174L32.1968 40.5161C32.0399 41.1016 32.0051 41.4048 32.2281 41.5477C32.3641 41.6384 32.5976 41.6523 32.8206 41.6662L33.0263 41.6837L33.3678 41.7325C33.5281 41.7568 33.7024 41.7882 33.8035 41.7952L33.9255 41.7847C34.1241 41.7987 34.274 41.9729 34.26 42.1751L34.1206 42.4365L33.8418 42.5236L33.8453 42.5306Z" fill="#E57D77"/>
<path id="Vector_14" d="M49.5464 34.0827C49.6509 34.3615 49.7276 34.6438 49.7834 34.8738C50.3863 37.2507 50.0378 40.4049 48.2045 42.1859C47.8212 42.5518 47.0962 42.74 46.7059 42.2277C45.7753 41.0183 45.6917 38.0524 45.8137 36.7245C45.8938 35.8566 46.082 34.9331 46.563 34.1907C46.9115 33.654 47.4273 33.0963 48.0686 32.9395C48.8563 32.7513 49.2885 33.4065 49.5429 34.0792L49.5464 34.0827Z" fill="#F4B5A2"/>
<path id="Vector_15" d="M47.8769 40.7846L47.6225 40.6835L47.6086 40.1677C48.4311 39.3034 48.5322 37.5991 48.3718 36.4036C48.222 35.2849 47.9501 34.9956 47.8038 34.9189C47.6469 35.0304 47.3681 35.5079 47.281 35.8076C47.2252 36.0028 47.03 36.1143 46.8314 36.0586C46.6397 36.0028 46.5212 35.8042 46.5769 35.609C46.6501 35.3336 47.1973 33.9953 47.9466 34.1975C48.8458 34.4449 49.034 35.846 49.0933 36.306C49.2815 37.7245 49.1316 39.617 48.1348 40.6661L47.8735 40.7811L47.8769 40.7846Z" fill="#F0968D"/>
<path id="Vector_16" d="M47.5981 38.7809L47.1834 38.6449C46.7233 38.3417 46.8383 37.6307 46.9011 37.2508L46.9115 37.1742C46.9429 36.9755 47.1241 36.8465 47.3263 36.8675C47.5249 36.8988 47.6643 37.0835 47.6365 37.2822L47.619 37.3658C47.5563 37.7492 47.5598 37.927 47.5842 38.0071L47.6295 37.9339C47.7306 37.7597 47.9536 37.7039 48.1279 37.805C48.3021 37.9095 48.3579 38.1291 48.2568 38.3034C48.1488 38.4881 47.992 38.7077 47.7341 38.7634L47.5981 38.7809Z" fill="#F0968D"/>
<path id="Vector_17" d="M13.0383 78H1.20241C3.68739 73.4169 5.64262 71.7091 6.0016 71.4233L6.01206 71.4128C6.01206 71.4128 6.04343 71.3885 6.05388 71.3815C6.05737 71.3815 6.06085 71.3745 6.06085 71.3745C9.22546 72.1517 11.4769 74.567 13.0383 78Z" fill="#F9DCCE"/>
<path id="Vector_18" d="M37.348 66.7777C34.5737 66.7777 28.844 65.8541 26.596 63.505L26.6064 62.9892L27.1223 62.9997C29.081 65.0455 34.4971 66.0946 37.5432 66.0458C41.5268 65.9761 45.1654 64.8538 47.5249 62.9683C47.6853 62.8428 47.9118 62.8672 48.0373 63.0241C48.1627 63.1809 48.1383 63.4109 47.9815 63.5364C45.5 65.523 41.6976 66.6975 37.5536 66.7742H37.348V66.7777Z" fill="#2A2754"/>
<path id="Vector_19" d="M32.8555 23.4001C32.8555 23.4001 46.9359 18.2768 45.8137 36.7277C45.8137 36.7277 54.7045 28.0529 49.6788 17.9875C49.6788 17.9875 27.896 8.302 22.9783 22.3127L25.0659 24.2436C25.0659 24.2436 28.1783 20.6398 32.852 23.4036L32.8555 23.4001Z" fill="#492300"/>
<path id="Vector_20" d="M59.8244 78.0001C60.8212 74.8285 62.4627 71.3154 65.1917 71.3747L68.8652 70.0015C68.8652 70.0015 69.2346 70.0572 69.8794 70.3779C71.2526 71.0575 73.87 72.9326 76.7976 78.0001H59.8244Z" fill="#F9DCCE"/>
<path id="Vector_21" d="M37.9126 66.4084V78.0003H37.1842V66.4084C37.1842 66.2097 37.3445 66.0494 37.5432 66.0459H37.5501C37.7523 66.0459 37.9126 66.2062 37.9126 66.4084Z" fill="#2A2754"/>
<path id="Vector_22" d="M28.9694 58.657L28.8823 52.5962C28.4292 52.049 26.3729 48.6753 26.3729 48.6753C23.4523 40.4187 24.1319 38.8468 24.3445 31.9007C24.463 28.1192 26.4531 25.8887 28.9171 25.1846C34.0265 23.7278 37.4386 23.7975 42.9279 25.3171C44.7681 25.8259 44.9458 30.1337 45.2978 33.3611C45.859 38.4983 45.6289 39.1989 45.7684 48.6787C45.8032 51.3066 45.7579 56.9562 47.5877 59.023C47.9466 59.4273 51.3064 60.8318 53.7113 62.2747C57.3708 64.4739 62.5812 66.2619 65.5855 67.9592C58.3606 61.4871 56.8236 56.7506 56.1718 54.6978C54.593 49.7313 55.3319 48.1804 54.5756 42.1509C53.6206 34.4728 55.3598 21.3683 48.5391 16.2415C40.2407 9.99939 31.789 11.5434 26.2858 16.4227C22.4381 19.8383 21.0614 29.4227 21.0614 38.2997C21.0614 48.738 22.5182 51.2927 16.6874 60.1592C15.9311 61.3058 10.3024 67.2656 10.0027 68.5238C14.408 66.2061 19.9531 63.8257 24.1772 61.4871C24.1772 61.4871 27.6067 59.9849 28.9659 58.6605L28.9694 58.657Z" fill="#E74B53"/>
<path id="Vector_23" d="M24.7314 24.5819C27.5684 23.6374 30.259 23.1773 33.3365 22.9821C39.1603 22.6092 43.9386 23.4596 50.0552 25.5786C50.9579 25.8923 52.6064 26.4988 53.4464 27.1296C54.6662 28.0462 54.1086 24.9199 53.889 23.7524C53.5997 22.2433 53.6973 20.7829 52.1987 20.2497C50.808 19.7548 49.4174 19.1414 48.0338 18.8835C42.1402 17.7821 37.5048 17.2977 31.2627 17.7717C28.485 17.9843 23.6126 17.3709 22.4903 20.7063C22.1349 21.7588 20.8976 25.6274 21.755 25.7215C22.8005 25.84 23.8078 24.8886 24.7314 24.5819Z" fill="#2A2754"/>
<path id="Vector_24" d="M52.7458 57.6045L52.4252 57.4128C51.3692 55.4437 50.5885 52.9064 49.9611 50.8675L49.7485 50.1879C49.2815 48.6788 49.1316 47.0372 48.9922 45.448C48.926 44.7335 48.8633 44.019 48.7727 43.315C48.5357 41.5166 48.6298 39.4847 48.7169 37.5225C48.8528 34.574 48.9957 31.5244 48.0617 29.0638C47.992 28.8756 48.0861 28.6665 48.2743 28.5933C48.466 28.5236 48.6751 28.6177 48.7483 28.8059C49.7346 31.4059 49.5882 34.5322 49.4523 37.5574C49.3582 39.5788 49.2676 41.4852 49.4976 43.2209C49.5917 43.9354 49.6544 44.6568 49.7206 45.3818C49.8601 46.9327 50.003 48.5394 50.4525 49.9718L50.6617 50.6549C51.2786 52.6624 52.0488 55.1614 53.0735 57.0678C53.1676 57.2456 53.1048 57.4651 52.9236 57.5592L52.7528 57.6011L52.7458 57.6045Z" fill="#B43D40"/>
<path id="Vector_25" d="M19.3954 61.8495L19.0887 61.6787C18.9807 61.5079 19.033 61.2814 19.2037 61.1768C22.0198 59.4028 22.9225 58.2841 23.5289 56.9562C24.2783 55.3077 24.3271 52.746 24.3968 49.2015L24.4072 48.6543C24.4107 48.4557 24.5989 48.3058 24.7802 48.2988C24.9823 48.3023 25.1426 48.4696 25.1357 48.6717L25.1252 49.2189C25.052 52.8541 24.9997 55.4784 24.1877 57.2594C23.4139 58.9567 22.208 60.1452 19.5871 61.7972L19.392 61.853L19.3954 61.8495Z" fill="#B43D40"/>
<path id="Vector_26" d="M30.0394 45.4863C31.1895 46.856 32.2909 47.4415 33.7582 47.2673C35.2289 47.0895 36.2606 46.1485 36.982 44.6533L30.0394 45.4863Z" fill="white"/>
</g>
</g>
<defs>
<clipPath id="clip0_1419_12527">
<rect width="78" height="78" fill="white"/>
</clipPath>
</defs>
</svg>
