<svg width="90" height="90" viewBox="0 0 90 90" fill="none" xmlns="http://www.w3.org/2000/svg">
    <g clip-path="url(#clip0_20_260)">
        <path d="M6.76831e-06 44.5536C-0.01832 78.7386 37.1851 100.113 66.9661 83.0391C80.8028 75.1033 89.3156 60.4343 89.3156 44.5536C89.3339 10.3685 52.1305 -11.0063 22.3495 6.06803C8.5128 14.0038 6.76831e-06 28.6728 6.76831e-06 44.5536Z" fill="#1AE584"/>
        <path d="M14.02 18.523L19.0415 16.8556C19.3897 16.7372 19.4722 16.2999 19.2065 16.063C19.1606 16.0174 19.1057 15.9901 19.0415 15.9719L14.918 14.6052C14.359 14.4138 13.91 13.9765 13.7268 13.4207L12.3522 9.32071C12.2331 8.97449 11.7933 8.89249 11.555 9.15671C11.5092 9.20227 11.4817 9.25693 11.4634 9.32071L10.0889 13.4207C9.89646 13.9765 9.45662 14.423 8.89765 14.6052L4.76496 15.9719C4.41675 16.0903 4.33428 16.5276 4.60002 16.7645C4.64583 16.8101 4.70081 16.8374 4.76496 16.8556L8.89765 18.2223C9.45662 18.4045 9.90562 18.851 10.0889 19.4068L11.4634 23.5159C11.5825 23.8621 12.0224 23.9441 12.2606 23.6799C12.3064 23.6343 12.3339 23.5797 12.3522 23.5159L14.02 18.523ZM79.4924 15.5892C79.8131 14.1952 80.9128 13.1018 82.3148 12.783L87.9869 11.4801C88.3443 11.3981 88.4725 10.9698 88.2251 10.7056C88.161 10.6327 88.0785 10.5872 87.9869 10.5689L82.3148 9.26605C80.9128 8.94715 79.8131 7.85382 79.4924 6.45981L78.1821 0.829115C78.0996 0.47378 77.6689 0.346224 77.4032 0.592225C77.3299 0.656003 77.284 0.738004 77.2657 0.829115L75.9554 6.45981C75.6346 7.85382 74.535 8.94715 73.133 9.26605L67.4609 10.5689C67.1035 10.6509 66.9752 11.0792 67.2226 11.3434C67.2868 11.4163 67.3693 11.4618 67.4609 11.4801L73.133 12.783C74.535 13.1018 75.6346 14.1952 75.9554 15.5892L77.2657 21.229C77.3482 21.5843 77.7789 21.7119 78.0446 21.4659C78.1179 21.4021 78.1637 21.3201 78.1821 21.229L79.4924 15.5892Z" fill="white"/>
        <path d="M11.9033 24.2903C11.8392 24.2903 11.775 24.2903 11.7109 24.2721C11.381 24.2083 11.1244 23.9806 11.0144 23.6617L9.63994 19.5525C9.50249 19.1334 9.16344 18.7963 8.74193 18.6505L4.60924 17.2839C4.49011 17.2474 4.38015 17.1836 4.28852 17.1016C4.0411 16.883 3.92198 16.555 3.99529 16.227C4.05943 15.899 4.28852 15.6439 4.60924 15.5345L8.74193 14.1679C9.16344 14.0312 9.50249 13.6941 9.6491 13.2658L11.0236 9.16583C11.0603 9.04738 11.1244 8.94716 11.2069 8.84694C11.4268 8.59182 11.7567 8.48249 12.0866 8.55538C12.4164 8.61916 12.673 8.84694 12.783 9.16583L14.1575 13.2658C14.3041 13.685 14.634 14.0221 15.0647 14.1679L19.1882 15.5345C19.3073 15.571 19.4173 15.6347 19.5089 15.7167C19.7563 15.9354 19.8755 16.2634 19.8021 16.5914C19.738 16.9194 19.5089 17.1745 19.1882 17.2839L14.3774 18.8783L12.783 23.6617C12.7463 23.7801 12.6822 23.8895 12.5997 23.9806C12.4164 24.181 12.169 24.2903 11.9125 24.2903H11.9033ZM11.9125 9.45738L10.5105 13.5574C10.2814 14.2499 9.72241 14.7965 9.02599 15.0334L4.8933 16.4001L9.02599 17.7941C9.72241 18.0219 10.2722 18.5776 10.5105 19.2701L11.885 23.3792L13.5802 18.3863C13.626 18.2496 13.736 18.1403 13.8734 18.0948L18.895 16.4274L14.7714 15.0334C14.075 14.8056 13.5252 14.2499 13.287 13.5574L11.9125 9.45738ZM77.7331 22.049C77.6415 22.049 77.5499 22.0308 77.4582 22.0034C77.1375 21.9032 76.8992 21.6481 76.8259 21.3292L75.5156 15.6894C75.2315 14.4685 74.2602 13.5027 73.0323 13.2203L67.3602 11.9174C67.1769 11.8809 67.0119 11.7807 66.8837 11.6441C66.6546 11.3981 66.5813 11.0609 66.6729 10.7421C66.7737 10.4232 67.0303 10.1863 67.3602 10.1134L73.0231 8.81049C74.251 8.52804 75.2224 7.56226 75.5064 6.34137L76.8168 0.710673C76.8626 0.52845 76.9542 0.364449 77.0917 0.236893C77.3391 0.00911412 77.6781 -0.0637751 77.9989 0.0364476C78.3196 0.13667 78.5578 0.391783 78.6311 0.710673L79.9415 6.34137C80.2256 7.56226 81.1969 8.52804 82.4248 8.81049L88.0969 10.1134C88.2802 10.1589 88.4451 10.2501 88.5734 10.3867C88.8025 10.6327 88.8758 10.9698 88.775 11.2887C88.6742 11.6076 88.4176 11.8445 88.0969 11.9174L82.4248 13.2203C81.1969 13.5027 80.2256 14.4685 79.9415 15.6894L78.6311 21.3292C78.5853 21.5114 78.4937 21.6754 78.3562 21.803C78.1821 21.967 77.9622 22.049 77.7331 22.049ZM77.7423 0.92023L76.4044 6.55092C76.0471 8.10893 74.8008 9.33894 73.2339 9.70338L67.5618 11.0063L73.2339 12.3365C74.8008 12.701 76.0379 13.931 76.4044 15.489L77.7148 21.1288L79.0526 15.489C79.41 13.931 80.6562 12.6918 82.2232 12.3365L87.8953 11.0336L82.2232 9.70338C80.6562 9.34805 79.41 8.10893 79.0526 6.55092L77.7423 0.92023Z" fill="#255F6D"/>
        <path d="M30.1843 59.2863C28.3241 59.2863 26.7205 57.9834 26.3448 56.1794C24.4114 47.0409 24.3839 37.6017 26.2715 28.4541L26.6106 26.8232C27.1879 23.8712 30.7616 22.6503 33.0433 24.6183C34.1245 25.5477 34.601 26.9872 34.3078 28.3721L33.9688 30.003C32.301 38.112 32.3194 46.476 34.0329 54.5758C34.4728 56.6896 33.1166 58.7579 30.9907 59.1952C30.7249 59.2499 30.4592 59.2772 30.1843 59.2863Z" fill="white"/>
        <path d="M30.1842 59.7419C28.1225 59.7419 26.3173 58.2841 25.8958 56.2705C23.9348 47.0136 23.9165 37.62 25.8225 28.3539L26.1615 26.723C26.4639 25.1832 27.536 23.9532 29.0388 23.4339C30.5325 22.9237 32.1452 23.2334 33.3456 24.263C34.546 25.3017 35.0867 26.9052 34.7568 28.4633L34.4269 30.0941C32.7592 38.194 32.7775 46.394 34.491 54.4847C34.9859 56.8354 33.4647 59.1496 31.1006 59.6416C30.8074 59.7054 30.505 59.7327 30.2026 59.7419H30.1842ZM30.4775 24.1081C30.0926 24.1081 29.7077 24.1719 29.332 24.2995C28.15 24.7095 27.2978 25.6752 27.0595 26.9052L26.7205 28.5361C24.842 37.6746 24.8603 46.9498 26.7938 56.0792C27.1237 57.6645 28.5532 58.8216 30.1842 58.8216C30.4225 58.8216 30.6607 58.7943 30.899 58.7487C32.7683 58.357 33.9779 56.5256 33.5839 54.6669C31.8428 46.4578 31.8245 38.1302 33.5197 29.9119L33.8588 28.281C34.1245 27.051 33.6938 25.7846 32.7408 24.9555C32.0994 24.3997 31.293 24.1081 30.4775 24.1081Z" fill="#255F6D"/>
        <path d="M69.9442 51.1227C67.7908 50.8858 65.8481 52.4347 65.6099 54.5758C64.9135 60.735 57.7752 63.8328 52.7537 60.161C47.7321 56.4801 48.6026 48.7811 54.3206 46.3029C57.5828 44.8816 61.3947 45.7562 63.7131 48.444C65.6099 50.7856 69.3394 50.2116 70.4298 47.4053C70.9705 46.0204 70.6681 44.4533 69.6601 43.3509C61.8254 34.2762 47.0998 36.7635 42.7197 47.9065L42.4448 47.8791C44.2684 39.0231 48.0528 30.6864 53.5142 23.4612L54.5222 22.131C56.3457 19.7348 54.8704 16.2725 51.8648 15.9081C50.472 15.735 49.0975 16.3181 48.2453 17.4296L47.2373 18.7599C46.2751 20.0354 45.3588 21.3474 44.4883 22.6868C46.0552 20.1265 44.25 16.8374 41.2353 16.7645C39.8791 16.7372 38.6145 17.3932 37.8723 18.523C15.8893 51.2229 31.7878 69.427 31.7878 82.7293V89.5627H54.3664V85.982C54.4122 75.3219 55.7409 71.6592 63.429 68.443C68.8904 66.2472 72.7207 61.2634 73.4079 55.4414C73.637 53.3003 72.0884 51.3778 69.935 51.1409L69.9442 51.1227Z" fill="white"/>
        <path d="M34.5277 47.8062C34.5277 47.8062 34.4727 47.8062 34.4452 47.8062C34.1978 47.7607 34.0329 47.5238 34.0787 47.2778C36.0671 36.8911 40.4931 26.9326 46.8891 18.4865C47.0449 18.2861 47.329 18.2496 47.5306 18.3954C47.7321 18.5503 47.7688 18.8328 47.6222 19.0332C41.3086 27.3699 36.9377 37.2009 34.9767 47.4509C34.9309 47.6696 34.7385 47.8245 34.5277 47.8245V47.8062Z" fill="#255F6D"/>
        <path d="M54.3664 90C54.1098 90 53.9082 89.7996 53.9082 89.5444V85.9638C53.954 75.2308 55.2461 71.3586 63.2549 68.0057C68.5696 65.8645 72.29 61.0265 72.9589 55.3685C73.078 54.1385 72.5374 52.9631 71.5111 52.2434C70.4939 51.5236 69.2019 51.396 68.0565 51.9154C66.9569 52.4165 66.2055 53.4278 66.0589 54.6214C65.7106 57.6736 63.8138 60.2338 60.9823 61.4639C58.1509 62.6939 54.9712 62.3385 52.4787 60.5163C49.9863 58.6941 48.7126 55.7785 49.0516 52.7171C49.3998 49.6649 51.2966 47.1047 54.1281 45.8747C57.601 44.3622 61.5871 45.2733 64.0521 48.1342C64.8401 49.1274 66.0497 49.6011 67.2868 49.4189C68.5238 49.2367 69.5409 48.4349 70.0083 47.2778C70.5031 46.0478 70.2282 44.6264 69.321 43.6607C65.7381 39.506 60.3776 37.5835 54.962 38.4946C49.5556 39.4057 45.1297 42.9864 43.1412 48.0705C43.0679 48.2618 42.8663 48.3802 42.6647 48.362L42.3898 48.3347C42.2615 48.3165 42.1424 48.2527 42.0691 48.1525C41.9958 48.0522 41.9683 47.9156 41.9958 47.7971C43.8193 38.932 47.6771 30.4221 53.1476 23.197L54.1556 21.8668C54.9162 20.8737 55.072 19.589 54.5863 18.441C54.1006 17.293 53.0652 16.5185 51.8189 16.3636C50.5911 16.2087 49.3723 16.7281 48.6209 17.7121L47.6221 19.0423C46.6691 20.2997 45.7528 21.6208 44.8914 22.951C44.754 23.1606 44.4791 23.2243 44.2591 23.0877C44.0484 22.951 43.9842 22.6777 44.1125 22.4681C44.7631 21.4021 44.7906 20.1174 44.195 19.0241C43.5994 17.9308 42.4906 17.2656 41.2352 17.2383C40.0257 17.1836 38.9169 17.7941 38.2571 18.7872C22.0379 42.9044 26.6379 59.2681 29.9917 71.2219C31.2013 75.5315 32.2459 79.2579 32.2459 82.7384V89.5718C32.2459 89.8269 32.0443 90.0273 31.7878 90.0273C31.5312 90.0273 31.3296 89.8269 31.3296 89.5718V82.7384C31.3296 79.3764 30.3033 75.7137 29.1029 71.4679C25.7033 59.3501 21.0391 42.7495 37.4874 18.2861C38.3213 17.0287 39.7233 16.2907 41.2444 16.3272C42.8297 16.3636 44.2225 17.211 44.9831 18.5868C45.2946 19.1516 45.4687 19.753 45.5145 20.3634C45.9544 19.7348 46.4125 19.1061 46.8707 18.4956L47.8787 17.1654C48.8225 15.9263 50.3711 15.2703 51.9197 15.4616C53.4958 15.653 54.8062 16.637 55.4202 18.0856C56.0341 19.5343 55.8417 21.1561 54.8795 22.4134L53.8715 23.7437C49.0424 30.1306 45.4962 37.5197 43.5077 45.2642C45.9452 41.2189 50.0046 38.4309 54.8062 37.62C60.5333 36.6542 66.2146 38.6951 69.9991 43.0775C71.1354 44.2893 71.4744 46.0842 70.8513 47.6422C70.2649 49.1091 68.982 50.1205 67.415 50.3482C65.8481 50.576 64.327 49.9747 63.3373 48.7447C61.1473 46.2027 57.5919 45.3918 54.4855 46.7402C51.9564 47.8427 50.2612 50.1205 49.9496 52.8538C49.6381 55.5872 50.7835 58.1838 53.0102 59.8147C55.2369 61.4456 58.0684 61.7554 60.6066 60.6621C63.1357 59.5596 64.831 57.2727 65.1425 54.5485C65.3349 53.0269 66.2788 51.7514 67.6716 51.1136C69.1194 50.4576 70.7505 50.6125 72.0334 51.5327C73.3254 52.4438 74.0035 53.9289 73.8569 55.496C73.1422 61.4912 69.2111 66.6117 63.5939 68.8712C56.0158 72.0419 54.8612 75.5588 54.8154 85.9911V89.5718C54.8154 89.8269 54.6138 90.0273 54.3572 90.0273L54.3664 90Z" fill="#255F6D"/>
    </g>
    <defs>
        <clipPath id="clip0_20_260">
            <rect width="89.3156" height="90" fill="white"/>
        </clipPath>
    </defs>
</svg>
