<svg width="28" height="28" viewBox="0 0 28 28" fill="none" xmlns="http://www.w3.org/2000/svg">
<mask id="mask0_243_2691" style="mask-type:alpha" maskUnits="userSpaceOnUse" x="0" y="0" width="28" height="28">
<rect width="28" height="28" fill="#D9D9D9"/>
</mask>
<g mask="url(#mask0_243_2691)">
<path d="M16.3334 24.4998V20.9123L22.7792 14.4957C22.9542 14.3207 23.1487 14.1943 23.3626 14.1165C23.5765 14.0387 23.7904 13.9998 24.0042 13.9998C24.2376 13.9998 24.4612 14.0436 24.6751 14.1311C24.889 14.2186 25.0834 14.3498 25.2584 14.5248L26.3376 15.604C26.4931 15.779 26.6147 15.9734 26.7022 16.1873C26.7897 16.4012 26.8334 16.6151 26.8334 16.829C26.8334 17.0429 26.7945 17.2616 26.7167 17.4853C26.639 17.7089 26.5126 17.9082 26.3376 18.0832L19.9209 24.4998H16.3334ZM4.66675 23.3332V20.0665C4.66675 19.4054 4.83689 18.7978 5.17716 18.2436C5.51744 17.6894 5.96953 17.2665 6.53341 16.9748C7.73897 16.3721 8.96397 15.92 10.2084 15.6186C11.4529 15.3172 12.7167 15.1665 14.0001 15.1665C14.7195 15.1665 15.4292 15.2103 16.1292 15.2978C16.8292 15.3853 17.5292 15.5262 18.2292 15.7207L14.0001 19.9498V23.3332H4.66675ZM24.0042 17.9665L25.0834 16.829L24.0042 15.7498L22.8959 16.8582L24.0042 17.9665ZM14.0001 13.9998C12.7167 13.9998 11.6181 13.5429 10.7042 12.629C9.79036 11.7151 9.33341 10.6165 9.33341 9.33317C9.33341 8.04984 9.79036 6.95123 10.7042 6.03734C11.6181 5.12345 12.7167 4.6665 14.0001 4.6665C15.2834 4.6665 16.382 5.12345 17.2959 6.03734C18.2098 6.95123 18.6667 8.04984 18.6667 9.33317C18.6667 10.6165 18.2098 11.7151 17.2959 12.629C16.382 13.5429 15.2834 13.9998 14.0001 13.9998Z" fill="#255F6D"/>
</g>
</svg>
