<svg width="30" height="23" viewBox="0 0 30 23" fill="none" xmlns="http://www.w3.org/2000/svg">
<g clip-path="url(#clip0_10_241)">
<mask id="mask0_10_241" style="mask-type:luminance" maskUnits="userSpaceOnUse" x="0" y="0" width="30" height="23">
<path d="M0.00146484 0H29.9985V22.5H0.00146484V0Z" fill="white"/>
</mask>
<g mask="url(#mask0_10_241)">
<path fill-rule="evenodd" clip-rule="evenodd" d="M-1.875 0H31.875V22.5H-1.875V0Z" fill="#165D31"/>
<path fill-rule="evenodd" clip-rule="evenodd" d="M6.62848 6.37646C6.59332 6.90381 6.54059 7.82666 6.99322 7.92334C7.53375 7.97607 7.23492 7.00928 7.43268 6.8335C7.46783 6.7456 7.53375 6.7456 7.53815 6.85547V7.67725C7.53815 7.94092 7.71393 8.02002 7.84576 8.07275C7.98639 8.06396 8.08307 8.07275 8.1358 8.20459L8.20612 9.62402C8.20612 9.62402 8.53131 9.7207 8.54889 8.82861C8.56207 8.30127 8.44342 7.86621 8.51373 7.76514C8.51373 7.66406 8.64557 7.65967 8.73346 7.70801C8.87408 7.80469 8.93561 7.92773 9.15533 7.88379C9.48932 7.78711 9.69147 7.62451 9.69586 7.36963C9.68927 7.11915 9.63715 6.87196 9.54205 6.64014C9.55963 6.59619 9.48053 6.47754 9.49811 6.43359C9.55524 6.53027 9.64752 6.52148 9.6651 6.43359C9.60797 6.24902 9.52008 6.06885 9.37946 5.99414C9.2608 5.88867 9.08502 5.90625 9.02789 6.12598C8.99274 6.37646 9.11578 6.6709 9.29596 6.91699C9.33551 7.00928 9.38824 7.16748 9.36627 7.3081C9.26959 7.36523 9.17291 7.33887 9.08942 7.25537C9.08942 7.25537 8.82574 7.05762 8.82574 7.00928C8.89606 6.56103 8.83893 6.5083 8.79938 6.38086C8.77301 6.20947 8.68951 6.15234 8.6236 6.03808C8.55768 5.96777 8.46979 5.96777 8.42584 6.03808C8.30719 6.24023 8.36432 6.67529 8.44781 6.87305C8.50934 7.05322 8.60162 7.16748 8.55768 7.16748C8.52252 7.26855 8.44781 7.24219 8.39069 7.12353C8.32637 6.87383 8.29534 6.61672 8.2984 6.35889C8.27643 6.15674 8.25006 5.72607 8.11383 5.61182C8.03473 5.50635 7.91608 5.55908 7.87213 5.65576C7.86053 5.85208 7.86494 6.04902 7.88531 6.24463C7.9732 6.56982 8.00397 6.85986 8.04791 7.18945C8.0611 7.6333 7.79303 7.38281 7.80621 7.15869C7.86386 6.87693 7.85936 6.58599 7.79303 6.30615C7.74908 6.19189 7.70074 6.16553 7.59088 6.1831C7.50738 6.1831 7.29205 6.41601 7.23053 6.81152C7.23053 6.81152 7.17779 7.01367 7.15582 7.19385C7.12506 7.396 6.99322 7.54541 6.89654 7.16748C6.81744 6.89062 6.76471 6.21826 6.63287 6.37646H6.62848Z" fill="white"/>
<path fill-rule="evenodd" clip-rule="evenodd" d="M8.10059 8.53418L6.69434 9.21094C6.70752 8.89014 7.35791 8.31445 7.80615 8.31006C8.0918 8.31445 8.02148 8.41992 8.09619 8.53418H8.10059Z" fill="white"/>
<path fill-rule="evenodd" clip-rule="evenodd" d="M7.85004 8.97363C7.11176 10.8853 9.58588 11.1533 9.86273 9.05274C9.8891 8.96484 9.99457 8.88135 10.0121 9.02197C9.95502 10.9248 8.09613 11.0522 7.77973 10.4546C7.70529 10.2489 7.66809 10.0317 7.66986 9.81299C7.62592 9.43945 7.42816 9.58447 7.3974 9.95361C7.36664 10.1602 7.37543 10.2173 7.37543 10.415C7.47211 11.918 9.86713 11.272 10.2582 10.0327C10.4648 9.34717 10.2231 8.8418 10.3329 8.8418C10.5703 9.09668 10.9042 8.87695 10.9789 8.78906C11.0097 8.74512 11.0888 8.71436 11.1415 8.77149C11.3261 8.90332 11.6513 8.8418 11.7216 8.60889C11.7612 8.37598 11.7919 8.13867 11.8007 7.89697C11.6469 7.94092 11.5371 7.97168 11.5239 8.0376L11.4931 8.23975C11.4799 8.30567 11.3525 8.30567 11.3437 8.22217C11.2866 7.9585 11.0493 7.92774 10.9042 8.33203C10.812 8.41113 10.6362 8.42871 10.6186 8.31006C10.6406 8.0376 10.5307 8.00244 10.311 8.12988L10.1 6.53906C10.1879 6.53906 10.2758 6.60498 10.3593 6.49951C10.2714 6.21387 10.0737 5.63379 9.96381 5.58985C9.91547 5.52832 9.87152 5.56787 9.80121 5.58545C9.68695 5.62061 9.58148 5.71729 9.61664 5.91065C9.74848 6.73682 9.83637 7.36524 9.9726 8.1958C9.99457 8.28809 9.91547 8.41553 9.81 8.40234C9.63422 8.28369 9.59027 8.04199 9.28266 8.05078C9.06293 8.05078 8.81684 8.29248 8.78607 8.521C8.74652 8.70557 8.73334 8.90332 8.78607 9.06152C8.93988 9.24609 9.12445 9.22852 9.28705 9.18897C9.41889 9.13184 9.52875 9 9.57709 9.03076C9.60785 9.07031 9.58148 9.50977 8.94867 9.84375C8.56635 10.0195 8.25873 10.0547 8.09613 9.74268C7.99506 9.54492 8.10492 8.80225 7.85004 8.97363Z" fill="white"/>
<path fill-rule="evenodd" clip-rule="evenodd" d="M11.001 7.03125C11.146 6.97851 11.8491 6.16992 11.8491 6.16992L11.7436 6.08203C11.7041 6.05127 11.7085 6.01611 11.7436 5.98535C11.9194 5.87988 11.8623 5.66015 11.7744 5.55469C11.7147 5.5256 11.6491 5.51085 11.5827 5.51161C11.5163 5.51238 11.451 5.52863 11.3921 5.55908C11.269 5.67773 11.2427 5.8667 11.3393 5.98096C11.4316 6.0249 11.5239 6.12158 11.4624 6.17431C11.1723 6.48193 10.3857 7.01367 10.478 7.03125C10.4956 7.05762 10.9834 7.05762 10.9966 7.03125H11.001ZM6.73826 9.88769C6.47458 10.3096 6.45261 10.938 6.59763 11.127C6.67673 11.2148 6.80417 11.2544 6.89646 11.2236C7.06345 11.1533 7.13816 10.8149 7.09861 10.6963C7.04148 10.6084 6.99753 10.5952 6.94041 10.6655C6.82615 10.9028 6.77781 10.7402 6.76462 10.6084C6.75203 10.3851 6.76382 10.1611 6.79978 9.94043C6.83054 9.75586 6.79978 9.80859 6.73826 9.88769ZM18.0366 9.21533C17.7817 8.66162 17.4258 8.1167 17.3159 7.91015C16.9734 7.36878 16.6099 6.84103 16.226 6.32812C15.9536 6.00293 16.6743 6.46435 16.1382 5.81396L15.747 5.48437C15.6592 5.42285 15.4482 5.30859 15.4131 5.49316C15.3955 5.66015 15.4043 5.74805 15.4306 5.88428C15.4526 5.97217 15.5844 6.12597 15.6504 6.21387C16.5513 7.40718 17.3426 8.67944 18.0146 10.0151C18.1289 9.95801 18.1025 9.30762 18.0366 9.21533Z" fill="white"/>
<path fill-rule="evenodd" clip-rule="evenodd" d="M16.9159 11.0522C16.8632 11.1094 17.039 11.3511 17.2675 11.3511C17.6454 11.3071 17.9794 11.0962 18.287 10.5337C18.412 10.3466 18.4917 10.1329 18.5199 9.90966C18.5571 8.84286 18.4716 7.7753 18.265 6.72802C18.2518 6.64013 18.265 6.53467 18.2738 6.5083C18.3002 6.47754 18.3837 6.5083 18.4276 6.43359C18.4935 6.36767 18.2518 5.81836 18.12 5.61181C18.0761 5.51513 18.0541 5.45361 17.975 5.6206C17.8795 5.80486 17.8341 6.01094 17.8432 6.21826C18.0233 7.4707 18.0805 8.56494 18.1947 9.81738C18.2079 9.94043 18.1903 10.1162 18.1068 10.1865C17.7752 10.5557 17.3694 10.8507 16.9159 11.0522ZM22.0355 11.0478C21.7631 11.2061 21.7631 11.3862 21.9828 11.3906C22.3607 11.3467 22.809 11.3159 23.1166 10.8501C23.2253 10.6307 23.2881 10.3914 23.3012 10.147C23.3565 9.09658 23.2872 8.04334 23.0946 7.00927C23.0858 6.92138 23.0463 6.71484 23.0595 6.68847C23.0858 6.62695 23.2089 6.69287 23.2528 6.62256C23.3143 6.55664 22.932 6.06445 22.7958 5.85351C22.7518 5.75683 22.7343 5.69531 22.6508 5.8623C22.5623 6.04826 22.5346 6.25738 22.5717 6.45996C22.7738 7.82226 22.9232 8.84179 22.954 10.0459C22.9364 10.1602 22.932 10.2217 22.8793 10.3667C22.7606 10.5161 22.6288 10.7095 22.5058 10.8018C22.3827 10.8896 22.119 10.9775 22.0355 11.0478Z" fill="white"/>
<path fill-rule="evenodd" clip-rule="evenodd" d="M22.2377 9.83056C22.2377 9.50976 22.2421 9.2373 22.2333 8.9956C22.2305 8.79091 22.1856 8.58898 22.1015 8.40234C22.0224 8.22217 22.0707 8.07715 22.0312 7.88379C21.996 7.69043 22.0048 7.40039 21.9521 7.17627C21.9345 7.08838 21.8905 6.80273 21.9037 6.77197C21.9257 6.71045 22.0092 6.77197 22.0531 6.70166C22.1147 6.63574 21.8334 5.91064 21.6928 5.7041C21.6445 5.61182 21.5478 5.64258 21.4379 5.79199C21.328 5.89307 21.3676 6.11719 21.4115 6.33252C21.6796 7.75195 21.8862 9.03955 21.8422 10.3887C21.8246 10.5029 22.2377 10.0459 22.2377 9.83056ZM20.2294 8.07275C20.058 8.06396 19.7021 7.73437 19.5966 7.54541C19.5793 7.49923 19.572 7.44993 19.575 7.40072C19.578 7.35151 19.5914 7.30348 19.6142 7.25976C19.6801 7.21582 19.7768 7.17187 19.8515 7.21582C19.8515 7.21582 19.9262 7.32129 19.913 7.33447C20.0009 7.37842 20.0448 7.35644 20.0536 7.31689C20.058 7.25098 20.0273 7.21142 20.0273 7.14111C20.0668 6.93896 20.2909 6.9082 20.3788 7.03564C20.4404 7.11475 20.4667 7.27734 20.4711 7.38721C20.4711 7.44434 20.3832 7.37842 20.3261 7.38721C20.2778 7.40478 20.2646 7.46631 20.2602 7.51904C20.2514 7.66406 20.2338 7.89697 20.2294 8.06836V8.07275ZM17.0741 10.1821C17.1181 9.75146 17.0566 8.98242 17.0522 8.72754C17.0287 8.07203 16.9744 7.41799 16.8896 6.76758C16.8368 6.39844 17.039 6.80713 17.0126 6.5918C16.9467 6.22705 16.7446 5.97656 16.5029 5.64697C16.4281 5.53711 16.4281 5.51514 16.3095 5.67334C16.1777 5.96777 16.2919 6.17432 16.3271 6.40723C16.4985 7.16309 16.5995 7.85742 16.6479 8.54736C16.6985 9.26407 16.7044 9.98324 16.6654 10.7007C16.7973 10.7051 16.9994 10.4941 17.0741 10.1821Z" fill="white"/>
<path fill-rule="evenodd" clip-rule="evenodd" d="M22.8224 9.49219C22.5191 8.98242 22.0665 8.4375 21.9435 8.23096C21.536 7.6619 21.108 7.10782 20.6603 6.56982C20.2867 6.17432 20.836 6.50391 20.5899 6.19629C20.3834 5.97217 20.3263 5.89746 20.1461 5.76123C20.0582 5.7041 20.0055 5.59424 19.9703 5.7832C19.9563 5.94688 19.9534 6.11132 19.9615 6.27539C19.9615 6.3501 20.0406 6.49512 20.1109 6.58301C21.0206 7.70361 22.0182 8.84619 22.818 10.2832C22.9322 10.2261 22.8927 9.58008 22.818 9.49219H22.8224Z" fill="white"/>
<path fill-rule="evenodd" clip-rule="evenodd" d="M9.13781 8.55615C9.11583 8.5957 9.06749 8.64404 9.08507 8.69238C9.11583 8.73633 9.14659 8.74951 9.19933 8.74951C9.24767 8.74951 9.31798 8.7627 9.33116 8.73633C9.35753 8.70557 9.37511 8.64844 9.35753 8.59131C9.3048 8.45947 9.16417 8.51221 9.13781 8.55615Z" fill="#165D31"/>
<path fill-rule="evenodd" clip-rule="evenodd" d="M19.3154 15.9302C19.7197 15.9478 19.9834 15.9522 20.3394 15.9917L20.7612 15.9478C21.227 15.9038 21.2446 16.6113 21.2446 16.6113C21.2446 17.0288 21.082 17.0508 20.8755 17.0947C20.7568 17.1123 20.6997 17.0244 20.6338 16.9365C20.5344 16.9684 20.4285 16.9744 20.3262 16.9541C20.1548 16.9453 19.9878 16.9453 19.8208 16.9321C19.645 16.9189 19.5483 16.9541 19.3682 16.9365C19.333 16.9937 19.2803 17.0728 19.1748 17.0508C19.0869 17.0376 18.9771 16.7871 19.0078 16.5894C19.0737 16.4487 19.0518 16.4971 19.0518 16.4356C17.3994 16.3916 15.7339 16.3169 14.1167 16.3389C12.8511 16.3433 11.603 16.396 10.3506 16.4487C9.68262 16.4399 9.17285 16.3345 8.82129 15.8203C8.85645 15.8203 10.5264 15.9126 11.0142 15.8818C11.915 15.8731 12.7412 15.7983 13.6597 15.772C15.4702 15.8027 17.2676 15.8027 19.0781 15.9302C18.9023 15.8115 18.9023 15.5347 19.166 15.4644C19.188 15.4468 19.2012 15.6006 19.2407 15.5962C19.4561 15.583 19.3594 15.8731 19.3154 15.9302ZM12.0381 5.9458C11.7656 6.72803 12.1963 7.58936 12.4951 7.50586C12.7148 7.59375 12.8467 7.18067 12.9346 6.73242C13.0005 6.60498 13.0444 6.5918 13.0752 6.65772C13.0664 7.25537 13.1191 7.3916 13.2729 7.57178C13.6157 7.83545 13.9014 7.60694 13.9233 7.58496L14.187 7.3169C14.2485 7.25098 14.3276 7.25098 14.4111 7.30371C14.4946 7.37842 14.4814 7.50586 14.6572 7.59375C14.8066 7.65528 15.1187 7.61133 15.1934 7.48389C15.29 7.3125 15.3164 7.25537 15.3604 7.19385C15.4307 7.10157 15.5493 7.14112 15.5493 7.17188C15.5361 7.22461 15.4658 7.27295 15.5142 7.36963C15.6021 7.43116 15.6196 7.3916 15.668 7.37842C15.8438 7.29053 15.9756 6.9126 15.9756 6.9126C15.98 6.77198 15.9009 6.78076 15.8481 6.81592L15.7119 6.90821C15.624 6.92139 15.4614 6.97852 15.3779 6.85108C15.2944 6.70166 15.2944 6.48633 15.2329 6.33252C15.2329 6.32373 15.1187 6.09082 15.2241 6.07764C15.2769 6.08643 15.3867 6.11719 15.4043 6.02491C15.457 5.93262 15.29 5.67334 15.1714 5.54151C15.0703 5.43164 14.9297 5.41846 14.7935 5.53272C14.6968 5.62061 14.71 5.71729 14.6924 5.80957C14.6757 5.87571 14.675 5.94486 14.6903 6.01132C14.7055 6.07779 14.7364 6.13968 14.7803 6.1919C14.877 6.37647 15.0483 6.61817 14.9912 6.96094C14.9912 6.96094 14.8901 7.11914 14.7144 7.09717C14.6396 7.08399 14.521 7.05323 14.4595 6.57862C14.4111 6.22705 14.4683 5.72608 14.3188 5.49317C14.2617 5.34815 14.2222 5.21192 14.0903 5.45362C14.0552 5.5503 13.9014 5.69532 14.0112 5.98975C14.1152 6.25507 14.1456 6.54355 14.0991 6.82471C14.0332 6.92139 14.02 6.95215 13.9365 7.04444C13.8223 7.17627 13.6948 7.14112 13.5981 7.09278C13.5103 7.03565 13.4399 7.00489 13.396 6.80713C13.4048 6.49951 13.4224 5.99414 13.3652 5.88867C13.2817 5.72168 13.1455 5.78321 13.0884 5.83594C12.827 6.12635 12.6519 6.48404 12.583 6.86866C12.5039 7.12354 12.4204 7.04883 12.3633 6.94776C12.2227 6.81592 12.2095 5.77442 12.0381 5.9458Z" fill="white"/>
<path fill-rule="evenodd" clip-rule="evenodd" d="M12.8643 7.65088C12.9917 7.56299 12.9346 7.50146 13.1192 7.68603C13.3574 8.10755 13.4957 8.57813 13.5235 9.06152C13.5147 9.17578 13.5938 9.24609 13.6334 9.21972C13.6509 8.95605 14.2969 8.58691 14.8902 8.53418C14.9781 8.5122 14.9341 8.34082 14.9473 8.25293C14.9122 7.92334 15.1319 7.62451 15.4395 7.60254C15.8614 7.66406 16.002 7.88818 16.0108 8.22656C15.9625 8.88574 15.2769 8.9956 14.8946 9.04834C14.8375 9.07031 14.8111 9.09668 14.8946 9.12744L16.503 9.13623L16.5865 9.18017C16.5953 9.22412 16.5601 9.18896 16.4986 9.29443C16.4101 9.44987 16.3547 9.62193 16.336 9.7998C15.857 9.958 15.3604 10.0195 14.8594 10.0854C14.6836 10.1733 14.5958 10.292 14.6309 10.4238C14.6924 10.5688 15.0792 10.7183 15.0792 10.7227C15.1539 10.7666 15.2374 10.8765 15.0572 11.1006C14.275 11.0654 13.6641 10.7314 13.4532 10.2612C13.3917 10.2129 13.3213 10.2612 13.2774 10.3228C12.9698 10.7183 12.6709 11.0698 12.148 11.2632C11.8404 11.3423 11.5196 11.2148 11.3702 11.0127C11.2691 10.894 11.2735 10.7666 11.2383 10.7402C11.0669 10.8149 9.61675 11.4302 9.80132 11.1401C10.1529 10.7666 10.7681 10.4853 11.3043 10.1162C11.3438 9.98877 11.4141 9.56689 11.6251 9.43066C11.6382 9.43066 11.5943 9.67676 11.5987 9.78222C11.5987 9.87011 11.5899 9.90088 11.6075 9.8789C11.647 9.85693 12.2974 9.34277 12.3545 9.18457C12.4161 9.09668 12.3677 8.86816 12.3677 8.85937C12.2447 8.54297 12.0733 8.5166 12.0118 8.3584C11.9546 8.15185 11.981 7.91455 12.0997 7.84424C12.2051 7.75195 12.3282 7.76074 12.4468 7.86621C12.5787 7.98486 12.6929 8.21777 12.7281 8.38916C12.7061 8.45508 12.5523 8.34521 12.5084 8.37597C12.5929 8.47318 12.6492 8.59175 12.6709 8.71875C12.7588 9.0791 12.7325 9.21972 12.6446 9.45263C12.3545 10.0635 11.9854 10.2436 11.6602 10.4722C11.6514 10.4722 11.647 10.626 11.7657 10.7095C11.8096 10.7534 11.981 10.7754 12.1788 10.7095C12.6012 10.4748 12.9429 10.1179 13.1587 9.68554C13.1961 9.35655 13.1601 9.02337 13.0533 8.70996C12.9258 8.41552 12.7764 7.99804 12.7764 7.98926C12.772 7.80468 12.7852 7.74316 12.8643 7.65088ZM8.65435 5.95459C8.83892 6.04248 9.19048 6.00293 9.1729 5.7041L9.16411 5.56787C9.12896 5.47998 9.02349 5.50195 9.00152 5.58984C8.99273 5.6206 9.0147 5.66894 8.98833 5.68213C8.97075 5.6997 8.91363 5.69092 8.91363 5.60742C8.91363 5.58105 8.89605 5.55468 8.88286 5.53711C8.87407 5.52832 8.86529 5.52832 8.84331 5.52832C8.81695 5.52832 8.81695 5.53271 8.80376 5.55468C8.79937 5.57666 8.79058 5.59863 8.79058 5.625C8.79058 5.65576 8.773 5.66455 8.75542 5.66894C8.72906 5.66894 8.73345 5.66894 8.71148 5.66015C8.70269 5.64697 8.6895 5.64258 8.6895 5.61621L8.67632 5.5459C8.66753 5.53271 8.64995 5.52392 8.63238 5.51953C8.5313 5.51953 8.52251 5.63818 8.5313 5.68213C8.52251 5.69092 8.51812 5.89746 8.65435 5.95459Z" fill="white"/>
<path fill-rule="evenodd" clip-rule="evenodd" d="M14.0816 8.24854C14.2662 8.33643 14.71 8.28809 14.6002 8.00244L14.5914 7.86182C14.5518 7.77393 14.4507 7.7959 14.4288 7.88818C14.42 7.91455 14.442 7.96289 14.4112 7.97607C14.398 7.99365 14.3365 7.98486 14.3409 7.90576C14.3409 7.87939 14.3233 7.84863 14.3101 7.83106C14.2969 7.82666 14.2925 7.82227 14.2662 7.82227C14.2442 7.82227 14.2442 7.83106 14.231 7.85303C14.2222 7.875 14.2178 7.89697 14.2178 7.92334C14.2134 7.94971 14.2003 7.9585 14.1783 7.96729C14.1563 7.96729 14.1607 7.96729 14.1431 7.9541C14.1299 7.94092 14.1168 7.93652 14.1168 7.91455L14.1036 7.84424C14.0948 7.83106 14.0772 7.82227 14.0596 7.81787C13.9586 7.81787 13.9498 7.93213 13.9542 7.97607C13.9498 7.98486 13.9454 8.1958 14.086 8.24854H14.0816ZM17.2457 7.29932C17.4302 7.38721 17.7774 7.34766 17.7642 7.05322L17.7554 6.9126C17.7159 6.82471 17.6148 6.84668 17.5928 6.93457C17.584 6.96533 17.606 7.01367 17.5753 7.03125C17.5621 7.04443 17.5006 7.03565 17.5049 6.95215C17.5049 6.92578 17.4874 6.89941 17.4742 6.88184C17.461 6.87305 17.4566 6.87305 17.4302 6.87305C17.4083 6.87305 17.4083 6.88184 17.3951 6.90381L17.3819 6.96973C17.3775 7.00049 17.3643 7.01367 17.3423 7.01367C17.3204 7.01367 17.3248 7.01367 17.3072 7.00488C17.294 6.9917 17.2808 6.98731 17.2808 6.96533C17.2808 6.94336 17.2764 6.9082 17.2676 6.89063C17.2589 6.87744 17.2413 6.87305 17.2237 6.86865C17.1226 6.86865 17.1138 6.98291 17.1182 7.02686C17.1138 7.03564 17.1094 7.24219 17.2501 7.29932H17.2457ZM18.8848 9.68555C18.564 10.0503 18.7047 10.6523 18.7794 10.7842C18.8848 10.9951 18.9683 11.1313 19.1749 11.2368C19.3638 11.373 19.5132 11.2896 19.5924 11.1929C19.7813 10.9951 19.7857 10.4897 19.8736 10.3931C19.9351 10.2085 20.0933 10.2393 20.168 10.3228C20.2379 10.422 20.3316 10.5021 20.4405 10.5557C20.6163 10.7095 20.8272 10.7402 21.0382 10.5996C21.1788 10.5161 21.2711 10.415 21.3546 10.2085C21.4424 9.9624 21.3985 8.81982 21.3765 8.14307L21.192 7.19824C21.192 7.18945 21.17 6.75 21.148 6.64893C21.148 6.60498 21.1348 6.5918 21.1788 6.59619C21.2271 6.64014 21.2315 6.64014 21.2667 6.65332C21.3106 6.66211 21.3546 6.57861 21.3238 6.5083L20.8843 5.69092C20.8492 5.65576 20.8008 5.62061 20.7437 5.69971C20.71 5.73022 20.6832 5.76755 20.665 5.80922C20.6468 5.85089 20.6377 5.89595 20.6382 5.94141C20.6514 6.13477 20.6822 6.33252 20.6954 6.52588L20.8712 7.51904C20.9283 8.22217 20.9415 8.80225 20.9986 9.50977C20.9898 9.80859 20.8975 10.0679 20.8096 10.1074C20.8096 10.1074 20.6778 10.1821 20.5899 10.0986C20.524 10.0723 20.2647 9.66357 20.2647 9.66357C20.1329 9.54492 20.045 9.57568 19.9527 9.66357C19.689 9.91846 19.5748 10.3843 19.3946 10.7095C19.3507 10.7842 19.2188 10.8413 19.0782 10.7051C18.7178 10.2085 18.9288 9.50537 18.8848 9.68555ZM17.3292 5.56787C17.4962 5.63379 17.6104 5.97217 17.5753 6.13916C17.5401 6.33691 17.4522 6.55664 17.3907 6.53027C17.3204 6.50391 17.4346 6.32813 17.3687 6.14356C17.3336 6.02051 17.105 5.80078 17.1314 5.73926C17.0875 5.60303 17.2281 5.5415 17.3292 5.56348V5.56787Z" fill="white"/>
<path fill-rule="evenodd" clip-rule="evenodd" d="M19.421 9.88769C19.4517 9.4834 19.3946 9.2373 19.3858 9C19.377 8.76269 19.1177 6.95215 19.065 6.77636C18.9991 6.43359 19.3155 6.73242 19.2803 6.53027C19.1705 6.28418 18.9024 5.91943 18.8189 5.7041C18.7662 5.61621 18.7881 5.52832 18.6739 5.68213C18.5755 5.9518 18.5409 6.24059 18.5728 6.52588C18.8453 7.94531 19.1221 9.12304 19.0782 10.4722C19.21 10.4722 19.355 10.1777 19.421 9.88769ZM22.251 6.13916C22.4048 6.21386 22.4927 6.63574 22.4752 6.75439C22.4444 6.97412 22.3653 7.21142 22.3082 7.18066C22.2422 7.15429 22.3213 6.85547 22.2906 6.76318C22.2554 6.63134 22.0489 6.39404 22.0709 6.32373C22.0269 6.17431 22.1587 6.11279 22.251 6.13916ZM11.0142 9.12304C11.1592 9.18017 11.2471 9.48779 11.2339 9.57568C11.1988 9.73828 11.1241 9.91406 11.0669 9.88769C11.0098 9.87011 11.0801 9.65039 11.0538 9.58008C11.0406 9.41748 10.8384 9.32959 10.8428 9.25927C10.8077 9.12744 10.9307 9.10547 11.0186 9.12304H11.0142Z" fill="white"/>
<path fill-rule="evenodd" clip-rule="evenodd" d="M14.5121 9.58887C14.6967 9.59766 14.789 9.74707 14.6176 9.80859C14.4418 9.86572 14.2792 9.91406 14.2748 10.1602C14.3408 10.5117 14.187 10.3887 14.0991 10.3447C13.9936 10.2656 13.6948 10.0811 13.6508 9.68555C13.6464 9.59326 13.7211 9.50977 13.8398 9.50977C14.0156 9.55811 14.2792 9.5625 14.5121 9.58887Z" fill="#165D31"/>
<path fill-rule="evenodd" clip-rule="evenodd" d="M7.15147 5.4668C7.3624 5.52832 7.37559 5.84473 7.3624 5.93701C7.33164 6.10401 7.25693 6.28418 7.2042 6.26221C7.14268 6.24024 7.2042 6.01172 7.17344 5.94141C7.14268 5.84473 6.9625 5.66016 6.98008 5.60742C6.94053 5.49756 7.06797 5.44483 7.15147 5.4668ZM11.3658 6.94336C11.1988 7.03125 11.1373 7.29492 11.2384 7.45313C11.3351 7.58496 11.4845 7.53662 11.5021 7.53662C11.6646 7.5542 11.7613 7.2334 11.7613 7.2334C11.7613 7.2334 11.7657 7.14551 11.5768 7.3169C11.4933 7.33008 11.4889 7.29932 11.4669 7.25537C11.4468 7.17171 11.4545 7.08377 11.4889 7.00488C11.5196 6.92578 11.4581 6.89063 11.3658 6.94336ZM12.5963 5.34375C12.5084 5.40088 12.3458 5.57227 12.3414 5.76563C12.337 5.87549 12.315 5.87549 12.3854 5.94141C12.4425 6.02051 12.4908 6.01612 12.5963 5.95899C12.6226 5.94244 12.6451 5.92062 12.6625 5.8949C12.6799 5.86918 12.6918 5.84012 12.6974 5.80957C12.7237 5.68652 12.5655 5.8711 12.5479 5.73047C12.5128 5.59863 12.6139 5.5459 12.7105 5.42285C12.7105 5.33496 12.7105 5.27783 12.5919 5.34375H12.5963ZM13.5807 5.51953C13.5419 5.67955 13.5184 5.84288 13.5104 6.00733C13.484 6.13037 13.6422 6.18311 13.7081 6.0249C13.8136 5.73926 13.8136 5.61621 13.8224 5.49756C13.7916 5.3086 13.6642 5.31299 13.5807 5.51953ZM19.8209 8.69678C19.8385 8.67481 20.6998 8.06397 20.6998 8.06397C20.7877 8.0332 20.7657 8.38037 20.7262 8.37598C20.4591 8.63342 20.1518 8.84566 19.8165 9.0044C19.7726 9.03516 19.733 8.77149 19.8165 8.69678H19.8209ZM20.5987 8.68799C20.7525 8.7627 20.8141 9.20654 20.7965 9.3252C20.7965 9.5625 20.6515 9.74707 20.5899 9.7207C20.5284 9.68994 20.5987 9.42627 20.568 9.33399C20.5328 9.20215 20.4054 8.96045 20.4273 8.89014C20.3834 8.74072 20.5064 8.66162 20.6031 8.68799H20.5987ZM15.5011 10.5952C15.5724 10.512 15.6552 10.4395 15.7472 10.3799C15.8351 10.3359 15.9142 10.415 15.9098 10.4106C15.9229 10.4985 15.857 10.5732 15.879 10.6875C15.8966 10.7314 15.9098 10.7842 15.9933 10.7666C16.1295 10.6567 16.2569 10.648 16.3888 10.6436C16.4986 10.648 16.503 10.8281 16.4327 10.8281C16.1822 10.8809 16.0724 10.9512 15.8922 11.0171C15.8043 11.0698 15.734 11.0039 15.734 10.9995C15.734 10.9951 15.6856 10.9512 15.7164 10.8369C15.7252 10.749 15.69 10.6963 15.6109 10.7051C15.5582 10.7402 15.5055 10.7578 15.4791 10.6919C15.4659 10.648 15.4615 10.6216 15.5011 10.5952ZM21.504 10.8325C21.5392 10.8765 21.5655 10.9204 21.4996 10.9995L21.337 11.1401C21.3106 11.1841 21.2931 11.2632 21.381 11.2852C21.5392 11.3291 21.9083 11.0874 21.9083 11.083C21.9698 11.0391 21.9522 10.9512 21.9435 10.9512C21.9083 10.9116 21.8292 10.938 21.7765 10.9292C21.7501 10.9292 21.6666 10.9204 21.7062 10.8413C21.7357 10.8025 21.7594 10.7595 21.7765 10.7139C21.7984 10.6611 21.7765 10.626 21.6886 10.5952C21.5963 10.5776 21.5567 10.5864 21.4557 10.5952C21.4029 10.604 21.3854 10.6304 21.3722 10.6963C21.3766 10.7974 21.4381 10.793 21.504 10.8281V10.8325Z" fill="white"/>
<path fill-rule="evenodd" clip-rule="evenodd" d="M15.5318 8.33642C15.5099 8.38037 15.4308 8.38037 15.3561 8.33642C15.2814 8.29248 15.2374 8.22216 15.2638 8.18261C15.2901 8.14306 15.3648 8.14306 15.4396 8.18261C15.5143 8.22216 15.5538 8.29687 15.5318 8.33642ZM11.6207 5.98095C11.5768 5.99414 11.5152 5.95459 11.4889 5.89306C11.4625 5.83154 11.4757 5.77881 11.5196 5.76562C11.5636 5.75244 11.6207 5.79638 11.6515 5.85351C11.6822 5.91064 11.6647 5.97216 11.6163 5.98535L11.6207 5.98095ZM19.3595 16.4795C19.7726 16.4971 20.1593 16.4795 20.568 16.5015C20.6427 16.5674 20.5899 16.7212 20.5416 16.7124L20.1988 16.6992C20.1944 16.5674 19.8605 16.5894 19.8692 16.7036C19.6891 16.7256 19.5265 16.6992 19.3419 16.6904C19.2892 16.6245 19.298 16.5059 19.3595 16.4795Z" fill="#165D31"/>
</g>
</g>
<defs>
<clipPath id="clip0_10_241">
<rect width="30" height="22.5" fill="white"/>
</clipPath>
</defs>
</svg>
