<svg width="220" height="220" viewBox="0 0 220 220" fill="none" xmlns="http://www.w3.org/2000/svg">
<mask id="mask0_391_3230" style="mask-type:alpha" maskUnits="userSpaceOnUse" x="0" y="0" width="220" height="220">
<rect width="220" height="220" rx="20" fill="white"/>
</mask>
<g mask="url(#mask0_391_3230)">
<path d="M18.1499 102.339C18.1173 171.882 93.3795 215.382 153.622 180.639C181.607 164.499 198.844 134.645 198.828 102.339C198.861 32.796 123.599 -10.7038 63.3563 24.0394C35.3715 40.179 18.1347 70.0338 18.1499 102.339Z" fill="#1AE584"/>
<path d="M97.0339 162.589C93.6079 165.358 86.9273 165.541 81.9835 160.893L71.8203 151.859C80.2737 148.923 87.8803 148.97 94.5315 152.01C100.2 154.585 99.9497 160.22 97.0339 162.589Z" fill="white" stroke="#255F6D" stroke-linecap="round" stroke-linejoin="round"/>
<path d="M79.9395 161.577C82.7061 162.597 84.1217 165.667 83.1013 168.434L77.1029 184.717C75.5737 188.532 70.4881 189.261 67.9489 186.029C66.8389 184.616 66.5139 182.74 67.0843 181.036L73.0737 164.741C74.0941 161.97 77.1697 160.552 79.9395 161.577Z" fill="white" stroke="#255F6D" stroke-linecap="round" stroke-linejoin="round"/>
<path d="M75.1563 158.361C77.2309 160.451 77.2217 163.826 75.1359 165.904L65.3951 175.889C62.4803 178.787 57.5213 177.443 56.4687 173.47C55.9803 171.626 56.5125 169.661 57.8653 168.316L67.6083 158.341C69.6983 156.262 73.0777 156.271 75.1563 158.361Z" fill="white" stroke="#255F6D" stroke-linecap="round" stroke-linejoin="round"/>
<path d="M128.919 185.603C122.941 177.556 125.843 163.607 114.165 152.053C99.4416 137.486 77.0872 132.966 50.7014 150.797C48.3622 152.336 47.5498 155.385 48.8132 157.884C50.3122 160.659 53.8774 161.535 56.492 159.772C58.2378 158.598 59.9544 157.534 61.6436 156.565C61.9468 157.182 62.3664 157.734 62.879 158.191C78.2028 179.482 81.6402 182.644 85.954 186.059C92.691 191.393 95.5818 193.835 99.6698 200.775L103.417 206.873L133.362 191.741L128.919 185.603ZM97.034 162.589C93.608 165.358 86.9274 165.541 81.9836 160.893L71.8204 151.847C80.2738 148.925 87.8804 148.961 94.5316 152.001C100.2 154.585 99.9498 160.22 97.034 162.589Z" fill="white"/>
<path d="M133.375 191.746L128.922 185.603C122.943 177.556 125.845 163.607 114.167 152.053C99.4438 137.486 77.0894 132.966 50.7036 150.797C48.3644 152.336 47.552 155.385 48.8154 157.884C50.3146 160.659 53.8796 161.535 56.4944 159.772C58.2394 158.598 59.9581 157.528 61.6504 156.563C64.9078 154.724 68.3062 153.147 71.8136 151.847C80.2672 148.925 87.8736 148.961 94.5248 152.001C100.185 154.585 99.9452 160.22 97.0092 162.589C93.583 165.358 86.9026 165.541 81.9586 160.893L71.7956 151.847C68.2882 153.147 64.8898 154.724 61.6324 156.563C61.9362 157.179 62.3556 157.731 62.8678 158.189C78.1916 179.48 81.629 182.642 85.9426 186.057C92.6796 191.393 95.5706 193.833 99.6584 200.773L103.405 206.871" stroke="#255F6D" stroke-linecap="round" stroke-linejoin="round"/>
<path d="M97.034 162.589C93.608 165.358 86.9275 165.541 81.9837 160.893L69.9979 150.217C66.9787 147.426 62.0701 148.949 61.1625 152.96C60.7257 154.89 61.3915 156.903 62.8927 158.191C78.2143 179.482 81.6517 182.644 85.9653 186.059" stroke="#255F6D" stroke-linecap="round" stroke-linejoin="round"/>
<path d="M89.4025 159.21H59.7035C57.2089 159.21 55.1865 157.188 55.1865 154.693V128.777H93.9195V154.693C93.9195 157.188 91.8971 159.21 89.4025 159.21Z" fill="#0EC4B6"/>
<path d="M89.4025 159.21H59.7035C57.2089 159.21 55.1865 157.188 55.1865 154.693V128.777H93.9195V154.693C93.9195 157.188 91.8971 159.21 89.4025 159.21Z" stroke="#255F6D" stroke-linecap="round" stroke-linejoin="round"/>
<path d="M44.1201 26.4114H104.986V128.777H44.1201V26.4114Z" fill="white" stroke="#255F6D" stroke-linecap="round" stroke-linejoin="round"/>
<path d="M104.986 67.911V33.1868C104.986 29.4448 101.953 26.4114 98.2107 26.4114H50.8955C47.1535 26.4114 44.1201 29.4448 44.1201 33.1868V67.911H104.986Z" fill="#0EC4B6"/>
<path d="M52.4199 34.7112H96.6861V56.8444H52.4199V34.7112Z" fill="white"/>
<path d="M52.4199 81.7442C52.4199 86.0036 57.0311 88.6658 60.7199 86.5362C62.4319 85.5476 63.4865 83.721 63.4865 81.7442C63.4865 77.4846 58.8755 74.8224 55.1865 76.9522C53.4745 77.9406 52.4199 79.7674 52.4199 81.7442Z" fill="#0EC4B6" stroke="#255F6D" stroke-linecap="round" stroke-linejoin="round"/>
<path d="M52.4199 98.344C52.4199 102.603 57.0311 105.266 60.7199 103.136C62.4319 102.148 63.4865 100.321 63.4865 98.344C63.4865 94.0844 58.8755 91.4222 55.1865 93.552C53.4745 94.5404 52.4199 96.3672 52.4199 98.344Z" fill="#0EC4B6" stroke="#255F6D" stroke-linecap="round" stroke-linejoin="round"/>
<path d="M52.4199 114.944C52.4199 119.203 57.0311 121.866 60.7199 119.736C62.4319 118.747 63.4865 116.921 63.4865 114.944C63.4865 110.684 58.8755 108.022 55.1865 110.152C53.4745 111.14 52.4199 112.967 52.4199 114.944Z" fill="#0EC4B6" stroke="#255F6D" stroke-linecap="round" stroke-linejoin="round"/>
<path d="M69.0198 81.7442C69.0198 86.0036 73.631 88.6658 77.3198 86.5362C79.0318 85.5476 80.0864 83.721 80.0864 81.7442C80.0864 77.4846 75.4754 74.8224 71.7864 76.9522C70.0744 77.9406 69.0198 79.7674 69.0198 81.7442Z" fill="#0EC4B6" stroke="#255F6D" stroke-linecap="round" stroke-linejoin="round"/>
<path d="M69.0198 98.344C69.0198 102.603 73.631 105.266 77.3198 103.136C79.0318 102.148 80.0864 100.321 80.0864 98.344C80.0864 94.0844 75.4754 91.4222 71.7864 93.552C70.0744 94.5404 69.0198 96.3672 69.0198 98.344Z" fill="#0EC4B6" stroke="#255F6D" stroke-linecap="round" stroke-linejoin="round"/>
<path d="M69.0198 114.944C69.0198 119.203 73.631 121.866 77.3198 119.736C79.0318 118.747 80.0864 116.921 80.0864 114.944C80.0864 110.684 75.4754 108.022 71.7864 110.152C70.0744 111.14 69.0198 112.967 69.0198 114.944Z" fill="#0EC4B6" stroke="#255F6D" stroke-linecap="round" stroke-linejoin="round"/>
<path d="M85.6196 81.7442C85.6196 86.0036 90.2308 88.6658 93.9196 86.5362C95.6316 85.5476 96.6862 83.721 96.6862 81.7442C96.6862 77.4846 92.0752 74.8224 88.3864 76.9522C86.6744 77.9406 85.6196 79.7674 85.6196 81.7442Z" fill="#0EC4B6" stroke="#255F6D" stroke-linecap="round" stroke-linejoin="round"/>
<path d="M85.6196 98.344C85.6196 102.603 90.2308 105.266 93.9196 103.136C95.6316 102.148 96.6862 100.321 96.6862 98.344C96.6862 94.0844 92.0752 91.4222 88.3864 93.552C86.6744 94.5404 85.6196 96.3672 85.6196 98.344Z" fill="#0EC4B6" stroke="#255F6D" stroke-linecap="round" stroke-linejoin="round"/>
<path d="M85.6196 114.944C85.6196 119.203 90.2308 121.866 93.9196 119.736C95.6316 118.747 96.6862 116.921 96.6862 114.944C96.6862 110.684 92.0752 108.022 88.3864 110.152C86.6744 111.14 85.6196 112.967 85.6196 114.944Z" fill="#0EC4B6" stroke="#255F6D" stroke-linecap="round" stroke-linejoin="round"/>
<path d="M104.986 33.1868C104.986 29.4448 101.953 26.4114 98.2107 26.4114H50.8955C47.1535 26.4114 44.1201 29.4448 44.1201 33.1868V67.911H104.986V33.1868Z" stroke="#255F6D" stroke-linecap="round" stroke-linejoin="round"/>
<path d="M52.4199 34.7112H96.6861V56.8444H52.4199V34.7112Z" stroke="#255F6D" stroke-linecap="round" stroke-linejoin="round"/>
<path d="M76.8635 147.915C76.8635 152.35 81.6647 155.122 85.5055 152.905C87.2881 151.876 88.3863 149.974 88.3863 147.915C88.3863 143.48 83.5851 140.708 79.7441 142.926C77.9615 143.955 76.8635 145.857 76.8635 147.915Z" fill="white"/>
<path d="M76.8635 141.192C76.8635 145.627 81.6647 148.399 85.5055 146.181C87.2881 145.152 88.3863 143.25 88.3863 141.192C88.3863 136.757 83.5851 133.985 79.7441 136.202C77.9615 137.232 76.8635 139.134 76.8635 141.192Z" fill="white"/>
<path d="M82.6249 146.956C84.4795 146.955 86.2207 146.061 87.3021 144.555C85.0045 141.354 80.2431 141.354 77.9453 144.555C79.0269 146.063 80.7691 146.957 82.6249 146.956Z" fill="#0EC4B6"/>
<path d="M88.3865 141.192C88.4041 136.757 83.6139 133.966 79.7643 136.168C76.7879 137.871 75.9485 141.78 77.9635 144.555C75.3583 148.144 77.6155 153.208 82.0267 153.669C86.4377 154.131 89.6941 149.644 87.8883 145.593C87.7251 145.227 87.5243 144.879 87.2889 144.555C88.0005 143.578 88.3847 142.401 88.3865 141.192Z" stroke="#255F6D" stroke-linecap="round" stroke-linejoin="round"/>
<path d="M97.034 162.589C93.6081 165.358 86.9275 165.541 81.9837 160.893L69.9979 150.217C66.9787 147.426 62.0701 148.949 61.1625 152.96C60.7257 154.89 61.3915 156.903 62.8927 158.191C78.2143 179.482 81.6517 182.644 85.9653 186.059" fill="white"/>
<path d="M97.034 162.589C93.608 165.358 86.9275 165.541 81.9837 160.893L69.9979 150.217C66.9787 147.426 62.0701 148.949 61.1625 152.96C60.7257 154.89 61.3915 156.903 62.8927 158.191C78.2143 179.482 81.6517 182.644 85.9653 186.059" stroke="#255F6D" stroke-linecap="round" stroke-linejoin="round"/>
<path d="M122.286 62.5742V91.0988C122.511 110.406 134.773 127.515 152.983 133.933L157.171 135.476C159.967 136.503 163.038 136.503 165.834 135.476L170.021 133.933C188.232 127.516 200.495 110.406 200.721 91.0988V62.5742C200.715 60.2834 199.341 58.2178 197.232 57.3254C185.918 52.6016 173.762 50.2258 161.502 50.3422C149.243 50.226 137.089 52.6018 125.775 57.3254C123.666 58.2178 122.293 60.2834 122.286 62.5742Z" fill="#0EC4B6"/>
<path d="M122.286 62.5742V91.0988C122.511 110.406 134.773 127.515 152.983 133.933L157.171 135.476C159.967 136.503 163.038 136.503 165.834 135.476L170.021 133.933C188.232 127.516 200.495 110.406 200.721 91.0988V62.5742C200.715 60.2834 199.341 58.2178 197.232 57.3254C185.918 52.6016 173.762 50.2258 161.502 50.3422C149.243 50.226 137.089 52.6018 125.775 57.3254C123.666 58.2178 122.293 60.2834 122.286 62.5742Z" stroke="#255F6D" stroke-linecap="round" stroke-linejoin="round"/>
<path d="M151.633 84.9174V78.0086C151.748 70.4102 160.045 65.7856 166.568 69.6844C169.504 71.4392 171.322 74.5886 171.374 78.0086V84.9174H178.283V78.0086C178.132 65.0918 164.055 57.1818 152.944 63.7706C147.908 66.7574 144.792 72.1534 144.724 78.0086V84.9174H151.633Z" fill="white"/>
<path d="M140.776 84.9174H182.228V115.174H140.776V84.9174Z" fill="white"/>
<path d="M165.446 96.7608C165.459 93.7218 162.178 91.8078 159.539 93.3156C156.901 94.8232 156.884 98.622 159.509 100.153C159.514 100.156 159.519 100.159 159.524 100.162V104.656C159.519 106.176 161.161 107.131 162.479 106.375C163.095 106.022 163.474 105.366 163.472 104.656V100.162C164.691 99.463 165.444 98.166 165.446 96.7608Z" fill="#0EC4B6" stroke="#255F6D" stroke-linecap="round" stroke-linejoin="round"/>
<path d="M140.776 84.9174H182.228V115.174H140.776V84.9174Z" stroke="#255F6D" stroke-linecap="round" stroke-linejoin="round"/>
<path d="M151.633 84.9174V78.0086C151.748 70.4102 160.045 65.7856 166.568 69.6844C169.504 71.4392 171.322 74.5886 171.374 78.0086V84.9174H178.283V78.0086C178.132 65.0918 164.055 57.1818 152.944 63.7706C147.908 66.7574 144.792 72.1534 144.724 78.0086V84.9174H151.633Z" stroke="#255F6D" stroke-linecap="round" stroke-linejoin="round"/>
<path d="M76.8635 141.192C76.8635 145.627 81.6647 148.399 85.5055 146.181C87.2881 145.152 88.3863 143.25 88.3863 141.192C88.3863 136.757 83.5851 133.985 79.7441 136.202C77.9615 137.232 76.8635 139.134 76.8635 141.192Z" stroke="#255F6D" stroke-linecap="round" stroke-linejoin="round"/>
<path d="M76.8635 147.915C76.8635 152.35 81.6647 155.122 85.5055 152.905C87.2881 151.876 88.3863 149.974 88.3863 147.915C88.3863 143.48 83.5851 140.708 79.7441 142.926C77.9615 143.955 76.8635 145.857 76.8635 147.915Z" stroke="#255F6D" stroke-linecap="round" stroke-linejoin="round"/>
</g>
</svg>
