<svg width="200" height="200" viewBox="0 0 200 200" fill="none" xmlns="http://www.w3.org/2000/svg">
<path d="M99.5343 184.574C149.95 184.574 190.821 143.703 190.821 93.287C190.821 42.8714 149.95 2 99.5343 2C49.1187 2 8.24731 42.8714 8.24731 93.287C8.24731 143.703 49.1189 184.574 99.5343 184.574Z" fill="#1AE584"/>
<path d="M101.789 112.323H79.1045V172.816H94.2261L95.9537 133.106C96.0803 130.07 99.4465 128.309 102.013 129.937C103.106 130.63 103.789 131.814 103.843 133.106L105.571 172.816H120.692V112.323H101.789Z" fill="#0EC4B6" stroke="#255F6D" stroke-linecap="round" stroke-linejoin="round"/>
<path d="M101.789 112.323H79.1045V172.816H94.2261L95.9537 133.106C96.0803 130.07 99.4465 128.309 102.013 129.937C103.106 130.63 103.789 131.814 103.843 133.106L105.571 172.816H120.692V112.323H101.789Z" stroke="#255F6D" stroke-linecap="round" stroke-linejoin="round"/>
<path d="M99.8972 57.498H99.863C81.0788 57.5092 65.8574 72.7408 65.8586 91.5252V114.009C65.8586 115.744 67.266 117.151 69.0012 117.149H79.093V134.06H89.3012C93.5492 134.06 97.5174 131.942 99.8814 128.412C102.244 131.942 106.212 134.06 110.459 134.06H120.658V117.149H130.75C132.485 117.149 133.891 115.744 133.893 114.009V91.5252C133.893 72.745 118.678 57.5156 99.8972 57.498Z" fill="#0EC4B6"/>
<path d="M113.316 60.2616L99.8975 106.649L86.4783 60.248C90.7067 58.4316 95.2611 57.4958 99.8631 57.498H99.8975C104.512 57.498 109.078 58.4382 113.316 60.2616Z" fill="white" stroke="#255F6D" stroke-linecap="round" stroke-linejoin="round"/>
<path d="M79.1044 123.478C79.0168 127.844 74.2352 130.479 70.4974 128.22C68.832 127.213 67.7988 125.423 67.7598 123.478V117.149H79.1044V123.478Z" fill="white" stroke="#255F6D" stroke-linecap="round" stroke-linejoin="round"/>
<path d="M132.069 123.478C132.069 127.844 127.342 130.574 123.561 128.39C121.806 127.377 120.724 125.504 120.724 123.478V117.115H132.069V123.478Z" fill="white" stroke="#255F6D" stroke-linecap="round" stroke-linejoin="round"/>
<path d="M99.8972 57.498H99.863C81.0788 57.5092 65.8574 72.7408 65.8586 91.5252V114.009C65.8586 115.744 67.266 117.151 69.0012 117.149H79.093V134.06H89.3012C93.5492 134.06 97.5174 131.942 99.8814 128.412C102.244 131.942 106.212 134.06 110.459 134.06H120.658V117.149H130.75C132.485 117.149 133.891 115.744 133.893 114.009V91.5252C133.893 72.745 118.678 57.5156 99.8972 57.498Z" stroke="#255F6D" stroke-linecap="round" stroke-linejoin="round"/>
<path d="M120.692 119.883V87.7436" stroke="#255F6D" stroke-linecap="round" stroke-linejoin="round"/>
<path d="M79.1045 119.883V87.7436" stroke="#255F6D" stroke-linecap="round" stroke-linejoin="round"/>
<path d="M99.8972 106.649L86.4782 60.248C82.5052 61.9564 78.8936 64.4054 75.8364 67.4642L84.7734 76.4012V85.8494L99.8972 106.649Z" fill="white" stroke="#255F6D" stroke-linecap="round" stroke-linejoin="round"/>
<path d="M99.8972 57.4956L94.2786 87.2256L99.8972 106.649L105.516 87.2256L99.8972 57.4956Z" fill="#0EC4B6" stroke="#255F6D" stroke-linecap="round" stroke-linejoin="round"/>
<path d="M99.8972 128.389V106.649" stroke="#255F6D" stroke-linecap="round" stroke-linejoin="round"/>
<path d="M110.017 71.6634L99.8973 57.4956L89.7783 71.6634" stroke="#255F6D" stroke-linecap="round" stroke-linejoin="round"/>
<path d="M113.316 60.2616C117.284 61.9728 120.89 64.4224 123.942 67.4802L115.021 76.4012V85.8494L99.8972 106.645L113.316 60.2616Z" fill="white" stroke="#255F6D" stroke-linecap="round" stroke-linejoin="round"/>
<path d="M106.89 58.2898L99.8813 65.3806L92.8567 58.2898L92.8727 43.2936H106.906L106.89 58.2898Z" fill="white" stroke="#255F6D" stroke-linecap="round" stroke-linejoin="round"/>
<path d="M99.8973 54.636C108.128 54.6168 115.394 49.2574 117.842 41.3994H117.858C123.835 41.3994 124.198 31.9466 118.803 31.9466V28.1696C118.963 13.617 103.31 4.34803 90.6269 11.4852C84.6107 14.8708 80.9181 21.2666 80.9941 28.1696V31.949C75.5991 31.949 75.9733 41.4018 81.9389 41.4018H81.9549C84.4045 49.2576 91.6683 54.6154 99.8973 54.636Z" fill="white" stroke="#255F6D" stroke-linecap="round" stroke-linejoin="round"/>
<path d="M96.1111 32.4236C96.1111 34.2446 94.1399 35.3826 92.5629 34.4722C91.8309 34.0496 91.3801 33.2688 91.3801 32.4236C91.3801 30.6028 93.3513 29.4646 94.9283 30.3752C95.6603 30.7976 96.1111 31.5786 96.1111 32.4236Z" fill="#255F6D"/>
<path d="M108.398 32.4236C108.398 34.2454 106.426 35.3842 104.848 34.4732C104.116 34.0504 103.665 33.2692 103.665 32.4236C103.665 30.6018 105.637 29.4632 107.215 30.3742C107.947 30.7968 108.398 31.5782 108.398 32.4236Z" fill="#255F6D"/>
<path d="M90.4401 37.6224C90.4419 39.0788 88.8663 39.991 87.6041 39.2644C87.0185 38.927 86.6571 38.303 86.6563 37.627C86.6545 36.1706 88.2299 35.2584 89.4921 35.9852C90.0779 36.3224 90.4393 36.9466 90.4401 37.6224Z" fill="#0EC4B6"/>
<path d="M113.125 37.6224C113.127 39.078 111.552 39.9896 110.291 39.2634C109.705 38.9264 109.344 38.3026 109.343 37.627C109.341 36.1716 110.916 35.26 112.177 35.9862C112.763 36.3232 113.124 36.947 113.125 37.6224Z" fill="#0EC4B6"/>
<path d="M95.1731 43.4672C98.0341 45.3758 101.762 45.3758 104.623 43.4672" stroke="#255F6D" stroke-linecap="round" stroke-linejoin="round"/>
<path d="M89.5295 20.5586C97.8183 28.5988 112.123 27.2728 120.724 24.3608C120.724 8.35259 103.394 -1.65181 89.531 6.35279C83.0884 10.0728 79.1239 16.951 79.1341 24.3904V30.9562C79.1341 30.9562 89.5295 28.3568 89.5295 20.5586Z" fill="white"/>
<path d="M89.5295 20.5586C97.8183 28.5988 112.123 27.2728 120.724 24.3608C120.724 8.35259 103.394 -1.65181 89.531 6.35279C83.0884 10.0728 79.1239 16.951 79.1341 24.3904V30.9562C79.1341 30.9562 89.5295 28.3568 89.5295 20.5586Z" stroke="#255F6D" stroke-linecap="round" stroke-linejoin="round"/>
<path d="M89.5294 20.5586C88.5732 19.6298 88.434 19.7758 87.658 18.5868" stroke="#255F6D" stroke-linecap="round" stroke-linejoin="round"/>
<path d="M98.9321 198C112.123 198 122.813 195.775 122.813 193.029C122.813 190.284 112.121 188.059 98.9321 188.059C85.7411 188.059 75.0513 190.284 75.0513 193.029C75.0513 195.775 85.7433 198 98.9321 198Z" fill="#0EC4B6"/>
<path d="M100.644 180.701C113.898 180.701 124.645 178.419 124.645 175.605C124.645 172.791 113.898 170.509 100.644 170.509C87.3889 170.509 76.6421 172.791 76.6421 175.605C76.6421 178.419 87.3887 180.701 100.644 180.701Z" fill="#0EC4B6"/>
<path d="M39.5063 171.499C53.2723 171.499 64.4323 169.827 64.4323 167.761C64.4323 165.696 53.2723 164.023 39.5063 164.023C25.7403 164.023 14.5803 165.696 14.5803 167.761C14.5803 169.827 25.7403 171.499 39.5063 171.499Z" fill="#0EC4B6"/>
<path d="M51.91 131.454H51.7822C49.3976 131.454 47.4644 129.521 47.4644 127.136V104.791H56.2278V127.127C56.233 129.515 54.2984 131.454 51.91 131.454Z" fill="white" stroke="#255F6D" stroke-linecap="round" stroke-linejoin="round"/>
<path d="M38.0733 159.002H29.3075L28.0569 141.471H38.0733V159.002Z" fill="white"/>
<path d="M38.0733 159.002H29.3075L28.0569 141.471H38.0733V159.002Z" stroke="#255F6D" stroke-linecap="round" stroke-linejoin="round"/>
<path d="M38.0732 159.002H46.839L48.0896 141.471H38.0732V159.002Z" fill="white"/>
<path d="M38.0732 159.002H46.839L48.0896 141.471H38.0732V159.002Z" stroke="#255F6D" stroke-linecap="round" stroke-linejoin="round"/>
<path d="M38.0732 159.002H45.6706C48.373 158.939 50.947 160.155 52.6152 162.282C53.8714 163.842 52.9678 166.176 50.9888 166.484C50.858 166.505 50.7256 166.515 50.5932 166.515H38.0732V159.002Z" fill="#0EC4B6" stroke="#255F6D" stroke-linecap="round" stroke-linejoin="round"/>
<path d="M29.3073 159.002H36.9047C39.6119 158.935 42.1915 160.151 43.8629 162.282C45.1191 163.842 44.2155 166.176 42.2367 166.484C42.1057 166.505 41.9735 166.515 41.8409 166.515H31.8131C30.4267 166.515 29.3027 165.391 29.3027 164.005L29.3073 159.002Z" fill="#0EC4B6" stroke="#255F6D" stroke-linecap="round" stroke-linejoin="round"/>
<path d="M24.3003 117.323L25.4415 138.972C25.5085 140.371 26.6627 141.471 28.0637 141.471H48.0989C49.5041 141.47 50.6599 140.364 50.7233 138.96L51.8645 117.314L24.3003 117.323Z" fill="#0EC4B6" stroke="#255F6D" stroke-linecap="round" stroke-linejoin="round"/>
<path d="M58.1062 94.8274C57.925 83.1036 48.3536 73.7032 36.6286 73.7334C24.9786 73.7334 15.5344 83.1774 15.5344 94.8274V104.791H24.3002V117.314H51.8506V104.791H55.2238C56.7832 104.558 57.978 103.284 58.1106 101.713L58.1062 94.8274Z" fill="white"/>
<path d="M58.1062 94.8274C57.925 83.1036 48.3536 73.7032 36.6286 73.7334C24.9786 73.7334 15.5344 83.1774 15.5344 94.8274V104.791H24.3002V117.314H51.8506V104.791H55.2238C56.7832 104.558 57.978 103.284 58.1106 101.713L58.1062 94.8274Z" stroke="#255F6D" stroke-linecap="round" stroke-linejoin="round"/>
<path d="M24.3003 109.897V94.784" stroke="#255F6D" stroke-linecap="round" stroke-linejoin="round"/>
<path d="M38.0732 93.5312V117.43" stroke="#255F6D" stroke-linecap="round" stroke-linejoin="round"/>
<path d="M48.7901 83.816C49.4817 85.46 48.2711 87.2766 46.4875 87.2712H40.3369L44.6731 75.2966C44.9493 75.4084 45.2209 75.5248 45.4901 75.6458L48.7901 83.816Z" fill="#0EC4B6" stroke="#255F6D" stroke-linecap="round" stroke-linejoin="round"/>
<path d="M27.3538 83.816L31.1446 74.459L31.286 74.4226L35.8504 87.2758H29.6588C27.874 87.2792 26.663 85.4618 27.3538 83.816Z" fill="#0EC4B6" stroke="#255F6D" stroke-linecap="round" stroke-linejoin="round"/>
<path d="M51.8506 104.791C51.7076 103.03 52.1478 101.271 53.1036 99.7844C53.9862 98.2696 54.4222 96.5362 54.361 94.784" stroke="#255F6D" stroke-linecap="round" stroke-linejoin="round"/>
<path d="M7.80481 134.994H32.0186C33.5034 134.994 34.707 136.197 34.707 137.682V153.817C34.707 155.303 33.5022 156.508 32.0164 156.508H7.80481C6.31861 156.508 5.11401 155.303 5.11401 153.817V137.682C5.11281 136.196 6.31861 134.991 7.80481 134.994Z" fill="white" stroke="#255F6D" stroke-linecap="round" stroke-linejoin="round"/>
<path d="M11.8489 134.994V156.407" stroke="#255F6D" stroke-linecap="round" stroke-linejoin="round"/>
<path d="M27.9861 135.094V156.508" stroke="#255F6D" stroke-linecap="round" stroke-linejoin="round"/>
<path d="M14.5393 134.994V131.57C14.5393 129.751 16.0133 128.276 17.8325 128.275H22.0021C23.8217 128.275 25.2965 129.751 25.2953 131.57V134.994" stroke="#255F6D" stroke-linecap="round" stroke-linejoin="round"/>
<path d="M7.80481 134.994H32.0186C33.5034 134.994 34.707 136.197 34.707 137.682V153.817C34.707 155.303 33.5022 156.508 32.0164 156.508H7.80481C6.31861 156.508 5.11401 155.303 5.11401 153.817V137.682C5.11281 136.196 6.31861 134.991 7.80481 134.994Z" stroke="#255F6D" stroke-linecap="round" stroke-linejoin="round"/>
<path d="M19.9802 131.454H19.8546C17.4694 131.454 15.5356 129.521 15.5344 127.136V104.791H24.3002V127.127C24.3028 129.515 22.3682 131.453 19.9802 131.454Z" fill="white" stroke="#255F6D" stroke-linecap="round" stroke-linejoin="round"/>
<path d="M43.7924 74.9634C42.9372 74.6694 42.3638 73.864 42.366 72.9596V67.172H33.5932V72.1928C33.5876 73.1816 32.8976 74.0346 31.9318 74.2468C31.7174 74.2924 31.5074 74.3426 31.2974 74.3974L38.08 93.4992L44.671 75.276C44.3766 75.1734 44.0912 75.0662 43.7924 74.9634Z" fill="white" stroke="#255F6D" stroke-linecap="round" stroke-linejoin="round"/>
<path d="M37.7307 35.3928C29.4119 35.3924 22.6685 42.1362 22.6685 50.4552V53.4676C18.3643 53.4676 18.6587 60.9988 23.4215 60.9988H23.4329C26.8791 72.0404 40.9857 75.211 48.8251 66.7058C51.3919 63.921 52.8123 60.2696 52.8023 56.4824V50.462C52.8061 42.137 46.0557 35.3878 37.7307 35.3928Z" fill="white" stroke="#255F6D" stroke-linecap="round" stroke-linejoin="round"/>
<path d="M33.2099 60.4922C33.2099 61.6516 31.9547 62.3764 30.9507 61.7966C30.4845 61.5276 30.1975 61.0302 30.1975 60.4922C30.1975 59.3326 31.4527 58.608 32.4569 59.1876C32.9229 59.4568 33.2099 59.954 33.2099 60.4922Z" fill="#0EC4B6"/>
<path d="M36.9778 62.9866C39.1278 64.8888 42.359 64.8888 44.509 62.9866" stroke="#255F6D" stroke-linecap="round" stroke-linejoin="round"/>
<path d="M26.5047 55.04C26.7953 51.6046 29.6893 48.9764 33.1367 49.0174H52.7635C54.3427 49.0174 55.5773 48.1044 55.2305 46.5754C52.3289 32.2854 35.0461 26.4952 24.1213 36.153C20.0599 39.7434 17.7315 44.902 17.7253 50.3228V72.412C17.9139 74.106 19.5465 75.2502 21.2033 74.8492C24.9735 73.9502 26.0301 71.2982 26.4911 67.649L26.5047 55.04Z" fill="white"/>
<path d="M26.5047 55.04C26.7953 51.6046 29.6893 48.9764 33.1367 49.0174H52.7635C54.3427 49.0174 55.5773 48.1044 55.2305 46.5754C52.3289 32.2854 35.0461 26.4952 24.1213 36.153C20.0599 39.7434 17.7315 44.902 17.7253 50.3228V72.412C17.9139 74.106 19.5465 75.2502 21.2033 74.8492C24.9735 73.9502 26.0301 71.2982 26.4911 67.649L26.5047 55.04Z" stroke="#255F6D" stroke-linecap="round" stroke-linejoin="round"/>
<path d="M36.5215 49.0174V43.5424" stroke="#255F6D" stroke-linecap="round" stroke-linejoin="round"/>
<path d="M30.2615 49.6792V43.5424" stroke="#255F6D" stroke-linecap="round" stroke-linejoin="round"/>
<path d="M42.7815 49.0174V43.5424" stroke="#255F6D" stroke-linecap="round" stroke-linejoin="round"/>
<path d="M49.0437 49.0174V43.5424" stroke="#255F6D" stroke-linecap="round" stroke-linejoin="round"/>
<path d="M48.0533 54.3554C47.2957 53.6022 46.0721 53.6022 45.3147 54.3554" stroke="#255F6D" stroke-linecap="round" stroke-linejoin="round"/>
<path d="M37.0667 54.3554C36.3097 53.601 35.0851 53.601 34.3281 54.3554" stroke="#255F6D" stroke-linecap="round" stroke-linejoin="round"/>
<path d="M160.503 171.499C174.269 171.499 185.429 169.827 185.429 167.761C185.429 165.696 174.269 164.023 160.503 164.023C146.737 164.023 135.577 165.696 135.577 167.761C135.577 169.827 146.737 171.499 160.503 171.499Z" fill="#0EC4B6"/>
<path d="M148.099 131.454H148.227C150.612 131.454 152.545 129.521 152.545 127.136V104.791H143.781V127.127C143.776 129.515 145.711 131.454 148.099 131.454Z" fill="white" stroke="#255F6D" stroke-linecap="round" stroke-linejoin="round"/>
<path d="M161.936 159.002H170.702L171.952 141.471H161.936V159.002Z" fill="white"/>
<path d="M161.936 159.002H170.702L171.952 141.471H161.936V159.002Z" stroke="#255F6D" stroke-linecap="round" stroke-linejoin="round"/>
<path d="M161.936 159.002H153.17L151.919 141.471H161.936V159.002Z" fill="white"/>
<path d="M161.936 159.002H153.17L151.919 141.471H161.936V159.002Z" stroke="#255F6D" stroke-linecap="round" stroke-linejoin="round"/>
<path d="M161.936 159.002H154.339C151.636 158.939 149.062 160.155 147.394 162.282C146.138 163.842 147.041 166.176 149.02 166.484C149.151 166.505 149.283 166.515 149.416 166.515H161.936V159.002Z" fill="#0EC4B6" stroke="#255F6D" stroke-linecap="round" stroke-linejoin="round"/>
<path d="M170.702 159.002H163.107C160.404 158.939 157.829 160.155 156.16 162.282C154.904 163.842 155.807 166.176 157.786 166.484C157.917 166.505 158.049 166.515 158.182 166.515H168.2C169.587 166.515 170.711 165.391 170.711 164.005L170.704 159.002H170.702Z" fill="#0EC4B6" stroke="#255F6D" stroke-linecap="round" stroke-linejoin="round"/>
<path d="M175.709 117.323L174.568 138.972C174.501 140.371 173.347 141.471 171.946 141.471H151.919C150.514 141.471 149.357 140.364 149.295 138.96L148.154 117.314L175.709 117.323Z" fill="#0EC4B6" stroke="#255F6D" stroke-linecap="round" stroke-linejoin="round"/>
<path d="M141.903 94.8274C142.084 83.1036 151.655 73.7032 163.381 73.7334C175.031 73.7334 184.475 83.1774 184.475 94.8274V104.791H175.709V117.314H148.158V104.791H144.79C143.231 104.558 142.036 103.284 141.903 101.713V94.8274Z" fill="white"/>
<path d="M141.903 94.8274C142.084 83.1036 151.655 73.7032 163.381 73.7334C175.031 73.7334 184.475 83.1774 184.475 94.8274V104.791H175.709V117.314H148.158V104.791H144.79C143.231 104.558 142.036 103.284 141.903 101.713V94.8274Z" stroke="#255F6D" stroke-linecap="round" stroke-linejoin="round"/>
<path d="M175.709 109.897V94.784" stroke="#255F6D" stroke-linecap="round" stroke-linejoin="round"/>
<path d="M161.936 93.5312V117.43" stroke="#255F6D" stroke-linecap="round" stroke-linejoin="round"/>
<path d="M151.219 83.816C150.527 85.461 151.739 87.2782 153.524 87.2712H159.672L155.336 75.2966C155.062 75.4084 154.788 75.5248 154.519 75.6458L151.219 83.816Z" fill="#0EC4B6" stroke="#255F6D" stroke-linecap="round" stroke-linejoin="round"/>
<path d="M172.655 83.816L168.864 74.459L168.723 74.4226L164.159 87.2758H170.35C172.136 87.2818 173.349 85.462 172.655 83.816Z" fill="#0EC4B6" stroke="#255F6D" stroke-linecap="round" stroke-linejoin="round"/>
<path d="M148.158 104.791C148.302 103.03 147.861 101.271 146.906 99.7844C146.024 98.2662 145.59 96.5294 145.655 94.775" stroke="#255F6D" stroke-linecap="round" stroke-linejoin="round"/>
<path d="M192.193 134.994H167.993C166.507 134.995 165.303 136.199 165.302 137.684V153.817C165.303 155.304 166.509 156.508 167.995 156.508H192.193C193.679 156.508 194.885 155.304 194.886 153.817V137.684C194.885 136.198 193.679 134.994 192.193 134.994Z" fill="white" stroke="#255F6D" stroke-linecap="round" stroke-linejoin="round"/>
<path d="M188.16 134.994V156.407" stroke="#255F6D" stroke-linecap="round" stroke-linejoin="round"/>
<path d="M172.023 135.094V156.508" stroke="#255F6D" stroke-linecap="round" stroke-linejoin="round"/>
<path d="M185.472 134.994V131.57C185.472 129.75 183.997 128.275 182.177 128.275H178.009C176.19 128.276 174.716 129.751 174.716 131.57V134.994" stroke="#255F6D" stroke-linecap="round" stroke-linejoin="round"/>
<path d="M192.193 134.994H167.993C166.507 134.995 165.303 136.199 165.302 137.684V153.817C165.303 155.304 166.509 156.508 167.995 156.508H192.193C193.679 156.508 194.885 155.304 194.886 153.817V137.684C194.885 136.198 193.679 134.994 192.193 134.994Z" stroke="#255F6D" stroke-linecap="round" stroke-linejoin="round"/>
<path d="M180.029 131.454H180.155C182.54 131.454 184.473 129.521 184.475 127.136V104.791H175.711V127.127C175.706 129.515 177.641 131.454 180.029 131.454Z" fill="white" stroke="#255F6D" stroke-linecap="round" stroke-linejoin="round"/>
<path d="M156.208 74.9542C157.065 74.6604 157.64 73.8542 157.639 72.9482V67.1516H166.416V72.1722C166.417 73.167 167.11 74.0268 168.082 74.24C168.294 74.2856 168.506 74.3358 168.716 74.3906L161.922 93.522L155.322 75.2646C155.623 75.1642 155.918 75.057 156.208 74.9542Z" fill="white" stroke="#255F6D" stroke-linecap="round" stroke-linejoin="round"/>
<path d="M184.913 72.485C181.633 68.907 179.814 64.2298 179.814 59.3762V57.8722C179.764 59.847 178.152 61.4234 176.177 61.4302H176.163C174.914 65.3882 172.044 68.6306 168.267 70.3512C171.685 73.0526 175.914 74.523 180.271 74.5252H184.05C184.974 74.529 185.556 73.531 185.097 72.729C185.046 72.64 184.984 72.558 184.913 72.485Z" fill="white" stroke="#255F6D" stroke-linecap="round" stroke-linejoin="round"/>
<path d="M162.356 36.6914C170.394 36.6876 176.913 43.202 176.914 51.2402V54.1476C181.067 54.1476 180.794 61.4232 176.186 61.4232C172.874 72.0872 159.26 75.1674 151.681 66.9674C149.189 64.2716 147.812 60.731 147.828 57.0598V51.2402C147.828 43.2132 154.329 36.7026 162.356 36.6914Z" fill="white" stroke="#255F6D" stroke-linecap="round" stroke-linejoin="round"/>
<path d="M168.176 60.2616C168.131 61.3834 169.318 62.1322 170.312 61.6096C170.809 61.348 171.112 60.8234 171.09 60.2616C171.046 59.1398 169.804 58.4866 168.854 59.0858C168.448 59.342 168.194 59.7818 168.176 60.2616Z" fill="#0EC4B6"/>
<path d="M163.084 62.74C161.304 64.3196 158.706 64.5634 156.664 63.3426C156.363 63.1654 156.077 62.964 155.808 62.74" stroke="#255F6D" stroke-linecap="round" stroke-linejoin="round"/>
<path d="M146.351 46.8744C146.351 46.8744 146.109 50.5418 147.807 51.2402C147.807 51.2402 149.261 46.8744 152.171 46.8744C152.171 49.7842 155.525 50.9824 156.536 51.2402C157.538 49.3936 159.054 47.8772 160.9 46.8744C162.054 49.1562 164.206 50.7702 166.719 51.2402C166.866 49.3786 167.967 47.7262 169.629 46.8744C171.291 46.0226 173.995 57.8768 179.814 57.8768V51.2402C179.814 40.918 172.539 32.3256 162.356 32.3256C154.323 32.3256 146.351 38.8366 146.351 46.8744Z" fill="white"/>
<path d="M146.351 46.8744C146.351 46.8744 146.109 50.5418 147.807 51.2402C147.807 51.2402 149.261 46.8744 152.171 46.8744C152.171 49.7842 155.525 50.9824 156.536 51.2402C157.538 49.3936 159.054 47.8772 160.9 46.8744C162.054 49.1562 164.206 50.7702 166.719 51.2402C166.866 49.3786 167.967 47.7262 169.629 46.8744C171.291 46.0226 173.995 57.8768 179.814 57.8768V51.2402C179.814 40.918 172.539 32.3256 162.356 32.3256C154.323 32.3256 146.351 38.8366 146.351 46.8744Z" stroke="#255F6D" stroke-linecap="round" stroke-linejoin="round"/>
<path d="M163.415 54.2504C163.415 55.6988 164.983 56.6042 166.237 55.88C166.819 55.5438 167.178 54.9226 167.178 54.2504C167.178 52.8018 165.61 51.8966 164.356 52.6208C163.773 52.957 163.415 53.5782 163.415 54.2504Z" fill="#255F6D"/>
<path d="M152.113 54.2504C152.112 55.7016 153.681 56.6104 154.939 55.8864C155.523 55.5504 155.883 54.9284 155.883 54.255C155.885 52.8038 154.315 51.895 153.058 52.619C152.474 52.955 152.114 53.577 152.113 54.2504Z" fill="#255F6D"/>
<path d="M98.9319 192.292C121.304 192.292 139.441 174.156 139.441 151.784C139.441 129.411 121.304 111.275 98.9319 111.275C76.5599 111.275 58.4233 129.412 58.4233 151.784C58.4233 174.156 76.5597 192.292 98.9319 192.292Z" fill="white"/>
<path d="M98.9319 192.292C121.304 192.292 139.441 174.156 139.441 151.784C139.441 129.411 121.304 111.275 98.9319 111.275C76.5599 111.275 58.4233 129.412 58.4233 151.784C58.4233 174.156 76.5597 192.292 98.9319 192.292Z" stroke="#255F6D" stroke-linecap="round" stroke-linejoin="round"/>
<path d="M91.9027 171.776C90.3383 171.777 88.8379 171.156 87.7331 170.048L75.9367 158.251C72.6613 155.106 74.0195 149.594 78.3815 148.33C80.4879 147.72 82.7589 148.328 84.2779 149.91L91.9027 157.537L115.918 133.522C119.129 130.311 124.611 131.78 125.786 136.166C126.331 138.201 125.75 140.373 124.259 141.863L96.0745 170.048C94.9691 171.156 93.4677 171.778 91.9027 171.776Z" fill="#0EC4B6" stroke="#255F6D" stroke-linecap="round" stroke-linejoin="round"/>
</svg>
